<?xml version="1.0" encoding="utf-8"?>
<!-- Generator: Adobe Illustrator 24.1.2, SVG Export Plug-In . SVG Version: 6.00 Build 0)  -->
<svg version="1.1" id="Capa_1" xmlns="http://www.w3.org/2000/svg" xmlns:xlink="http://www.w3.org/1999/xlink" x="0px" y="0px"
	 viewBox="0 0 320 255" style="enable-background:new 0 0 320 255;" xml:space="preserve">
<style type="text/css">
	.st0{fill:#5688FB;}
	.st1{fill:#FFFFFF;}
</style>
<g>
	<path class="st0" d="M127.8,141.6l-13.5-6.3L99,151.5c1.8,10.8,5.4,19.8,10.8,28.8l18.9,0.9l9-10.8L127.8,141.6z"/>
	<path class="st0" d="M0,160v95h225l95-95L160,0L0,160z M230.4,146.1c0,38.7-31.5,70.2-70.2,70.2S90,184.9,90,146.1
		c0-38.7,31.5-70.2,70.2-70.2S230.4,107.4,230.4,146.1z"/>
	<path class="st0" d="M191.7,142.5l-9.9,28.8l9,9.9l20.7-3.6c5.4-7.2,8.1-16.2,9-25.2l-15.3-16.2L191.7,142.5z"/>
	<path class="st0" d="M203.4,127.2l4.5-19.8c-6.3-8.1-15.3-14.4-25.2-18.9l-18,9.9v16.2l25.2,18.9L203.4,127.2z"/>
	<path class="st0" d="M130.5,134.4l25.2-18.9V98.4l-18-9.9c-9.9,4.5-18,10.8-25.2,18.9l4.5,19.8L130.5,134.4z"/>
	<path class="st0" d="M135.9,187.6l5.4,17.1c6.3,1.8,12.6,2.7,18.9,2.7c6.3,0,10.8,0,16.2-1.8l8.1-18.9l-9-9.9h-30.6L135.9,187.6z"
		/>
	<path class="st1" d="M90,146.1c0,38.7,31.5,70.2,70.2,70.2s70.2-31.5,70.2-70.2c0-38.7-31.5-70.2-70.2-70.2S90,107.4,90,146.1z
		 M109.8,180.4c-5.4-9-9-18-10.8-28.8l15.3-16.2l13.5,6.3l9.9,28.8l-9,10.8L109.8,180.4z M220.5,152.4c-0.9,9-3.6,18-9,25.2
		l-20.7,3.6l-9-9.9l9.9-28.8l13.5-6.3L220.5,152.4z M164.7,98.4l18-9.9c9.9,4.5,18.9,10.8,25.2,18.9l-4.5,19.8l-13.5,6.3l-25.2-18.9
		V98.4z M175.5,176.8l9,9.9l-8.1,18.9c-5.4,1.8-9.9,1.8-16.2,1.8c-6.3,0-12.6-0.9-18.9-2.7l-5.4-17.1l9-10.8H175.5z M137.7,88.5
		l18,9.9v17.1l-25.2,18.9l-13.5-7.2l-4.5-19.8C119.7,99.3,127.8,93,137.7,88.5z"/>
</g>
</svg>
