<?xml version="1.0" encoding="utf-8"?>
<!-- Generator: Adobe Illustrator 24.1.2, SVG Export Plug-In . SVG Version: 6.00 Build 0)  -->
<svg version="1.1" id="Capa_1" xmlns="http://www.w3.org/2000/svg" xmlns:xlink="http://www.w3.org/1999/xlink" x="0px" y="0px"
	 viewBox="0 0 1280 1920" style="enable-background:new 0 0 1280 1920;" xml:space="preserve">
<style type="text/css">
	.st0{fill:#5688FB;}
	.st1{fill:#EF3894;}
	.st2{fill:#FFFFFF;}
</style>
<polygon class="st0" points="852.6,1920 882.9,1920 1232.3,1570.5 1217.2,1555.4 1095.5,1433.7 609.3,1920 "/>
<polygon class="st1" points="579,1920 609.3,1920 1110.7,1418.6 1241.2,1288.1 1226.1,1272.9 1043.8,1090.6 214.4,1920 "/>
<g>
	<path class="st2" d="M1074.1,1175.9l14.6,18l-4.1,4.1l12.2,47.4l9.9,12l4-4l14.5,17.9l-24.4,24.4l-14.5-17.9l4-4l-9.9-12
		c0,0-1-0.5-2.9-1.4c-1.9-0.9-4.3-2-7.2-3.3c-2.9-1.3-6-2.7-9.4-4.3c-3.4-1.6-6.6-3-9.6-4.4c-3-1.4-5.6-2.6-7.8-3.6
		c-2.2-1-3.5-1.6-4-1.8l-4,4l-14.6-18l24.4-24.4l14.6,18l-4,4l19.4,10.5l-7-22.9l-4.1,4.1l-14.6-18L1074.1,1175.9z M1068.3,1295.8
		l14.5,17.9l-24.4,24.4l-14.5-17.9l4-4l-4.6-3.7l-14.5,14.5l2.9,5.4l4-4l14.5,17.9l-24.4,24.4l-14.5-17.9l4-4l-27.9-53.8l-4.7,4.7
		l-14.5-17.9l40.7-40.7l14.5,17.9l-4.6,4.6l45.3,36.4L1068.3,1295.8z M1017.7,1305.4l7.5-7.5l-19.6-15.6L1017.7,1305.4z
		 M1000.1,1347.6l21.8,26.9l-46.2,46.2l-14.5-17.9l4-4l-36.6-45.1l-4,4l-14.5-17.9l24.4-24.4l14.5,17.9l-4,4l36.6,45.1l9.5-9.5
		l-7.3-9L1000.1,1347.6z M914,1392.8l-10.9-13.5l-12.3,12.3l10.9,13.5L914,1392.8z M912.1,1354l25.6,31.5l-0.8,17.2l-20.5,20.5
		l10.9,13.5l4-4l14.6,18l-24.4,24.4l-14.6-18l4-4l-36.5-45l-4,4l-14.5-17.9l40.8-40.8L912.1,1354z M828.6,1421.1l22,27l-12.2,12.2
		l-7.3-9l-4.1,4.1l36.5,45l4.1-4.1l14.6,18l-24.5,24.5l-14.6-18l4.1-4.1l-36.5-45l-4.1,4.1l7.3,9l-12.3,12.3l-22-27L828.6,1421.1z
		 M775.5,1474.3l14.6,18l-4,4l43.8,54l-0.8,17.2l-30.3,30.3l-15.5-0.8l-43.8-54l-4,4l-14.6-18l24.4-24.4l14.6,18l-4,4l36.5,45l14-14
		l-36.5-45l-4,4l-14.6-18L775.5,1474.3z M737.7,1561l-16.2,16.2l-7.3-9l-10.7,10.7l10.9,13.5l16.2-16.2l14.6,18l-16.2,16.2
		l10.9,13.5l4-4l14.6,18l-24.5,24.5l-14.6-18l4.1-4.1l-36.5-45l-4.1,4.1l-14.6-18l47.4-47.4L737.7,1561z"/>
</g>
</svg>
