<?xml version="1.0" encoding="utf-8"?>
<!-- Generator: Adobe Illustrator 24.1.2, SVG Export Plug-In . SVG Version: 6.00 Build 0)  -->
<svg version="1.1" id="Capa_1" xmlns="http://www.w3.org/2000/svg" xmlns:xlink="http://www.w3.org/1999/xlink" x="0px" y="0px"
	 viewBox="0 0 24 24" style="enable-background:new 0 0 24 24;" xml:space="preserve">
<style type="text/css">
	.st0{fill:#EF3894;}
</style>
<path class="st0" d="M17.2,5.1H6.8c-0.9,0-1.7,0.8-1.7,1.7v10.3c0,0.9,0.8,1.7,1.7,1.7h10.3c0.9,0,1.7-0.8,1.7-1.7v-1.6v-7V6.8
	C18.9,5.9,18.1,5.1,17.2,5.1z M7.6,14.4c0.5,0,0.8-0.5,0.8-0.8v-3.1c0-0.5-0.5-0.8-0.8-0.8H6V8.3h3.4c0.1,0,0.2,0.1,0.2,0.2v7
	c0,0.1-0.1,0.2-0.2,0.2H6v-1.3H7.6L7.6,14.4z M6,13.4v-2.7h1.3v2.7H6z M18,8.6c-1.7,0.2-3.1,1.6-3.1,3.4s1.3,3.2,3.1,3.4v1.7
	c0,0.5-0.5,0.8-0.8,0.8H6.8C6.4,18,6,17.5,6,17.2v-0.5h3.4c0.7,0,1.3-0.5,1.3-1.3v-7c0-0.7-0.5-1.3-1.3-1.3H6V6.8C6,6.4,6.5,6,6.8,6
	h10.3C17.6,6,18,6.5,18,6.8V8.6L18,8.6z M17.9,9.6v4.8c-1.2-0.2-2-1.3-2-2.5S16.8,9.8,17.9,9.6z"/>
</svg>
