<?xml version="1.0" encoding="utf-8"?>
<!-- Generator: Adobe Illustrator 24.1.2, SVG Export Plug-In . SVG Version: 6.00 Build 0)  -->
<svg version="1.1" id="Capa_1" xmlns="http://www.w3.org/2000/svg" xmlns:xlink="http://www.w3.org/1999/xlink" x="0px" y="0px"
	 viewBox="0 0 24 24" style="enable-background:new 0 0 24 24;" xml:space="preserve">
<style type="text/css">
	.st0{fill:#5688FB;}
</style>
<g>
	<g>
		<g>
			<path class="st0" d="M12,5.1c-3.8,0-6.9,3.1-6.9,6.9s3.1,6.9,6.9,6.9s6.9-3.1,6.9-6.9S15.8,5.1,12,5.1z M12.4,7.3l1.8-1
				c1,0.4,1.9,1.1,2.5,1.9l-0.4,1.9l-1.3,0.6l-2.5-1.9C12.4,8.9,12.4,7.3,12.4,7.3z M9.8,6.3l1.8,1V9l-2.5,1.9l-1.3-0.7L7.3,8.2
				C8,7.4,8.8,6.8,9.8,6.3z M7,15.4c-0.5-0.9-0.9-1.8-1.1-2.8l1.5-1.6l1.3,0.6l1,2.8l-0.9,1.1L7,15.4z M13.6,17.8
				C13.1,18,12.6,18,12,18c-0.6,0-1.2-0.1-1.9-0.3l-0.5-1.7l0.9-1.1h3l0.9,1L13.6,17.8z M15,15.4l-0.9-1l1-2.8l1.3-0.6l1.5,1.6
				c-0.1,0.9-0.4,1.8-0.9,2.5L15,15.4z"/>
		</g>
	</g>
</g>
</svg>
