<?xml version="1.0" encoding="utf-8"?>
<!-- Generator: Adobe Illustrator 24.1.2, SVG Export Plug-In . SVG Version: 6.00 Build 0)  -->
<svg version="1.1" id="Capa_1" xmlns="http://www.w3.org/2000/svg" xmlns:xlink="http://www.w3.org/1999/xlink" x="0px" y="0px"
	 viewBox="0 0 24 24" style="enable-background:new 0 0 24 24;" xml:space="preserve">
<style type="text/css">
	.st0{fill:none;}
	.st1{fill:#2B0082;}
</style>
<rect class="st0" width="24" height="24"/>
<g>
	<path class="st1" d="M12,12.7c1.4,0,2.7,0.3,3.6,0.8c0.9,0.4,1.5,1.4,1.5,2.3v1.4H6.9v-1.4c0-1,0.6-2,1.5-2.3
		C9.3,12.9,10.6,12.7,12,12.7z M5.1,12.9c0.9,0,1.7-0.8,1.7-1.7S6.1,9.4,5.1,9.4s-1.7,0.8-1.7,1.7S4.2,12.9,5.1,12.9z M6.1,13.8
		c-0.3-0.1-0.6-0.1-0.9-0.1c-0.9,0-1.6,0.2-2.4,0.5c-0.6,0.3-1,0.9-1,1.6v1.3h3.9v-1.4C5.6,15.1,5.7,14.4,6.1,13.8z M18.9,12.9
		c0.9,0,1.7-0.8,1.7-1.7s-0.8-1.7-1.7-1.7s-1.7,0.8-1.7,1.7S17.9,12.9,18.9,12.9z M22.3,15.8c0-0.7-0.4-1.3-1-1.6
		c-0.8-0.3-1.5-0.4-2.4-0.4c-0.3,0-0.7,0-0.9,0.1c0.3,0.6,0.5,1.3,0.5,2v1.4h3.9v-1.5H22.3z M12,6.9c1.5,0,2.6,1.1,2.6,2.6
		S13.5,12,12,12s-2.6-1.1-2.6-2.6S10.5,6.9,12,6.9z"/>
</g>
</svg>
