<?xml version="1.0" encoding="utf-8"?>
<!-- Generator: Adobe Illustrator 24.1.2, SVG Export Plug-In . SVG Version: 6.00 Build 0)  -->
<svg version="1.1" id="Capa_1" xmlns="http://www.w3.org/2000/svg" xmlns:xlink="http://www.w3.org/1999/xlink" x="0px" y="0px"
	 viewBox="0 0 1280 1920" style="enable-background:new 0 0 1280 1920;" xml:space="preserve">
<style type="text/css">
	.st0{fill:#FFFFFF;stroke:#000000;stroke-width:7;stroke-miterlimit:10;}
</style>
<g>
	<path class="st0" d="M150.8,1537.7l2.4-23.5h-30.8l-3.7,35h46.6l-4.9,46.9h-46.6l-3.7,35h11.6l-4.9,46.9H46.6l4.9-46.9h11.9
		l12.2-117H63.6l4.9-46.9h136.2l-7.3,70.4H150.8z"/>
	<path class="st0" d="M371.3,1514.3h-11.6l-14.6,140.4l-25.9,23.5h-87.1l-21-23.5l14.6-140.4h-11.6l4.9-46.9h70.1l-4.9,46.9h-11.6
		l-12.2,117h40.2l12.2-117h-11.6l4.9-46.9h70.1L371.3,1514.3z"/>
	<path class="st0" d="M521.5,1537.7h-35l2.4-23.5H477l-12.2,117h11.9l-4.9,46.9h-70.4l4.9-46.9h11.9l12.2-117h-11.9l-2.4,23.5h-35.3
		l7.3-70.4h140.7L521.5,1537.7z"/>
	<path class="st0" d="M736.6,1572.8l-25.9,23.5h-58.8l-3.7,35h11.6l-4.9,46.9h-70.1l4.9-46.9h11.6l12.2-117h-11.6l4.9-46.6h117.3
		l21,23.2L736.6,1572.8z M695.7,1514.3h-35.3l-3.7,35h35.3L695.7,1514.3z"/>
	<path class="st0" d="M873.4,1678.2H740.5l4.9-46.6H757l12.2-117.3h-11.6l4.9-46.6h70.1l-4.9,46.6h-11.6l-12.2,117.3h27.4l2.4-23.5
		h46.9L873.4,1678.2z"/>
	<path class="st0" d="M1048.2,1678.2h-70.1l4.9-46.6h11.6l-1.2-11.9h-41.7l-3.7,11.9h11.6l-4.9,46.6h-70.1l4.9-46.6h11.6l37.2-117.3
		h-13.4l4.9-46.6h117l-4.9,46.6h-13.1l12.8,117.3h11.6L1048.2,1678.2z M988.2,1572.8l-5.8-50.6l-15.8,50.6H988.2z"/>
	<path class="st0" d="M1233.4,1467.7l-4.9,46.9h-11.9l-50.6,85.6l-3,31.4h11.6l-4.9,46.6h-70.1l4.9-46.6h11.6l3-31.4
		c-2.8-8.1-5.4-15.2-7.6-21.2c-2.2-6-4.7-12.5-7.3-19.6c-2.6-7.1-5.1-13.8-7.5-20.1c-2.3-6.3-4.4-11.7-6.1-16.3
		c-1.7-4.6-2.8-7.4-3.2-8.4h-11.6l4.9-46.9h70.1l-4.9,46.9h-11.6l12.8,43l22.8-43h-11.9l4.9-46.9H1233.4z"/>
</g>
</svg>
