<?xml version="1.0" encoding="utf-8"?>
<!-- Generator: Adobe Illustrator 24.1.2, SVG Export Plug-In . SVG Version: 6.00 Build 0)  -->
<svg version="1.1" id="Capa_1" xmlns="http://www.w3.org/2000/svg" xmlns:xlink="http://www.w3.org/1999/xlink" x="0px" y="0px"
	 viewBox="0 0 320 255" style="enable-background:new 0 0 320 255;" xml:space="preserve">
<style type="text/css">
	.st0{fill:#EF3894;}
	.st1{fill:#5688FB;}
	.st2{fill:#FFFFFF;}
</style>
<g>
	<path class="st0" d="M136.7,180.4V111c0-0.9-0.9-1.8-1.8-1.8h-34.2v13.5H116c3.6,0,8.1,2.7,8.1,8.1v30.6c0,3.6-2.7,8.1-8.1,8.1
		h-15.3v12.6h34.2C135.8,182.2,136.7,181.3,136.7,180.4z"/>
	<rect x="100.7" y="132.6" class="st0" width="12.6" height="27"/>
	<path class="st0" d="M160,0L0,160v95h220.9l99.1-95L160,0z M228.5,181.3v16.2c0,9-8.1,17.1-17.1,17.1H108.8
		c-9,0-17.1-8.1-17.1-17.1V94.8c0-9,8.1-17.1,17.1-17.1h102.6c9,0,17.1,8.1,17.1,17.1V111V181.3z"/>
	<path class="st0" d="M211.4,86.7H108.8c-3.6,0-8.1,3.6-8.1,8.1v3.6h34.2c7.2,0,12.6,5.4,12.6,12.6v69.3c0,7.2-5.4,12.6-12.6,12.6
		h-34.2v4.5c0,3.6,3.6,8.1,8.1,8.1h102.6c3.6,0,8.1-3.6,8.1-8.1v-17.1c-18-2.7-30.6-16.2-30.6-34.2c0-18,13.5-32.4,30.6-34.2V94.8
		C219.5,91.2,215.9,86.7,211.4,86.7z"/>
	<path class="st0" d="M218.6,170.5v-47.7c-10.8,1.8-19.8,11.7-19.8,23.4S206.9,168.7,218.6,170.5z"/>
	<polygon class="st1" points="225,255 320,255 320,160 	"/>
	<polygon class="st1" points="220.9,255 225,255 320,160 	"/>
	<path class="st2" d="M211.4,77.7H108.8c-9,0-17.1,8.1-17.1,17.1v102.6c0,9,8.1,17.1,17.1,17.1h102.6c9,0,17.1-8.1,17.1-17.1v-16.2
		V111V94.8C228.5,85.8,220.4,77.7,211.4,77.7z M100.7,132.6h12.6v27h-12.6V132.6z M100.7,169.6H116c5.4,0,8.1-4.5,8.1-8.1v-30.6
		c0-5.4-4.5-8.1-8.1-8.1h-15.3v-13.5h34.2c0.9,0,1.8,0.9,1.8,1.8v69.3c0,0.9-0.9,1.8-1.8,1.8h-34.2V169.6z M219.5,111.9
		c-17.1,1.8-30.6,16.2-30.6,34.2c0,18,12.6,31.5,30.6,34.2v17.1c0,4.5-4.5,8.1-8.1,8.1H108.8c-4.5,0-8.1-4.5-8.1-8.1V193h34.2
		c7.2,0,12.6-5.4,12.6-12.6V111c0-7.2-5.4-12.6-12.6-12.6h-34.2v-3.6c0-4.5,4.5-8.1,8.1-8.1h102.6c4.5,0,8.1,4.5,8.1,8.1V111.9z
		 M218.6,122.7v47.7c-11.7-1.8-19.8-12.6-19.8-24.3S207.8,124.5,218.6,122.7z"/>
</g>
</svg>
