<?xml version="1.0" encoding="utf-8"?>
<!-- Generator: Adobe Illustrator 24.1.2, SVG Export Plug-In . SVG Version: 6.00 Build 0)  -->
<svg version="1.1" id="Capa_1" xmlns="http://www.w3.org/2000/svg" xmlns:xlink="http://www.w3.org/1999/xlink" x="0px" y="0px"
	 viewBox="0 0 320 255" style="enable-background:new 0 0 320 255;" xml:space="preserve">
<style type="text/css">
	.st0{fill:#2AFECB;}
	.st1{fill:#EF3894;}
	.st2{fill:#FFFFFF;}
</style>
<g>
	<path class="st0" d="M160,0L0,160v95h225l95-95L160,0z M159.2,99.3c13.5,0,23.4,9.9,23.4,23.4c0,13.5-9.9,22.5-23.4,22.5
		s-23.4-9.9-23.4-23.4S145.7,99.3,159.2,99.3z M102.5,178.6v12.6H67.4v-11.7c0-6.3,3.6-11.7,9-14.4c7.2-2.7,13.5-4.5,21.6-4.5
		c2.7,0,5.4,0,8.1,0.9C102.5,166.9,101.6,173.2,102.5,178.6z M97.1,153.3c-8.1,0-15.3-8.1-15.3-16.2c0-8.1,6.3-15.3,15.3-15.3
		c9,0,15.3,8.1,15.3,16.2S105.2,153.3,97.1,153.3z M205.1,192.1h-91.8v-12.6c0-9,5.4-18,13.5-20.7c8.1-5.4,19.8-7.2,32.4-7.2
		c12.6,0,24.3,2.7,32.4,7.2c8.1,3.6,13.5,12.6,13.5,20.7V192.1z M206,138c0-8.1,7.2-15.3,15.3-15.3s15.3,7.2,15.3,15.3
		s-7.2,15.3-15.3,15.3C212.3,153.3,206,146.1,206,138z M217.7,193v-12.6c0-6.3-1.8-12.6-4.5-18c1.8-0.9,5.4-0.9,8.1-0.9
		c8.1,0,14.4,0.9,21.6,3.6c5.4,2.7,9,8.1,9,14.4h0.9V193H217.7z"/>
	<polygon class="st1" points="225,255 320,255 320,160 	"/>
	<path class="st2" d="M159.2,145.2c13.5,0,23.4-9,23.4-22.5c0-13.5-9.9-23.4-23.4-23.4s-23.4,9-23.4,22.5S145.7,145.2,159.2,145.2z"
		/>
	<path class="st2" d="M97.1,121.8c-9,0-15.3,7.2-15.3,15.3c0,8.1,7.2,16.2,15.3,16.2s15.3-7.2,15.3-15.3S106.1,121.8,97.1,121.8z"/>
	<path class="st2" d="M191.6,158.7c-8.1-4.5-19.8-7.2-32.4-7.2c-12.6,0-24.3,1.8-32.4,7.2c-8.1,2.7-13.5,11.7-13.5,20.7v12.6h91.8
		v-12.6C205.1,171.4,199.7,162.3,191.6,158.7z"/>
	
		<ellipse transform="matrix(0.9239 -0.3827 0.3827 0.9239 -35.9825 95.2003)" class="st2" cx="221.3" cy="138" rx="15.3" ry="15.3"/>
	<path class="st2" d="M251.9,179.5c0-6.3-3.6-11.7-9-14.4c-7.2-2.7-13.5-3.6-21.6-3.6c-2.7,0-6.3,0-8.1,0.9c2.7,5.4,4.5,11.7,4.5,18
		V193h35.1v-13.5H251.9z"/>
	<path class="st2" d="M98,160.5c-8.1,0-14.4,1.8-21.6,4.5c-5.4,2.7-9,8.1-9,14.4v11.7h35.1v-12.6c-0.9-5.4,0-11.7,3.6-17.1
		C103.4,160.5,100.7,160.5,98,160.5z"/>
</g>
</svg>
