<svg xmlns="http://www.w3.org/2000/svg" width="1131.069" height="217.813" viewBox="0 0 1131.069 217.813">
  <g id="Grupo_13" data-name="Grupo 13" transform="translate(-42.686 -1463.869)">
    <path id="Trazado_12" data-name="Trazado 12" d="M150.756,1537.741l2.437-23.457H122.424l-3.656,35.034h46.61l-4.874,46.915h-46.61l-3.656,35.034h11.576l-4.874,46.915H46.568l4.874-46.915H63.323l12.186-116.983H63.628l4.874-46.915H204.677l-7.311,70.372Z" fill="#fff" stroke="#000" stroke-miterlimit="10" stroke-width="7"/>
    <path id="Trazado_13" data-name="Trazado 13" d="M371.313,1514.284H359.737l-14.623,140.44-25.894,23.458H232.092l-21.021-23.458,14.624-140.44H214.118l4.874-46.915H289.06l-4.874,46.915H272.609l-12.186,116.983h40.213l12.186-116.983H301.246l4.874-46.915h70.068Z" fill="#fff" stroke="#000" stroke-miterlimit="10" stroke-width="7"/>
    <path id="Trazado_14" data-name="Trazado 14" d="M521.5,1537.741H486.466l2.437-23.457h-11.88l-12.186,116.983h11.881l-4.875,46.915H401.472l4.873-46.915h11.882l12.185-116.983h-11.88l-2.438,23.457H380.756l7.311-70.372H528.813Z" fill="#fff" stroke="#000" stroke-miterlimit="10" stroke-width="7"/>
    <path id="Trazado_15" data-name="Trazado 15" d="M673.01,1572.775l-25.894,23.458h-58.8l-3.656,35.034h11.577l-4.874,46.915H521.3l4.874-46.915H537.75l12.185-116.983H538.359l4.874-46.61H660.52l21.02,23.152Zm-40.822-58.491H596.85l-3.656,35.034h35.339Z" fill="#fff" stroke="#000" stroke-miterlimit="10" stroke-width="7"/>
    <path id="Trazado_16" data-name="Trazado 16" d="M809.792,1678.182H676.968l4.874-46.611h11.577L705.6,1514.284H694.028l4.874-46.61H768.97l-4.874,46.61H752.519l-12.186,117.287h27.419l2.436-23.457H817.1Z" fill="#fff" stroke="#000" stroke-miterlimit="10" stroke-width="7"/>
    <path id="Trazado_17" data-name="Trazado 17" d="M984.652,1678.182H914.584l4.874-46.611h11.577l-1.219-11.88H888.08l-3.656,11.88H896l-4.874,46.611H821.059l4.874-46.611h11.576l37.167-117.287h-13.4l4.874-46.61H983.128l-4.874,46.61h-13.1l12.8,117.287h11.576Zm-60.015-105.407-5.788-50.57-15.842,50.57Z" fill="#fff" stroke="#000" stroke-miterlimit="10" stroke-width="7"/>
    <path id="Trazado_18" data-name="Trazado 18" d="M1169.872,1467.674,1165,1514.589h-11.88l-50.572,85.6-3.045,31.378h11.575l-4.874,46.611h-70.068l4.874-46.611h11.577l3.047-31.378q-4.27-12.18-7.616-21.172t-7.312-19.65q-3.963-10.659-7.464-20.107t-6.092-16.3q-2.592-6.853-3.2-8.377h-11.577l4.875-46.915h70.068l-4.875,46.915h-11.576l12.8,42.955,22.848-42.955h-11.881l4.875-46.915Z" fill="#fff" stroke="#000" stroke-miterlimit="10" stroke-width="7"/>
  </g>
</svg>
