<svg version="1.1" id="Capa_1" xmlns="http://www.w3.org/2000/svg" x="0" y="0" viewBox="0 0 1280 1920" xml:space="preserve"><style>.st0{fill:#7e43f5}.st1{fill:#2afecb}.st2{fill:#fff}</style><path class="st0" d="M874.8 293.5c.5-.1 1.1-.2 1.6-.3-.6.1-1.1.2-1.6.3zM877.4 293.1c.5-.1 1.1-.2 1.6-.3-.5.1-1.1.2-1.6.3zM990.2 395.3c.1.1.1.2.2.4-.1-.2-.1-.3-.2-.4zM872.2 294c.6-.1 1.1-.2 1.7-.3-.6.1-1.1.2-1.7.3zM880 292.6c.6-.1 1.1-.2 1.7-.3-.6.1-1.2.2-1.7.3zM885.3 291.7zM882.6 292.2c.6-.1 1.1-.2 1.7-.3-.5.1-1.1.2-1.7.3zM858.6 296.5c.5-.1 1.1-.2 1.6-.3-.6.1-1.1.2-1.6.3zM852 297.7c.4-.1.9-.2 1.3-.3-.4.1-.8.2-1.3.3zM847.8 298.5c.4-.1.8-.2 1.2-.2-.4.1-.8.2-1.2.2zM849.9 298.1c.4-.1.8-.2 1.2-.2-.4.1-.8.1-1.2.2zM845.8 298.9c.4-.1.7-.1 1.1-.2-.4.1-.7.2-1.1.2zM854.2 297.3c.5-.1.9-.2 1.4-.3-.5.1-1 .2-1.4.3zM860.8 296c.6-.1 1.1-.2 1.7-.3-.6.1-1.1.2-1.7.3zM843.8 299.4c.4-.1.7-.1 1.1-.2-.4 0-.8.1-1.1.2zM856.3 296.9l1.5-.3-1.5.3zM888.1 291.3c.6-.1 1.1-.2 1.7-.3-.6.1-1.2.2-1.7.3zM934.3 287.7c0 .1.1.2.1.2 0-.1 0-.2-.1-.2zM937.4 293.2c.1 0 .1.1 0 0 .1.1.1 0 0 0zM890.9 290.8c.6-.1 1.1-.2 1.7-.3-.6.1-1.2.2-1.7.3zM942.8 302.8c.1.2.2.3.3.5-.1-.1-.2-.3-.3-.5zM928.4 285.5c.7-.1 1.3-.2 2-.2-.7 0-1.4.1-2 .2zM941.4 300.3c.1.2.2.3.3.5-.1-.1-.2-.3-.3-.5zM939.2 296.4c.2.4.4.8.7 1.2-.3-.4-.5-.8-.7-1.2zM938.6 295.4c.2.3.3.6.5.9-.1-.3-.3-.6-.5-.9zM938.4 294.9c.1.1.2.3.2.4-.1-.1-.1-.3-.2-.4zM896.5 289.9l1.8-.3c-.6.2-1.2.3-1.8.3zM913.7 287.4c3.6-.5 7.3-1 11-1.5-3.7.5-7.4 1-11 1.5zM893.7 290.4c.6-.1 1.1-.2 1.7-.3-.6.1-1.2.2-1.7.3zM902.3 289.1l1.8-.3-1.8.3zM899.3 289.5l1.8-.3-1.8.3zM910.9 287.8l2.1-.3-2.1.3zM905.2 288.6c.6-.1 1.2-.2 1.9-.3-.7.2-1.3.3-1.9.3zM908 288.2c.7-.1 1.3-.2 2-.3-.6.1-1.3.2-2 .3zM925.2 285.9l2.1-.3-2.1.3zM1086.1 509.5v0zM1086.1 511v0zM1086.2 507.7v0zM1082.5 517.8zM841.8 299.8c.3-.1.7-.1 1-.2-.3 0-.6.1-1 .2zM814.3 305.8c.1 0 .2 0 .3-.1-.1.1-.2.1-.3.1zM813.6 306h.2-.2zM1086.1 409.2c-.1.2-.1.3-.2.5 0-.1.1-.3.2-.5zM1084.3 413.4c.1-.1.1-.1 0 0 .1-.1.1-.1 0 0zM1085.5 410.6c-.1.1-.1.3-.2.4.1-.1.1-.2.2-.4zM1085.2 411.2c0 .1-.1.2-.1.3 0-.1.1-.2.1-.3zM1085.8 409.9c-.1.1-.1.3-.2.4 0-.1.1-.2.2-.4zM1085 411.8s0 .1 0 0c0 .1 0 0 0 0zM1084.6 412.7zM1083.7 416.2zM815.2 305.6c.1 0 .2 0 .3-.1-.1.1-.2.1-.3.1zM1086.5 498.8zM812.8 306.2c.1 0 .1 0 0 0 .1 0 .1 0 0 0zM834.4 301.3c.3-.1.6-.1.9-.2-.2.1-.5.1-.9.2zM832.8 301.7c.3-.1.6-.1.8-.2-.3 0-.6.1-.8.2zM831.1 302c.2-.1.5-.1.7-.2-.2.1-.5.2-.7.2zM829.5 302.4c.1 0 .3-.1.4-.1-.1 0-.3 0-.4.1zM826 303.1c.1 0 .3-.1.4-.1-.1.1-.2.1-.4.1zM839.9 300.2c.3-.1.7-.1 1-.2-.3 0-.7.1-1 .2zM836.2 300.9c.3-.1.7-.1 1-.2-.3.1-.7.2-1 .2zM838 300.5c.3-.1.7-.1 1.1-.2-.4.1-.7.2-1.1.2zM820.6 304.3c.1 0 .2-.1.3-.1-.1.1-.2.1-.3.1zM819.3 304.6c.2 0 .3-.1.5-.1-.2.1-.3.1-.5.1zM818.2 304.9c.1 0 .3-.1.5-.1-.2 0-.3.1-.5.1zM817.2 305.1c.1 0 .2-.1.3-.1-.1.1-.2.1-.3.1zM823 303.8c.2 0 .4-.1.7-.1-.3 0-.5.1-.7.1zM816.2 305.4c.1 0 .2 0 .3-.1-.1 0-.2 0-.3.1zM824.4 303.5c.2 0 .4-.1.6-.1-.2 0-.4 0-.6.1zM821.8 304.1c.2 0 .3-.1.5-.1-.2 0-.3 0-.5.1zM1086.4 503.6s0 .1 0 0c0 .1 0 0 0 0zM977.1 368.4c.1.1.1.2.2.3-.1-.1-.2-.2-.2-.3zM981.1 376.6c.5 1.1 1.1 2.2 1.6 3.2-.5-1-1-2.1-1.6-3.2zM965.1 344.1c0 .1 0 .1.1.2 0-.1 0-.2-.1-.2zM972.1 358.2c.7 1.4 1.4 2.8 2.1 4.3-.7-1.4-1.4-2.9-2.1-4.3zM974.2 362.5c.1.2.2.3.2.5 0-.1-.1-.3-.2-.5zM980 374.3c.3.7.7 1.4 1 2.1-.3-.7-.7-1.4-1-2.1zM977.9 370.1c.3.6.6 1.1.8 1.7-.2-.6-.5-1.1-.8-1.7zM978.8 371.8c.1.3.3.6.4.9-.1-.3-.3-.6-.4-.9zM975.9 366c.3.7.7 1.4 1.1 2.1-.4-.7-.7-1.4-1.1-2.1zM965.5 344.9s0 .1 0 0c0 .1 0 0 0 0zM965.4 344.7zM965.6 345.2c0 .1.1.1.1.2 0-.1 0-.1-.1-.2zM965.3 344.4s0 .1.1.1c-.1 0-.1-.1-.1-.1zM965.8 345.5l.3.6-.3-.6zM968.7 351.3c.1.3.3.6.4.9-.1-.3-.3-.6-.4-.9zM967.9 349.8c.1.2.2.5.4.7-.1-.2-.3-.4-.4-.7zM971.4 356.8c.2.4.4.8.6 1.3-.2-.4-.4-.8-.6-1.3zM975 364.2c.3.6.6 1.1.8 1.7-.2-.6-.5-1.1-.8-1.7zM988.6 391.9l.3.6c-.1-.3-.2-.4-.3-.6zM986.9 388.4c.1.2.2.5.3.7-.1-.2-.2-.5-.3-.7zM987.3 389.3c.1.3.3.5.4.8-.1-.3-.2-.6-.4-.8zM943.5 304.1c0 .1.1.2.1.2 0-.1-.1-.1-.1-.2zM987.7 390.2c.3.5.5 1 .7 1.5-.2-.5-.4-1-.7-1.5zM989.3 393.4c.1.1.1.3.2.4-.1-.1-.1-.3-.2-.4zM989.9 394.7c.1.1.1.3.2.4 0-.1-.1-.3-.2-.4zM989.6 394.1c.1.1.1.3.2.4 0-.1-.1-.3-.2-.4zM983.9 382.2c.1.3.3.5.4.8-.2-.3-.3-.5-.4-.8zM982.8 380c.1.2.2.5.4.7-.1-.2-.3-.4-.4-.7zM983.4 381.2c.1.3.3.6.4.8-.1-.2-.3-.5-.4-.8zM984.4 383.4c.1.3.3.6.4.9-.1-.3-.2-.6-.4-.9zM985.4 385.4c.1.3.3.6.4.9-.1-.3-.2-.6-.4-.9zM985.9 386.4c.1.2.2.4.3.7 0-.2-.1-.4-.3-.7zM984.9 384.3c.2.3.3.7.5 1-.2-.3-.3-.6-.5-1zM986.4 387.5l.3.6-.3-.6zM988.9 392.6c.1.2.2.4.3.5-.1-.1-.2-.3-.3-.5zM964.9 343.6c0 .1.1.1.1.2 0 0 0-.1-.1-.2zM952.8 321c.1.1.1.2.2.3-.1-.1-.1-.2-.2-.3zM952 319.5c.1.2.2.3.3.5-.1-.2-.2-.3-.3-.5zM949.9 315.6c.1.2.2.4.3.5-.1-.1-.2-.3-.3-.5zM950.6 316.8c.1.2.2.4.4.7-.2-.2-.3-.4-.4-.7zM954.9 324.8c.1.1.1.3.2.4 0-.2-.1-.3-.2-.4zM953.5 322.1l.3.6-.3-.6zM954.2 323.4c.1.2.2.3.3.5-.2-.2-.2-.3-.3-.5zM945.6 307.9l.3.6c-.1-.3-.2-.5-.3-.6zM946.2 308.9c.1.3.3.5.4.8-.1-.3-.3-.5-.4-.8zM957.1 328.8c0 .1.1.2.1.2s0-.1-.1-.2zM944.8 306.4l.3.6-.3-.6zM949.2 314.3c.1.1.2.3.2.4-.1-.1-.1-.2-.2-.4zM944.2 305.3l.3.6-.3-.6zM948.4 313c.1.2.2.3.3.5-.1-.2-.2-.4-.3-.5zM947 310.4l.3.6c-.1-.3-.2-.4-.3-.6zM947.6 311.6c.1.2.3.5.4.7-.1-.3-.2-.5-.4-.7zM951.3 318.1c.1.2.2.4.4.7-.2-.2-.3-.5-.4-.7zM963.5 340.7c.1.1.1.2.2.3-.1-.1-.2-.2-.2-.3zM962.2 338.3c.1.1.1.2.2.4-.1-.2-.1-.3-.2-.4zM962.6 339.1c.1.1.1.2.2.4 0-.1-.1-.3-.2-.4zM963.8 341.4c.1.1.1.2.2.3-.1-.1-.1-.2-.2-.3zM963.1 339.9c.1.1.1.2.2.3-.1-.1-.2-.2-.2-.3zM964.7 343.2c0 .1.1.2.1.2 0-.1 0-.2-.1-.2zM964.2 342c0 .1.1.2.1.3-.1-.1-.1-.2-.1-.3zM964.5 342.6c0 .1.1.2.1.3-.1-.1-.1-.2-.1-.3zM960.7 335.4c.1.1.1.3.2.4-.1-.1-.1-.2-.2-.4zM959.6 333.4c.1.2.2.3.3.5-.1-.2-.2-.4-.3-.5zM961.7 337.4c.1.1.1.2.2.3 0-.1-.1-.2-.2-.3zM958.4 331.1c.1.2.2.3.3.5-.1-.1-.2-.3-.3-.5zM959 332.2c.1.2.2.3.3.5-.1-.1-.2-.3-.3-.5zM960.1 334.4c.1.2.2.3.3.5-.1-.2-.2-.3-.3-.5zM961.2 336.4c.1.1.1.2.2.3 0 0-.1-.1-.2-.3zM957.8 330c.1.1.2.3.2.4-.1-.1-.2-.3-.2-.4zM863 295.6c2.8-.5 5.7-1 8.6-1.6-3 .6-5.8 1.1-8.6 1.6zM963 202.6c.4.3.7.5 1 .8-.3-.3-.7-.6-1-.8zM964.6 203.8c.3.3.7.5 1 .8-.4-.3-.7-.6-1-.8zM959.3 199.9c.4.3.9.6 1.3.9-.4-.3-.9-.6-1.3-.9zM966 204.9c.3.3.7.5 1 .8-.3-.3-.6-.5-1-.8zM961.2 201.3c.4.3.8.6 1.1.8-.3-.3-.7-.5-1.1-.8zM967.3 205.9c.4.3.8.6 1.2 1-.4-.3-.8-.6-1.2-1zM969.9 208c.2.2.4.3.6.5-.2-.2-.4-.3-.6-.5zM968.6 206.9c.3.3.7.6 1 .8-.4-.2-.7-.5-1-.8zM937.6 185.7c.7.4 1.5.9 2.2 1.3-.7-.4-1.4-.9-2.2-1.3zM944 189.6c.6.4 1.2.8 1.8 1.1-.6-.3-1.2-.7-1.8-1.1zM940.9 187.7zM946.8 191.4c.6.4 1.2.8 1.8 1.1-.6-.3-1.2-.7-1.8-1.1zM970.8 208.8c.2.1.3.3.4.4-.1-.2-.2-.3-.4-.4zM952 194.8c.8.5 1.5 1 2.3 1.5-.8-.5-1.5-1-2.3-1.5zM949.5 193.1l1.8 1.2c-.6-.3-1.2-.7-1.8-1.2zM954.4 196.4c.8.5 1.5 1.1 2.2 1.6-.7-.5-1.5-1.1-2.2-1.6zM957 198.3c.6.4 1.1.8 1.6 1.2-.5-.5-1-.8-1.6-1.2zM993.3 215.7c.3.1.7.2 1 .2-.3 0-.6-.1-1-.2zM1007.3 219.3c.3.1.5.1.8.2-.3 0-.6-.1-.8-.2zM1000.4 217.5c.3.1.6.2.9.2-.3-.1-.6-.1-.9-.2zM1003.8 218.4c.3.1.6.2.8.2-.2 0-.5-.1-.8-.2zM933.8 183.3c1 .6 1.9 1.1 2.8 1.7-.9-.5-1.9-1.1-2.8-1.7zM996.9 216.6c.3.1.6.2 1 .2-.4-.1-.7-.1-1-.2zM1017.2 222.2c.2.1.5.1.7.2-.3-.1-.5-.1-.7-.2zM1013.9 221.2c.2.1.5.1.7.2-.2 0-.4-.1-.7-.2zM1010.6 220.3c.2.1.5.1.7.2-.2-.1-.4-.1-.7-.2zM982.5 213.2l1.2.3-1.2-.3zM972.8 210.5c-.1 0-.1 0 0 0-.1 0-.1 0 0 0zM972.2 210c.1.1.2.2.3.2-.1 0-.2-.1-.3-.2zM989.7 214.8c.4.1.7.2 1.1.3-.3-.1-.7-.2-1.1-.3zM975.4 211.7c.3.1.6.1 1 .2-.3 0-.6-.1-1-.2zM986.1 214c.4.1.7.2 1.1.3-.3-.1-.7-.2-1.1-.3zM971.6 209.4c.1.1.2.2.4.3-.2 0-.3-.1-.4-.3zM978.8 212.4l1.2.3-1.2-.3zM762.3 238c.1-.1.2-.3.3-.4-.1.1-.2.3-.3.4zM767.3 231.1c.1-.2.3-.4.4-.5-.2.2-.3.3-.4.5zM766.2 232.5c.1-.2.3-.4.4-.6-.1.2-.2.4-.4.6zM768.3 229.7c.1-.1.2-.3.3-.4-.1.1-.2.2-.3.4zM765.2 233.9c.1-.2.3-.3.4-.5-.1.1-.2.3-.4.5zM771.1 225.9c.1-.1.2-.3.3-.4-.1.1-.2.3-.3.4zM764.2 235.2c.1-.2.2-.3.3-.5 0 .2-.1.4-.3.5zM770.2 227.1c.1-.1.2-.3.3-.4-.1.1-.2.3-.3.4zM769.2 228.4c.1-.2.2-.3.4-.5-.1.2-.2.3-.4.5zM1020.3 223.2c.2.1.4.1.6.2-.1-.1-.3-.2-.6-.2zM755.7 247.5c.1-.1.2-.2.2-.4 0 .2-.1.3-.2.4zM757.1 245.4c.1-.1.2-.2.2-.4 0 .1-.1.2-.2.4zM756.4 246.5c.1-.1.2-.3.3-.4-.2.1-.2.2-.3.4zM755.1 248.5c.1-.1.2-.2.2-.4-.1.1-.1.3-.2.4zM761.4 239.2c0-.1.1-.1.1-.2 0 .1 0 .1-.1.2zM757.9 244.2c0-.1.1-.1.1-.2 0 0 0 .1-.1.2zM772 224.7l.3-.3c-.1 0-.2.2-.3.3zM763.2 236.6c.1-.2.2-.3.3-.5 0 .2-.2.4-.3.5zM796.2 195.1c.5-.5.9-1 1.4-1.5-.5.5-.9 1-1.4 1.5zM904.3 167.2c1.1.6 2.2 1.1 3.2 1.6-1-.5-2.1-1.1-3.2-1.6zM909.2 169.7c.9.5 1.9 1 2.8 1.5-.9-.5-1.8-1-2.8-1.5zM772.8 223.7c.1-.2.2-.3.4-.5-.2.1-.3.3-.4.5zM808.6 181.6zM926 178.8c1 .6 1.9 1.1 2.9 1.6-1-.5-2-1-2.9-1.6zM806.7 183.6l.1-.1-.1.1zM918 174.4c.9.5 1.7.9 2.5 1.4-.8-.5-1.6-.9-2.5-1.4zM922.1 176.6c.9.5 1.7 1 2.5 1.4-.8-.4-1.7-.9-2.5-1.4zM913.7 172.1c.9.5 1.7.9 2.6 1.4-.8-.5-1.7-.9-2.6-1.4zM774.8 220.9c.1-.2.3-.3.4-.5-.1.2-.2.3-.4.5zM1086.4 408.5c-.1.2-.1.3-.2.5 0-.2.1-.4.2-.5zM929.7 180.9l3.6 2.1-3.6-2.1zM773.6 222.6c.1-.1.2-.3.3-.4-.1.1-.2.3-.3.4zM776.4 218.9c.2-.3.3-.4.4-.5-.1 0-.2.2-.4.5zM775.9 219.5l.1-.1s-.1 0-.1.1zM775.4 220.1c.1-.1.2-.2.2-.3 0 .1-.1.2-.2.3zM774.2 221.7c.1-.2.3-.4.4-.5-.1.2-.2.3-.4.5zM1097.9 377.7c-.2.5-.3 1-.5 1.5.2-.5.4-1 .5-1.5zM1097.4 379.3l-1.2 3.3 1.2-3.3zM1098.5 376c-.1.4-.3.8-.4 1.3.1-.5.3-.9.4-1.3zM1099.1 374.3c-.1.4-.3.8-.4 1.2.1-.4.3-.8.4-1.2zM1096.1 383c-.1.4-.3.8-.4 1.2.1-.4.2-.8.4-1.2zM1094.9 386.3l-.3.9c0-.3.1-.6.3-.9zM1094.3 387.9l-.3.9.3-.9zM1099.7 372.6c-.1.4-.2.7-.4 1.1.1-.4.2-.7.4-1.1zM1095.5 384.7c-.1.4-.3.7-.4 1.1.1-.4.2-.8.4-1.1zM1103.7 360.2c-.1.4-.2.7-.3 1.1 0-.4.2-.8.3-1.1zM1100.2 370.9c-.1.4-.2.7-.4 1.1.2-.4.3-.8.4-1.1zM1102.5 363.8c-.1.4-.2.7-.3 1.1.1-.4.2-.7.3-1.1zM1104.3 358.2c-.1.4-.2.8-.4 1.2.1-.3.2-.7.4-1.2zM1103.1 362c-.1.4-.2.7-.3 1.1.1-.4.2-.7.3-1.1zM1100.8 369.1c-.1.4-.2.7-.3 1.1.1-.4.2-.7.3-1.1zM1101.4 367.4c-.1.3-.2.7-.3 1 .1-.3.2-.7.3-1zM1102 365.6c-.1.4-.2.7-.3 1.1 0-.4.2-.8.3-1.1zM1089.7 400.1c-.1.4-.3.7-.4 1 .1-.3.3-.7.4-1zM1087.8 404.8c-.1.2-.2.4-.2.6.1-.2.1-.4.2-.6zM1088.7 402.6c-.1.3-.2.5-.3.8.1-.2.2-.5.3-.8zM1088.2 403.8c-.1.2-.2.5-.3.7.1-.2.2-.5.3-.7zM1089.2 401.2c-.1.4-.3.8-.4 1.1.1-.3.3-.7.4-1.1zM1087.4 405.9c-.1.2-.1.4-.2.6.1-.3.1-.4.2-.6zM1086.7 407.6c-.1.2-.1.4-.2.5.1-.1.1-.3.2-.5zM1087.1 406.7c-.1.2-.2.4-.2.6 0-.2.1-.4.2-.6zM1104.9 356.3c-.1.5-.3.9-.4 1.4.1-.5.2-1 .4-1.4zM1093.7 389.4l-.3.9.3-.9zM1092.7 392.2l-.3.9.3-.9zM1092.2 393.6l-.3.9c0-.3.1-.6.3-.9zM1090.2 398.8c-.1.3-.3.7-.4 1 .1-.3.2-.6.4-1zM1093.2 390.8l-.3.9.3-.9zM1090.6 397.6c-.1.3-.2.6-.4.9.2-.3.3-.6.4-.9zM1023.5 224.1c.2.1.4.1.6.2-.3 0-.5-.1-.6-.2zM1091.1 396.3l-.3.9.3-.9zM1091.6 395l-.3.9.3-.9zM1052.1 234c.1.1.3.1.4.2-.1-.1-.3-.2-.4-.2zM1047.8 232.4c.1 0 .2.1.3.1-.1 0-.2-.1-.3-.1zM1054.1 234.7c.1.1.3.1.4.2-.2-.1-.3-.1-.4-.2zM1050 233.2c.1 0 .3.1.4.1-.2 0-.3-.1-.4-.1zM1055.9 235.4c.1.1.3.1.4.2-.1-.1-.2-.1-.4-.2zM1062.1 237.9c.4.2.8.3 1.2.5-.3-.2-.7-.4-1.2-.5zM1057.7 236.1c.2.1.3.1.5.2-.2-.1-.4-.1-.5-.2zM1105.5 354.2c-.2.6-.3 1.1-.5 1.7.2-.6.3-1.2.5-1.7zM1060.8 237.3c.5.2.9.4 1.3.5-.4-.1-.8-.3-1.3-.5zM1029.5 226.1c.2.1.3.1.5.2-.2-.1-.4-.2-.5-.2zM1045.4 231.5c.1 0 .2.1.3.1-.1 0-.2 0-.3-.1zM1032.3 227c.1 0 .3.1.4.1-.1 0-.2 0-.4-.1zM1026.5 225.1c.2.1.3.1.5.2-.2-.1-.3-.1-.5-.2zM1035.1 227.9c.2.1.3.1.4.2-.1-.1-.2-.1-.4-.2zM1043 230.7c.1 0 .3.1.4.1-.1 0-.3-.1-.4-.1zM1040.5 229.8c.1 0 .2.1.3.1-.1 0-.2-.1-.3-.1zM1037.9 228.9c.1 0 .3.1.4.1-.2 0-.3-.1-.4-.1zM1059.3 236.7l.9.3c-.3 0-.6-.1-.9-.3zM1108.6 343c-.1.4-.2.7-.3 1.1.1-.4.2-.7.3-1.1zM1107.6 346.7c-.1.4-.2.7-.3 1.1.1-.4.2-.7.3-1.1zM1108.1 344.9c-.1.4-.2.7-.3 1.1.1-.4.2-.8.3-1.1zM1109.5 339.4c-.1.3-.2.7-.3 1 .1-.3.2-.7.3-1zM1071.8 248.3zM1106.1 352.2c-.2.6-.4 1.2-.5 1.8.1-.6.3-1.2.5-1.8zM1106.6 350.3c-.1.5-.3 1-.4 1.5.1-.5.2-1 .4-1.5zM1107.1 348.5l-.3 1.2.3-1.2zM1109 341.2c-.1.4-.2.7-.3 1.1.1-.4.2-.7.3-1.1zM1111.5 330.3c-.1.4-.2.7-.2 1.1.1-.3.1-.7.2-1.1zM1111.9 328.4c-.1.4-.2.8-.2 1.3 0-.4.1-.8.2-1.3zM1109.9 337.6c-.1.3-.2.7-.2 1 0-.3.1-.7.2-1zM1098.9 291.3c1.8 3.8 3.5 7.6 5.1 11.4-1.5-3.8-3.2-7.7-5.1-11.4zM1110.3 335.8c-.1.3-.2.7-.2 1 .1-.3.1-.7.2-1zM1110.7 334c-.1.3-.2.7-.2 1 .1-.3.2-.7.2-1zM1111.1 332.2c-.1.4-.2.7-.2 1.1.1-.4.2-.8.2-1.1zM979.4 373c.2.3.3.7.5 1-.2-.3-.4-.6-.5-1zM805.4 178.6c-.1 0-.1 0 0 0-.1 0-.1 0 0 0zM968 424.8c-.2.2-.4.4-.5.6.1-.2.3-.4.5-.6zM828.3 170.8c-3.6 1.1-7.1 2.2-10.6 3.5 3.5-1.3 7-2.4 10.6-3.5zM866.4 162.7c-5.5.7-11 1.6-16.5 2.7 5.4-1.1 10.9-2 16.5-2.7zM917 147.3L900.1 161zM964.9 428c-.2.2-.4.5-.7.7.3-.2.5-.5.7-.7zM801.5 177.1c-.3-.1-.6-.2-.9-.4.3.2.6.3.9.4zM802.6 177.5c-.2-.1-.4-.2-.6-.2.2.1.4.2.6.2zM966.5 426.4l-.6.6.6-.6zM804.7 178.3c-.1-.1-.3-.1-.4-.2.2.1.3.2.4.2zM803.6 177.9c-.2-.1-.4-.1-.6-.2.2.1.4.2.6.2zM849.9 165.4zM982.5 409.6l-.3.3.3-.3zM981.5 410.6l-.5.5c.2-.2.4-.3.5-.5zM980.5 411.7l-.5.5c.2-.1.3-.3.5-.5zM983.5 408.5l-.3.3.3-.3zM984.4 407.6l-.2.2.2-.2zM973.7 418.8l-.5.5c.2-.1.4-.3.5-.5zM972.4 420.3l-.5.5c.1-.2.3-.4.5-.5zM970.9 421.8l-.5.5c.2-.2.3-.4.5-.5zM977.8 414.5l-.2.2c.1 0 .2-.1.2-.2zM979.3 413l-.5.5.5-.5zM969.5 423.3l-.6.6.6-.6zM961.8 431.3l-.8.8c.3-.3.5-.6.8-.8zM1072.6 536.3c-4.4 5.5-9.1 10.7-14.1 15.8 5-5 9.7-10.3 14.1-15.8zM951.6 441.7l-.8.8.8-.8zM955 438.2l-.8.8.8-.8zM1072.6 536.3c3.9-4.8 7.6-9.8 11.1-14.9-3.5 5.1-7.2 10.1-11.1 14.9zM953.3 439.9l-.8.8c.3-.2.5-.5.8-.8zM902.9 166.4c-1.6-.8-3.2-1.6-4.9-2.4-5.6-.1-11.3.1-16.9.4 5.6-.3 11.2-.5 16.9-.4 1.6.8 3.3 1.6 4.9 2.4zM1070.2 216.2l-2 23.1 2-23.1zM1056.4 550.1c5.2-5.4 10.2-11 14.8-16.7-4.6 5.7-9.5 11.3-14.8 16.7zM1112 327.9c.1-.6.2-1.2.3-1.7-2.3-8-5.1-15.8-8.3-23.5 3.2 7.7 5.9 15.5 8.3 23.5-.1.6-.2 1.2-.3 1.7zM1082.5 517.8c1.2-1.8 2.3-3.5 3.5-5.3v-.1.1c-1.1 1.8-2.3 3.6-3.5 5.3zM960.1 433l-.8.8.8-.8zM963.4 429.6l-.7.7.7-.7zM956.8 436.4l-.8.8c.2-.3.5-.5.8-.8zM1078.5 252.1l-4.2-5.4c1.4 1.7 2.8 3.5 4.2 5.4zM787.1 171.9c2.9 1 6.9 2.5 10.8 3.9-3.8-1.4-7.8-2.9-10.8-3.9zM799.2 176.3c-.4-.1-.8-.3-1.2-.5.4.2.8.3 1.2.5zM985.4 406.6l-.3.3.3-.3zM958.5 434.7l-.8.8c.2-.3.5-.6.8-.8zM1139.3 335.8l-15.9-8.9zM1088.2 266c-1.7-2.7-3.5-5.3-5.3-7.9 1.8 2.6 3.6 5.2 5.3 7.9zM800.3 176.7c-.3-.1-.6-.2-1-.4.4.1.7.3 1 .4zM991.2 397.4c0 .1.1.1.1.2 0 0-.1-.1-.1-.2zM990 401.7s-.1.1-.1.2c0-.1 0-.2.1-.2zM986.1 405.8l-.1.1.1-.1zM989.5 402.2s-.1.1-.1.2c0-.1 0-.2.1-.2zM990.9 396.7c0 .1.1.2.1.3 0-.1-.1-.2-.1-.3zM988.9 402.8l-.1.1.1-.1zM987.7 404.1l-.2.2.2-.2zM988.3 403.4l-.1.1s.1 0 .1-.1zM986.9 404.9c0 .1-.1.1 0 0-.1.1 0 .1 0 0zM990.5 395.8c0 .1.1.2.1.3 0-.1-.1-.2-.1-.3zM991.1 397.1c0 .1.1.1.1.2-.1 0-.1-.1-.1-.2zM990.7 396.3c0 .1.1.2.1.3 0-.1-.1-.2-.1-.3z"/><path class="st1" d="M823.5 615.9c.1.1.1.3.2.4 0-.1-.1-.3-.2-.4zM823.2 615.3c0 .1.1.1.1.2 0-.1-.1-.2-.1-.2zM797.5 356.2c0-.2.1-.3.1-.5 0 .2-.1.3-.1.5zM823.9 616.7c.2.3.3.6.5 1-.1-.4-.3-.7-.5-1zM797.7 355c0-.1 0-.2.1-.3 0 0 0 .1-.1.3zM759 581.7c7.8 5.5 16 10.5 24.4 15-8.5-4.4-16.6-9.5-24.4-15zM822.8 614.5c0 .1.1.2.1.3 0-.1 0-.2-.1-.3zM822.2 613.3c.1.3.3.6.6 1.1-.3-.5-.5-.8-.6-1.1zM726.6 569.2c.4 0 .7-.1 1.1-.1-.4 0-.8 0-1.1.1zM752.9 577.3c2 1.5 4 3 6.1 4.4-2.1-1.4-4.1-2.9-6.1-4.4zM824.6 617.9c.1.2.2.3.3.5-.1-.1-.2-.3-.3-.5zM734.2 568.3c.4-.1.8-.1 1.2-.2-.4.1-.8.2-1.2.2zM732.8 568.5c.4 0 .7-.1 1-.1-.3 0-.7.1-1 .1zM731.2 568.7c.4-.1.9-.1 1.3-.2-.4.1-.9.1-1.3.2zM794.1 373.7c.1-.4.2-.8.3-1.1-.1.3-.2.7-.3 1.1zM728 569c.5 0 .9-.1 1.4-.1-.4 0-.9.1-1.4.1zM729.7 568.8c.4 0 .7-.1 1.1-.1-.3.1-.7.1-1.1.1zM793.8 375.1l.3-1.2-.3 1.2zM737.9 567.7c.3-.1.6-.1.8-.2-.2.1-.5.1-.8.2zM736.8 567.9c.4-.1.7-.1 1-.2-.3.1-.6.1-1 .2zM740.1 566.9l-.4.4.4-.4zM794.4 372.5c.1-.4.2-.7.3-1-.1.3-.2.7-.3 1zM739 567.5c.3-.1.5-.1.8-.2-.3 0-.6.1-.8.2zM735.6 568.1c.3-.1.7-.1 1-.2-.4.1-.7.2-1 .2zM796.3 362.8c0-.1 0-.1 0 0 0-.1 0-.1 0 0zM822 613.1c0 .1.1.1.1.2 0-.1 0-.2-.1-.2zM670.3 332.6zM799 348.5c0-.2.1-.4.1-.6-.1.3-.1.4-.1.6zM672.9 286.2l.6 1.7zM833.9 635c.1.2.2.3.3.5-.1-.2-.2-.4-.3-.5zM666.4 348.8c-.7 3.6-1.4 7.3-1.9 11 .6-3.7 1.2-7.3 1.9-11zM821.9 612.9h-.1c.1-.1.1 0 .1 0zM834.6 636.2c.1.1.2.3.3.4-.2-.1-.2-.3-.3-.4zM835.2 637.3c.1.1.1.2.2.3 0-.1-.1-.2-.2-.3zM662 398.3v-5.1 5.1zM661.9 398.5c-.1.1-.2.3-.4.5.1-.2.2-.3.4-.5zM825.1 618.9l.3.6-.3-.6zM654.4 407.8c-.6.8-1.3 1.6-1.9 2.4.7-.8 1.3-1.6 1.9-2.4zM659 402c-.8 1-1.7 2.2-2.7 3.3 1-1.1 1.9-2.2 2.7-3.3zM661.3 399.2c-.2.3-.4.5-.6.8.2-.3.4-.5.6-.8zM659.8 401c-.2.3-.5.6-.7.9.2-.3.5-.6.7-.9zM660.7 400c-.2.3-.4.5-.7.8.2-.3.5-.5.7-.8zM656.3 405.4c-.6.8-1.3 1.6-1.9 2.4.7-.9 1.3-1.6 1.9-2.4zM827.1 622.6l.3.6c-.1-.3-.2-.5-.3-.6zM798.5 351.2c0-.2.1-.4.1-.5-.1.1-.1.3-.1.5zM827.7 623.7l.3.6-.3-.6zM826.3 621c.2.3.3.6.5 1-.2-.3-.4-.7-.5-1zM825.6 619.9l.3.6-.3-.6zM833.3 633.9c.1.2.2.3.3.5-.1-.2-.2-.3-.3-.5zM828.3 624.8c.1.2.2.4.4.7-.2-.3-.3-.5-.4-.7zM798.2 352.4c0-.1.1-.3.1-.4 0 .1-.1.3-.1.4zM832.7 632.8c.1.2.2.3.3.5-.1-.1-.2-.3-.3-.5zM798.7 349.9c0-.2.1-.4.1-.6 0 .2-.1.4-.1.6zM828.9 626c.2.4.4.7.6 1.1-.2-.4-.4-.7-.6-1.1zM831.9 631.5c.1.2.2.3.3.5-.1-.2-.2-.3-.3-.5zM829.9 627.7c.1.2.2.4.3.5-.2-.1-.2-.3-.3-.5zM831.2 630.1c.1.2.2.4.3.5-.1-.1-.2-.3-.3-.5zM830.5 628.9c.1.2.2.3.3.5-.1-.1-.2-.3-.3-.5zM853.2 469.2c-1.4-.7-2.7-1.4-4-2l4 2zM917.7 475.2l-.9.9c.3-.4.6-.6.9-.9zM919.5 473.4l-.9.9.9-.9zM921.4 471.7l-.9.9c.2-.3.5-.6.9-.9zM915.9 476.9c-.3.3-.6.6-.9.8.3-.2.6-.5.9-.8zM787.8 418.6c.1-.6.1-1.2.2-1.7-.1.5-.1 1.1-.2 1.7zM914 478.6c-.3.3-.6.5-.9.8.4-.2.6-.5.9-.8zM788 416.5c.1-.6.1-1.2.2-1.8 0 .6-.1 1.2-.2 1.8zM928.8 464.5l-.9.9c.3-.4.6-.6.9-.9zM930.6 462.7c-.3.3-.6.6-.9.8.4-.3.6-.6.9-.8zM932.5 460.8c-.3.3-.6.5-.8.8l.8-.8zM788.3 414.3c.1-.6.1-1.2.2-1.8-.1.6-.1 1.2-.2 1.8zM912.2 480.3c-.3.3-.6.5-.9.8.4-.3.6-.5.9-.8zM925.1 468.1l-.9.9.9-.9zM923.2 469.9c-.3.3-.6.6-.9.8.3-.2.6-.5.9-.8zM926.9 466.3l-.9.9.9-.9zM910.4 482c-.3.3-.6.5-.8.8l.8-.8zM787.6 420.4c.1-.5.1-1 .2-1.6-.1.6-.2 1.1-.2 1.6zM787 425.6c.1-1 .2-2 .4-3.2-.2 1.2-.3 2.3-.4 3.2zM872.3 478.6c-1.4-.7-2.8-1.4-4.3-2.1 1.5.7 2.9 1.4 4.3 2.1zM786.9 427c0-.4.1-.8.1-1.3 0 .5-.1.9-.1 1.3zM786.7 428.2c0-.3.1-.7.1-1 0 .3 0 .7-.1 1zM786.5 430.8c.1-.5.1-1.3.3-2.4-.2 1.1-.3 1.9-.3 2.4zM878.5 481.5c-1.3-.6-2.7-1.3-4.1-1.9 1.4.6 2.8 1.3 4.1 1.9zM861.6 473.4c-1.4-.7-2.9-1.4-4.3-2.1 1.4.7 2.9 1.4 4.3 2.1zM908.7 483.6l-.8.8c.2-.3.5-.5.8-.8zM787.4 422.4c.1-.5.1-1.1.2-1.6-.1.5-.2 1.1-.2 1.6zM934.4 459l-.9.9.9-.9zM906.9 485.2c-.3.2-.5.5-.8.7.3-.2.5-.4.8-.7zM882.3 483.3zM905.1 486.9c-.2.2-.5.4-.7.6.2-.2.5-.4.7-.6zM903.2 488.6c-.2.1-.3.3-.5.5.2-.2.3-.4.5-.5zM652.5 410.2c-.6.8-1.2 1.6-1.8 2.3.6-.7 1.2-1.5 1.8-2.3zM790.6 395.5c.1-.7.2-1.3.3-2-.1.6-.2 1.3-.3 2zM717.9 569.9c.7-.1 1.5-.1 2.4-.2-.9.1-1.7.1-2.4.2zM791.9 386.3c.1-.7.2-1.3.3-2-.1.7-.2 1.3-.3 2zM792.5 382.2c.1-.6.2-1.2.3-1.7-.1.5-.2 1.1-.3 1.7zM790.9 393.1c.1-.7.2-1.3.3-2-.1.6-.2 1.3-.3 2zM791.6 388.4c.1-.7.2-1.3.3-2-.1.7-.2 1.4-.3 2zM791.3 390.8c.1-.7.2-1.3.3-2-.2.6-.3 1.3-.3 2zM936.2 457.2l-.8.8c.3-.3.5-.6.8-.8zM723.4 569.4c.4 0 .7-.1 1.1-.1-.3.1-.7.1-1.1.1zM720.5 569.7c.4 0 .8-.1 1.2-.1-.5 0-.8.1-1.2.1zM793.2 378.3l.3-1.5c-.1.6-.2 1-.3 1.5zM724.9 569.3c.4 0 .9-.1 1.3-.1-.4 0-.9.1-1.3.1zM792.9 380.2c.1-.5.2-1.1.3-1.6-.2.5-.3 1.1-.3 1.6zM793.5 376.6c.1-.5.2-.9.3-1.3-.1.4-.2.9-.3 1.3zM721.8 569.6c.4 0 .9-.1 1.3-.1-.4 0-.9 0-1.3.1zM792.2 384.2c.1-.6.2-1.3.3-1.9-.1.7-.2 1.3-.3 1.9zM946.2 447.1c-.3.3-.5.6-.8.8.3-.2.5-.5.8-.8zM788.8 409.8c.1-.7.2-1.3.2-2 0 .7-.1 1.3-.2 2zM941.8 451.6zM944.1 449.2l-.5.5c.2-.1.4-.3.5-.5zM938.1 455.3l-.8.8.8-.8zM939.9 453.4l-.9.9c.4-.3.6-.6.9-.9zM788.6 412.1c.1-.6.1-1.3.2-1.9-.1.6-.2 1.2-.2 1.9zM790.3 397.9l.3-2.1c-.1.8-.2 1.5-.3 2.1zM789.7 402.8l.3-2.1-.3 2.1zM789.4 405.1c.1-.7.2-1.5.3-2.2-.1.8-.2 1.5-.3 2.2zM790 400.4l.3-2.1-.3 2.1zM948 445.3l-.8.8c.3-.2.5-.5.8-.8zM949.7 443.6l-.7.7.7-.7zM789.1 407.4l.3-2.1-.3 2.1zM731.3 542.5l-.9-2.4.9 2.4zM842.1 608c-1.1.3-2.1.5-3.1.7 1-.2 2.1-.4 3.1-.7zM837.5 609.1c-1 .2-1.9.4-2.9.7 1-.2 1.9-.5 2.9-.7zM827.5 611.3c1.3-.3 2.8-.6 4.5-1-1.7.4-3.2.8-4.5 1zM853.6 605.2l-3.3.9 3.3-.9zM850.3 606c-1.1.3-2.2.6-3.3.8 1.1-.2 2.2-.5 3.3-.8zM738.8 561.8l-1.8-4.5 1.8 4.5zM769.9 585.5c-3.6-2.3-7.2-4.7-10.7-7.2 3.5 2.5 7.1 4.9 10.7 7.2zM780.9 592c-3.7-2.1-7.4-4.2-11-6.5 3.6 2.3 7.3 4.4 11 6.5zM885.5 594.8c-.6.2-1.1.4-1.6.6.5-.2 1-.4 1.6-.6zM916.3 583.1zM913.5 584.2l-5 2zM901.2 589.1c-.9.3-1.8.7-2.7 1 .9-.3 1.8-.6 2.7-1zM916.8 583.2h-.2.2zM879.7 596.8c-.4.2-.8.3-1.2.4.4-.1.8-.2 1.2-.4zM866.4 601.5c-1.5.5-3 .9-4.6 1.4 1.6-.5 3.1-.9 4.6-1.4zM896.7 590.8c-.7.3-1.4.5-2.1.8.7-.3 1.4-.5 2.1-.8zM736.4 555.8c-.4-1-.8-2-1.2-2.9.4 1 .8 1.9 1.2 2.9zM917.4 583.3h-.2c0-.1.1 0 .2 0zM720 507.5c-.2-.6-.4-1.3-.5-1.9.1.7.3 1.3.5 1.9zM723.2 518.3c-.3-.9-.6-1.9-.8-2.8.2 1 .5 1.9.8 2.8zM722 514.4c-.2-.7-.4-1.5-.7-2.2.2.7.4 1.4.7 2.2zM719.1 504.4c-.2-.6-.3-1.2-.5-1.8.2.6.4 1.2.5 1.8zM720.9 510.8c-.2-.7-.4-1.3-.6-2 .2.7.4 1.4.6 2zM650.7 412.5c-.6.7-1.1 1.5-1.6 2.1.5-.6 1-1.4 1.6-2.1zM718.3 501.4c-.2-.6-.3-1.2-.5-1.8.2.6.4 1.2.5 1.8zM717.6 498.5c-.2-.6-.3-1.2-.4-1.7.1.6.2 1.1.4 1.7zM724.5 522.7c-.4-1.2-.8-2.5-1.1-3.7.4 1.3.7 2.5 1.1 3.7zM799.2 347.1c0-.2.1-.3.1-.5 0 .2 0 .4-.1.5zM729.8 538.3c-.3-.8-.6-1.6-.8-2.4.2.8.5 1.6.8 2.4zM732.9 546.8c-.3-.8-.6-1.7-.9-2.5.3.8.6 1.6.9 2.5zM725.7 526.5c-.3-1-.6-1.9-.9-2.9.3.9.6 1.9.9 2.9zM734.6 551.2c-.3-.9-.7-1.8-1-2.6.3.8.6 1.7 1 2.6zM728.4 534.3c-.3-.8-.5-1.6-.8-2.4.2.8.5 1.6.8 2.4zM727 530.3c-.3-.8-.6-1.7-.8-2.5.3.8.5 1.7.8 2.5zM951.6 586.3c-.4 0-.8 0-1.1-.1.3 0 .7.1 1.1.1zM957.8 586.6c-.4 0-.7 0-1.1-.1.3.1.7.1 1.1.1zM959.7 586.7h-1.1 1.1zM961.6 586.8h-1c.3-.1.7-.1 1 0zM963.4 586.8h-1 1zM716.3 493.2c-.4-1.7-.8-3.3-1.1-4.7.3 1.5.7 3.1 1.1 4.7zM965.1 586.8h-1 1zM953.7 586.4c-.4 0-.7 0-1.1-.1.3.1.7.1 1.1.1zM955.7 586.5c-.4 0-.7 0-1.1-.1.4.1.8.1 1.1.1zM981.1 586.7zM1007 586.2c-.5 0-1 0-1.6.1.6-.1 1.1-.1 1.6-.1zM1044 562.1c-3 2.7-6.2 5.3-9.3 7.8 3.1-2.5 6.2-5.1 9.3-7.8zM1021.3 579.8l-7.2 4.8 7.2-4.8zM1037 571.9zM968.7 586.8h-1.3 1.3zM966.8 586.8h-1 1zM949.5 586.1c-.4 0-.8-.1-1.2-.1.4.1.8.1 1.2.1zM971.8 586.8zM938.7 585.3c-.4 0-.8-.1-1.3-.1.5 0 .9.1 1.3.1zM924.7 584c-.3 0-.6-.1-1-.1.4.1.7.1 1 .1zM926.5 584.2c-.4 0-.8-.1-1.2-.1.4 0 .8.1 1.2.1zM930.7 584.6c-.6-.1-1.3-.1-1.9-.2.6.1 1.2.1 1.9.2zM923.1 583.9c-.3 0-.5-.1-.8-.1.3 0 .6 0 .8.1zM928.4 584.4c-.5 0-.9-.1-1.4-.1.5 0 .9 0 1.4.1zM921.7 583.7c-.2 0-.5-.1-.7-.1.2.1.4.1.7.1zM919.2 583.5h-.4c.1-.1.3-.1.4 0zM920.4 583.6c-.2 0-.4 0-.7-.1.3 0 .5.1.7.1zM934.6 585c-.5 0-.9-.1-1.4-.1.5 0 .9 0 1.4.1zM943 585.7c-.4 0-.8-.1-1.2-.1.4 0 .8 0 1.2.1zM945.2 585.8c-.4 0-.8-.1-1.2-.1.4.1.8.1 1.2.1zM940.9 585.5c-.4 0-.8-.1-1.2-.1.3 0 .7.1 1.2.1zM932.6 584.8c-.7-.1-1.3-.1-1.9-.2.6.1 1.3.1 1.9.2zM918.2 583.4h-.4c.2-.1.3-.1.4 0zM947.3 586c-.4 0-.8-.1-1.2-.1.4 0 .8.1 1.2.1zM936.6 585.1c-.4 0-.8-.1-1.2-.1.4.1.8.1 1.2.1zM716.9 495.8c-.2-.6-.3-1.2-.5-1.8.2.6.3 1.2.5 1.8zM686.1 304.3c.7-.7 1.5-1.4 2.2-2.1-.8.7-1.5 1.4-2.2 2.1zM720.4 275.1c.9-.7 1.7-1.3 2.5-2-.8.6-1.7 1.3-2.5 2zM736 263.4c.4-.3.9-.6 1.3-.9-.4.3-.8.6-1.3.9zM726 270.7c.8-.6 1.5-1.1 2.2-1.7-.7.6-1.4 1.2-2.2 1.7zM733.8 265c.5-.3 1-.7 1.4-1-.4.3-.9.7-1.4 1zM715 487.9l-.3-1.5.3 1.5zM728.9 268.6c.6-.4 1.2-.9 1.7-1.3-.5.4-1.1.8-1.7 1.3zM731.5 266.7c.5-.4 1-.8 1.5-1.1-.5.4-1 .7-1.5 1.1zM717.6 277.2c.7-.5 1.4-1.1 2-1.6-.7.6-1.3 1.1-2 1.6zM696.2 295c.6-.5 1.2-1.1 1.9-1.6-.6.5-1.2 1.1-1.9 1.6zM711.8 281.8c.6-.5 1.2-1 1.8-1.4-.6.5-1.2 1-1.8 1.4zM693 298c.6-.6 1.3-1.1 1.9-1.7-.7.5-1.3 1.1-1.9 1.7zM689.6 301c.7-.6 1.3-1.2 2-1.8-.7.6-1.3 1.2-2 1.8zM699.5 292.2c.6-.5 1.2-1.1 1.8-1.6-.6.6-1.2 1.1-1.8 1.6zM708.8 284.3l1.8-1.5-1.8 1.5zM702.6 289.5l1.8-1.5-1.8 1.5zM705.8 286.8l1.8-1.5c-.7.5-1.2 1-1.8 1.5zM723.1 273c.9-.7 1.8-1.4 2.7-2-1 .6-1.8 1.3-2.7 2zM750.2 253.9c.2-.1.4-.3.6-.4-.2.1-.4.3-.6.4zM751.8 252.8c0 .1 0 .1 0 0 0 .1 0 .1 0 0zM754.1 250.1c.1-.1.1-.2.2-.3-.1.1-.1.2-.2.3zM751.1 253.3c.1 0 .2-.1.2-.1s-.1 0-.2.1zM753.8 250.7c0-.1.1-.1.1-.2 0 0-.1.1-.1.2zM754.5 249.3c.1-.1.1-.2.2-.4 0 .2-.1.3-.2.4zM649 414.7c-.3.3-.5.7-.7 1 .2-.4.5-.7.7-1zM740.1 260.6c.4-.3.8-.5 1.1-.8-.4.3-.7.5-1.1.8zM741.9 259.3c.4-.2.7-.5 1.1-.7-.4.3-.7.5-1.1.7zM743.6 258.2c.3-.2.7-.5 1-.7-.3.2-.7.5-1 .7zM738.1 262c.4-.3.8-.6 1.2-.8-.4.2-.8.5-1.2.8zM745.2 257.1l.9-.6-.9.6zM749 254.6c.3-.2.7-.4 1-.6-.3.2-.7.4-1 .6zM747.9 255.4c.3-.2.6-.4.8-.5-.3.1-.5.3-.8.5zM746.6 256.2l.9-.6-.9.6zM714.7 279.5c.6-.5 1.2-1 1.9-1.5-.6.5-1.2 1-1.9 1.5zM711.4 472.2c-.2-.3-.4-.5-.6-.8.2.3.4.5.6.8zM706.4 466.1c-.2-.3-.4-.5-.6-.8.2.3.4.5.6.8zM701.7 459.9c-.2-.2-.3-.5-.5-.7.1.3.3.5.5.7zM708.9 469.2c-.2-.3-.5-.6-.7-.9.3.3.5.6.7.9zM704 463c-.2-.2-.4-.5-.6-.7.2.2.4.5.6.7zM695.1 450.8c-.1-.2-.2-.3-.4-.5.1.2.2.4.4.5zM699.4 456.9c-.2-.2-.3-.4-.4-.6.1.2.2.4.4.6zM681.6 308.5c1.1-1.1 2.2-2.1 3.3-3.2-1 1.1-2.2 2.1-3.3 3.2zM712.4 475c0 .2.1.4.1.7 0-.3 0-.5-.1-.7zM713.4 480.3c-.1-.3-.1-.6-.2-.9.1.3.2.6.2.9zM714.1 483.6c-.1-.4-.1-.7-.2-1.1 0 .4.1.8.2 1.1zM713.7 481.9c-.1-.3-.1-.7-.2-1 .1.3.2.6.2 1zM714.5 485.6l-.3-1.2.3 1.2zM713.1 478.9c-.1-.3-.1-.5-.1-.8 0 .2.1.5.1.8zM712.7 476.5c0-.2-.1-.5-.1-.7 0 .3.1.5.1.7zM712.9 477.6c0-.2-.1-.5-.1-.7 0 .2.1.5.1.7zM693 447.9c-.1-.2-.2-.3-.3-.5.1.2.2.3.3.5zM697.2 453.8c-.1-.2-.3-.4-.4-.6.1.3.3.5.4.6zM667.6 403.7c0-.1-.1-.1-.1-.2 0 0 0 .1.1.2zM666.9 402.3s0-.1 0 0c0-.1 0 0 0 0zM691 444.9c-.1-.1-.2-.3-.3-.4.2.2.2.3.3.4zM666.4 401l-.3-.6.3.6zM665.9 399.9c0-.1-.1-.1-.1-.2 0 .1 0 .2.1.2zM677.8 423.4zM671.5 340.3c1.3-5.2 2.7-10.4 4.3-15.5-1.7 5.2-3.1 10.3-4.3 15.5zM667.9 358.3c.5-3.5 1.2-6.9 1.9-10.3-.7 3.4-1.4 6.9-1.9 10.3zM668.3 405.2s0-.1-.1-.1c0 0 .1 0 .1.1zM687.3 439.2c-.1-.1-.1-.2-.2-.3.1.1.1.2.2.3zM689.1 442c-.1-.1-.1-.2-.2-.3.1.1.2.2.2.3zM685.5 436.4c0-.1-.1-.1-.1-.2 0 .1.1.1.1.2zM679.2 425.8zM683.8 433.7l-.1-.1c.1 0 .1 0 .1.1zM680.7 428.4s0-.1-.1-.1l.1.1zM682.2 431s0-.1-.1-.1c.1 0 .1 0 .1.1zM803.8 324.4c0-.2.1-.4.1-.7 0 .3-.1.5-.1.7zM802.2 332.1c0-.2.1-.4.1-.6 0 .2-.1.4-.1.6zM804.8 319.7c0-.2.1-.3.1-.5 0 .2 0 .3-.1.5zM787.5 433.6l48.4 26.6c3 1.7 6.9 3.7 11.3 6-4.4-2.3-8.3-4.3-11.3-6l-48.4-26.6zM891.3 487.6c1.2.5 2.2 1 3.1 1.5l2.6 1.2-2.6-1.2c-.9-.5-1.9-1-3.1-1.5zM804.6 320.9c0-.2.1-.4.1-.6 0 .2-.1.4-.1.6zM806.9 311c0-.1.1-.2.1-.3 0 .1 0 .2-.1.3zM801.9 333.5c0-.2.1-.4.1-.7 0 .2 0 .5-.1.7zM801.4 336.2c0-.2.1-.4.1-.6 0 .2-.1.4-.1.6zM805.1 318.7c0-.2.1-.4.1-.5-.1.1-.1.3-.1.5zM801.1 337.5c0-.2.1-.3.1-.5 0 .2-.1.3-.1.5zM801.7 334.8c0-.2.1-.4.1-.6-.1.2-.1.4-.1.6zM806.8 311.7c0-.1.1-.2.1-.3-.1 0-.1.2-.1.3zM803.3 326.9c0-.2.1-.4.1-.7 0 .2-.1.5-.1.7zM804.1 323.2c0-.2.1-.4.1-.6 0 .2-.1.4-.1.6zM807.1 310.5c0-.1.1-.2.1-.3 0 .1-.1.2-.1.3zM803.5 325.6c0-.2.1-.5.1-.7 0 .3 0 .5-.1.7zM807.4 309.5c0-.1.1-.1.1-.2 0 0 0 .1-.1.2zM802.7 329.5c0-.2.1-.4.1-.7 0 .2 0 .4-.1.7zM803 328.2c0-.2.1-.5.1-.7 0 .2 0 .5-.1.7zM802.5 330.7c0-.2.1-.4.1-.5 0 .2-.1.4-.1.5zM804.3 322c0-.2.1-.4.1-.6 0 .2 0 .4-.1.6zM1053.8 552.8c.9-.9 1.8-1.8 2.6-2.7-.8.9-1.7 1.8-2.6 2.7zM800 343c0-.1 0-.2.1-.3 0 .1 0 .2-.1.3zM805.5 316.6c0-.2.1-.3.1-.5 0 .2 0 .4-.1.5zM800.3 341.6c0-.2.1-.4.1-.5 0 .2-.1.4-.1.5zM800.5 340.4c.1-.3.1-.5.2-.8-.1.3-.1.5-.2.8zM806.4 313.1c0-.1.1-.3.1-.4-.1.2-.1.3-.1.4zM807.3 309.9c0-.1.1-.2.1-.2-.1.1-.1.2-.1.2zM1037 571.9c-6.6 5.3-13.4 10.2-20.5 14.7l-1.9 11.6 1.9-11.6c7.1-4.5 13.9-9.4 20.5-14.7zM799.5 345.9c0-.2.1-.4.1-.6 0 .1-.1.4-.1.6zM806.2 313.9c0-.1.1-.3.1-.4-.1.1-.1.3-.1.4zM805.7 315.7c0-.2.1-.3.1-.5 0 .2 0 .3-.1.5zM799.8 344.4c0-.1 0-.3.1-.4-.1.1-.1.3-.1.4zM806 314.8c0-.2.1-.3.1-.4-.1.1-.1.2-.1.4zM1058.5 552.1c-.9.9-1.7 1.8-2.6 2.7.9-.8 1.8-1.7 2.6-2.7zM806.6 312.4c0-.1.1-.2.1-.4-.1.1-.1.2-.1.4zM800.8 338.9c0-.2.1-.4.1-.5 0 .2 0 .4-.1.5zM805.3 317.6c0-.2.1-.3.1-.5 0 .2-.1.4-.1.5z"/><path class="st2" d="M1083.7 521.4c-3.5 5.1-7.2 10.1-11.1 14.9-4.4 5.5-9.1 10.7-14.1 15.8-.9.9-1.7 1.8-2.6 2.7-1.5 1.5-3 3-4.6 4.5-4.6 4.4-9.4 8.6-14.3 12.5-6.6 5.3-13.4 10.2-20.5 14.7l-1.9 11.6-3.3 19.9c22.5-11.5 43.6-26.7 62.4-45.5 3.8-3.8 7.5-7.7 11-11.7 13.7-15.5 25.1-32.4 34.2-50.1l-31.7 5.5c-1.2 1.8-2.4 3.6-3.5 5.2zM798 175.8c.4.2.8.3 1.2.5.1 0 .1 0 .2.1.3.1.6.2 1 .4.1 0 .2.1.3.1.3.1.6.2.9.4.1.1.3.1.4.2.2.1.4.2.6.2.1.1.3.1.4.2.2.1.4.1.6.2.2.1.5.2.7.3.1.1.3.1.4.2.2.1.4.1.5.2h.1c.2.1.4.2.6.2.4-.2.8-.4 1.3-.5 3.5-1.4 7-2.8 10.5-4 3.5-1.2 7.1-2.4 10.6-3.5 7.1-2.1 14.3-3.9 21.6-5.4 5.5-1.1 11-2 16.5-2.7 9.2-1.2 18.5-1.8 27.9-1.8h5.9l16.8-13.7c-44.2-3.5-89.2 4.7-129.8 24.6 2.9.9 6.9 2.4 10.8 3.8-.1 0-.1 0 0 0zM835.2 637.3c-.1-.2-.3-.4-.4-.7-.1-.1-.2-.3-.3-.4-.1-.2-.3-.5-.4-.7-.1-.1-.2-.3-.3-.5l-.3-.6c-.1-.2-.2-.3-.3-.5l-.3-.6c-.1-.2-.2-.3-.3-.5-.2-.3-.3-.5-.5-.8-.1-.2-.2-.3-.3-.5-.2-.3-.3-.6-.5-.9-.1-.2-.2-.4-.3-.5-.1-.2-.2-.4-.4-.6-.1-.2-.2-.3-.3-.5-.1-.2-.3-.5-.4-.7-.1-.2-.2-.4-.3-.5l-.3-.6c-.2-.4-.4-.7-.6-1.1-.1-.2-.2-.3-.3-.5-.1-.2-.2-.4-.4-.7-.1-.2-.2-.3-.3-.5l-.3-.6c-.1-.2-.2-.4-.3-.5l-.3-.6-.3-.6c-.2-.3-.3-.6-.5-1l-.3-.6-.3-.6c-.1-.1-.1-.3-.2-.4l-.3-.6c-.1-.2-.2-.3-.3-.5-.1-.2-.2-.3-.3-.5 0-.1-.1-.2-.1-.3-.2-.3-.4-.7-.5-1-.1-.1-.1-.3-.2-.4-.1-.1-.1-.3-.2-.4-.1-.1-.1-.3-.2-.4 0-.1-.1-.1-.1-.2-.1-.2-.2-.3-.2-.5-.1-.1-.1-.2-.1-.3 0 0 0-.1-.1-.1-.2-.4-.4-.8-.6-1.1v-.1c0-.1-.1-.2-.1-.2-.1-.1-.1-.2-.1-.2h-.1c-2.8-.9-5.6-1.8-8.4-2.8-2.8-1-5.6-2-8.3-3.1-7.5-3-14.7-6.4-21.8-10.1-8.5-4.5-16.6-9.5-24.4-15-2-1.4-4.1-2.9-6.1-4.4l-5.4-4.2c-1.2-1-2.5-2-3.7-3.1s-2.4-2.1-3.7-3.1l-.4.4c-.2.1-.5.1-.8.2-.1 0-.1 0-.2.1-.3.1-.5.1-.8.2h-.1c-.3.1-.7.1-1 .2h-.3c-.3.1-.6.1-1 .2h-.2c-.4.1-.8.1-1.2.2h-.4c-.3 0-.7.1-1 .1h-.3c-.4.1-.9.1-1.3.2h-.4c-.4 0-.7.1-1.1.1h-.3c-.5 0-.9.1-1.4.1h-.4c-.4 0-.7.1-1.1.1h-.4c-.5 0-.9.1-1.3.1h-.3c-.4 0-.7.1-1.1.1h-.3c-.4 0-.9.1-1.3.1h-.2c-.4 0-.8.1-1.2.1h-.2c-.9.1-1.7.1-2.4.2l2.7 2.7c32.9 32.9 72.9 54.7 115.1 65.4-.1-.1-.1-.2-.2-.3.3.1.2 0 .1-.1zM1073.6 219.5c-1.1-1.1-2.3-2.2-3.4-3.4l-2.1 23.2c2.1 2.4 4.2 4.9 6.2 7.3l4.2 5.4c1.5 2 3 4 4.4 6 1.8 2.6 3.6 5.2 5.3 7.9 2.6 4 5 8.1 7.3 12.2l4.5 8.4c2.9 5.7 5.5 11.5 7.9 17.5 1.7 4.4 3.4 8.8 4.8 13.2.5 1.5 1 3 1.4 4.4l9.3 5.2 15.9 8.9c-10.5-42.6-32.4-82.9-65.7-116.2z"/><path class="st2" d="M934.3 287.7c0 .1.1.2.1.2.7 1.2 1.7 3 3 5.4.3.5.6 1.1.9 1.6.1.1.2.3.2.4v.1c.2.3.3.6.5.9 0 0 0 .1.1.1.2.4.4.8.7 1.2.5.9 1 1.8 1.5 2.8.1.2.2.3.3.5.4.7.7 1.3 1.1 2 .1.2.2.3.3.5.1.3.3.5.4.8 0 .1.1.2.1.2.2.3.4.7.5 1l.3.6c.1.2.2.3.3.5l.3.6c.2.3.3.5.5.8l.3.6c.1.2.2.3.3.5.1.3.3.5.4.8.1.2.2.4.4.7l.3.6c.1.2.2.4.4.7.1.2.3.5.4.7.1.2.2.4.4.7.1.2.2.3.3.5.2.3.3.6.5.9.1.1.2.3.2.4.2.3.3.6.5.8.1.2.2.4.3.5.1.2.3.5.4.7.1.2.2.4.4.7l.3.6c.1.2.2.4.4.7.1.2.3.5.4.7.1.2.2.3.3.5.2.3.3.6.5 1 .1.1.1.2.2.3.1.3.3.5.4.8l.3.6c.1.2.3.5.4.7.1.2.2.3.3.5.2.3.3.6.5.9.1.1.1.3.2.4.7 1.3 1.4 2.5 2 3.7 0 .1.1.2.1.2.2.3.3.6.5.9.1.1.2.3.2.4.1.2.3.5.4.7.1.2.2.3.3.5l.3.6c.1.2.2.3.3.5l.3.6c.1.2.2.3.3.5.1.2.2.4.3.5.1.2.2.3.3.5l.3.6c.1.1.1.3.2.4l.3.6c.1.1.1.2.2.3l.3.6c.1.1.1.2.2.3.1.2.2.4.3.5.1.1.1.2.2.4s.2.3.3.5c.1.1.1.2.2.4.1.1.2.3.2.4.1.1.1.2.2.3.1.1.1.3.2.4.1.1.1.2.2.3.1.1.1.3.2.4.1.1.1.2.2.3.1.1.1.2.2.3 0 .1.1.2.1.3.1.1.1.2.2.3 0 .1.1.2.1.3 0 .1.1.2.1.3 0 .1.1.2.1.2 0 .1.1.2.1.3 0 .1.1.1.1.2s.1.2.1.2c0 .1 0 .1.1.2 0 .1.1.1.1.2 0 0 0 .1.1.1 0 .1 0 .1.1.2v.1c0 .1 0 .1.1.2 0 0 .1.1.1.2s.1.1.1.2c0 0 0 .1.1.1l.3.6c.4.8 1.1 2.1 1.9 3.7.1.2.2.5.4.7.1.3.3.5.4.8.1.3.3.6.4.9.7 1.4 1.5 2.9 2.3 4.6.2.4.4.8.6 1.3 0 0 0 .1.1.1.7 1.4 1.4 2.8 2.1 4.3.1.2.2.3.2.5l.6 1.2c.3.6.6 1.1.8 1.7 0 0 0 .1.1.1.3.7.7 1.4 1.1 2.1 0 .1.1.2.1.3.1.1.1.2.2.3.2.5.4.9.7 1.4.3.6.6 1.1.8 1.7v.1c.1.3.3.6.4.9 0 .1.1.2.1.3.2.3.3.7.5 1 0 .1.1.2.1.2.3.7.7 1.4 1 2.1 0 .1.1.2.1.3.5 1.1 1.1 2.2 1.6 3.2 0 .1.1.2.1.2.1.2.2.5.4.7.1.1.1.3.2.4.1.3.3.6.4.8 0 .1.1.1.1.2.1.3.3.5.4.8.1.1.1.3.2.4.1.3.3.6.4.9v.1c.2.3.3.7.5 1v.1c.1.3.3.6.4.9 0 .1.1.1.1.2.1.2.2.4.3.7.1.1.1.2.2.4l.3.6c0 .1.1.2.1.3.1.2.2.5.3.7 0 .1.1.1.1.2.1.3.3.5.4.8v.1c.3.5.5 1 .7 1.5 0 .1.1.1.1.2l.3.6c0 .1.1.1.1.2.1.2.2.4.3.5 0 .1.1.1.1.2.1.1.1.3.2.4 0 .1.1.2.1.3.1.1.1.3.2.4 0 .1.1.1.1.2.1.1.1.3.2.4 0 .1.1.1.1.2.1.1.1.2.2.4 0 .1.1.1.1.2s.1.2.1.3c0 .1.1.1.1.2s.1.2.1.3c0 0 0 .1.1.1 0 .1.1.2.1.3 0 0 0 .1.1.1 0 .1.1.1.1.2v.1c0 .1.1.1.1.2v.1l93 15.7v-.1c.1-.2.1-.3.2-.5s.2-.5.3-.8v-.1c0-.1.1-.2.1-.3 0-.1.1-.2.1-.3 0-.1.1-.1.1-.2.1-.1.1-.3.2-.4 0-.1.1-.2.1-.3.1-.1.1-.3.2-.4 0-.1.1-.2.1-.2.1-.2.1-.3.2-.5 0-.1.1-.2.1-.3.1-.2.1-.3.2-.5 0-.1.1-.2.1-.3.1-.2.1-.4.2-.5 0-.1.1-.2.1-.3.1-.2.2-.4.2-.6 0-.1.1-.2.1-.3.1-.2.1-.4.2-.6.1-.1.1-.3.2-.4.1-.2.2-.4.2-.6 0-.1.1-.2.1-.4.1-.2.2-.5.3-.7 0-.1.1-.2.1-.3.1-.3.2-.5.3-.8 0-.1.1-.2.1-.3.1-.4.3-.7.4-1.1 0 0 0-.1.1-.1.1-.3.3-.7.4-1 0-.1.1-.1.1-.2.1-.3.3-.7.4-1 0-.1.1-.2.1-.3.1-.3.2-.6.4-.9.1-.1.1-.3.2-.4l.3-.9c.1-.2.1-.3.2-.5l.3-.9c.1-.2.1-.3.2-.5l.3-.9c.1-.2.1-.3.2-.5l.3-.9c.1-.2.1-.4.2-.6l.3-.9c.1-.2.1-.4.2-.6l.3-.9c.1-.2.2-.4.2-.6l.3-.9c.1-.2.2-.4.2-.6l.3-.9c.1-.2.1-.4.2-.6.1-.4.3-.7.4-1.1.1-.2.1-.3.2-.5.1-.4.3-.8.4-1.2 0-.1.1-.2.1-.4l1.2-3.3c0-.1 0-.1.1-.2.2-.5.3-1 .5-1.5 0-.1.1-.3.1-.4.1-.4.3-.8.4-1.3.1-.2.1-.3.2-.5.1-.4.3-.8.4-1.2.1-.2.1-.4.2-.6.1-.4.2-.7.4-1.1.1-.2.2-.5.2-.7.1-.4.2-.7.4-1.1.1-.2.2-.5.2-.7.1-.4.2-.7.3-1.1.1-.2.2-.5.2-.7.1-.3.2-.7.3-1 .1-.2.2-.5.2-.7.1-.4.2-.7.3-1.1.1-.2.2-.5.2-.7.1-.4.2-.7.3-1.1.1-.2.2-.5.2-.7.1-.4.2-.7.3-1.1.1-.2.2-.5.2-.7.1-.4.2-.7.3-1.1.1-.2.1-.4.2-.7.1-.4.3-.8.4-1.2.1-.2.1-.4.2-.6.1-.5.3-.9.4-1.4 0-.1.1-.3.1-.4.2-.6.3-1.1.5-1.7v-.1c.2-.6.4-1.2.5-1.8 0-.1.1-.2.1-.4.1-.5.3-1 .4-1.5.1-.2.1-.4.2-.6l.3-1.2c.1-.2.1-.5.2-.7.1-.4.2-.7.3-1.1.1-.2.1-.5.2-.7.1-.4.2-.7.3-1.1.1-.2.1-.5.2-.7.1-.4.2-.7.3-1.1.1-.2.1-.5.2-.7.1-.4.2-.7.3-1.1.1-.3.1-.5.2-.8.1-.3.2-.7.3-1 .1-.3.1-.5.2-.8.1-.3.2-.7.2-1 .1-.3.1-.5.2-.8.1-.3.2-.7.2-1 .1-.3.1-.5.2-.8.1-.3.2-.7.2-1 .1-.3.1-.5.2-.7.1-.4.2-.7.2-1.1.1-.2.1-.5.2-.7.1-.4.2-.7.2-1.1 0-.2.1-.4.1-.6.1-.4.2-.8.2-1.3 0-.2.1-.3.1-.5.1-.6.2-1.2.3-1.7-2.3-8-5.1-15.8-8.3-23.5-1.6-3.9-3.3-7.7-5.1-11.4-3.6-7.5-7.7-14.9-12.2-22.1-4.5-7.2-9.5-14.2-14.9-20.9-2.7-3.4-5.5-6.7-8.4-9.9-.4-.2-.8-.3-1.2-.5-.4-.2-.9-.3-1.3-.5-.2-.1-.4-.2-.6-.2l-.9-.3c-.4-.1-.8-.3-1.2-.5-.2-.1-.3-.1-.5-.2-.4-.2-.9-.3-1.3-.5-.1-.1-.3-.1-.4-.2-.5-.2-1-.4-1.4-.5-.1-.1-.3-.1-.4-.2-.5-.2-1-.4-1.6-.6-.1-.1-.3-.1-.4-.2-.6-.2-1.1-.4-1.7-.6-.1 0-.3-.1-.4-.1-.6-.2-1.3-.5-1.9-.7-.1 0-.2-.1-.3-.1-.7-.2-1.3-.5-2-.7-.1 0-.2-.1-.3-.1-.7-.2-1.3-.5-2-.7-.1 0-.3-.1-.4-.1-.7-.3-1.4-.5-2.2-.8-.1 0-.2-.1-.3-.1-.7-.3-1.5-.5-2.2-.8-.1 0-.3-.1-.4-.1-.7-.3-1.5-.5-2.3-.8-.2-.1-.3-.1-.4-.2-.8-.3-1.6-.5-2.4-.8-.1 0-.3-.1-.4-.1-.8-.3-1.6-.5-2.4-.8-.2-.1-.3-.1-.5-.2-.8-.3-1.6-.5-2.5-.8-.2-.1-.3-.1-.5-.2-.8-.3-1.6-.5-2.5-.8-.2-.1-.4-.1-.6-.2-.8-.3-1.7-.5-2.5-.8-.2-.1-.4-.1-.6-.2-.8-.3-1.7-.5-2.5-.8-.2-.1-.5-.1-.7-.2-.8-.3-1.7-.5-2.5-.8-.2-.1-.5-.1-.7-.2-.8-.2-1.7-.5-2.6-.7-.2-.1-.5-.1-.7-.2-.8-.2-1.7-.5-2.6-.7-.3-.1-.5-.1-.8-.2-.9-.2-1.7-.5-2.6-.7-.3-.1-.5-.2-.8-.2-.8-.2-1.7-.5-2.6-.7-.3-.1-.6-.2-.9-.2-.8-.2-1.7-.4-2.5-.7-.3-.1-.6-.2-1-.2-.8-.2-1.7-.4-2.5-.6-.3-.1-.7-.2-1-.2-.8-.2-1.7-.4-2.5-.6-.4-.1-.7-.2-1.1-.3-.8-.2-1.7-.4-2.5-.6-.4-.1-.7-.2-1.1-.3-.8-.2-1.6-.4-2.5-.5l-1.2-.3c-.8-.2-1.6-.3-2.4-.5l-1.2-.3c-.8-.2-1.6-.3-2.4-.5-.3-.1-.6-.1-1-.2l-41.6 75c.9-.3 1.1 0 1.3.5zM1014.1 584.6c2.4-1.5 4.8-3.1 7.2-4.8 2.4-1.6 4.8-3.3 7.1-5.1 2.1-1.6 4.2-3.2 6.2-4.8 3.2-2.5 6.3-5.1 9.3-7.8 3.4-3 6.6-6.1 9.9-9.3.9-.9 1.8-1.8 2.6-2.7 5.2-5.4 10.2-11 14.8-16.7 4-5 7.8-10.2 11.3-15.5 1.2-1.8 2.3-3.5 3.5-5.3v-.1c0-.4 0-.7.1-1.1v-.2c0-.4 0-.9.1-1.4v-.2c0-.5 0-1 .1-1.6v-.1c.1-1.2.1-2.6.2-4v-.1c.1-1.5.1-3.1.2-4.8.7-21.4 1-58.3-2.9-82.5L991 400.6c-.2.2-.6.6-1 1.1 0 0-.1.1-.1.2l-.3.3s-.1.1-.1.2l-.4.4-.1.1-.5.5-.1.1c-.2.2-.3.4-.5.6l-.2.2c-.2.2-.4.4-.6.7l-.1.1-.7.7-.1.1c-.2.2-.4.4-.6.7l-.3.3c-.2.2-.4.5-.7.7l-.2.2-.7.7-.3.3c-.2.3-.5.5-.7.8l-.3.3c-.2.2-.4.5-.7.7l-.5.5-.6.6-.5.5-.7.7-.5.5-1 1-.2.2c-1.2 1.3-2.5 2.7-3.9 4.1l-.5.5-.9.9-.5.5c-.3.3-.6.7-.9 1l-.5.5c-.3.3-.6.6-.9 1l-.6.6-.9.9c-.2.2-.4.4-.5.6-.3.3-.6.7-1 1l-.6.6c-.3.3-.6.6-.9 1-.2.2-.4.5-.7.7l-.9.9-.7.7-.9.9-.8.8-.9.9-.8.8-.9.9-.8.8-.9.9-.8.8c-.3.3-.6.6-.9 1l-.8.8-1 1-.8.8-1 1-.8.8-.9.9-.1.1-.7.7-1 1-.8.8-1 1c-.3.3-.5.6-.8.8l-1.3 1.3-.5.5-1.8 1.8-1.8 1.8-.9.9-1 1-.8.8-1.1 1.1-.8.8-1 1-.9.9-1 1c-.3.3-.6.5-.8.8l-1 1c-.3.3-.6.6-.9.8-.3.3-.7.6-1 1l-.9.9c-.3.3-.7.6-1 1l-.9.9c-.3.3-.6.6-1 .9l-.9.9c-.3.3-.7.6-1 .9-.3.3-.6.6-.9.8-.3.3-.6.6-1 .9l-.9.9-.9.9-.9.9-.9.9-.9.9-.9.9c-.3.3-.6.6-.9.8l-.9.9c-.3.3-.6.5-.9.8l-.9.9c-.3.3-.6.5-.9.8l-.9.9c-.3.3-.6.5-.8.8l-.9.9-.8.8c-.3.3-.6.6-1 .9-.3.2-.5.5-.8.7-.3.3-.7.6-1 .9-.2.2-.5.4-.7.6-.4.4-.8.7-1.2 1.1-.2.1-.3.3-.5.5-.6.5-1.1 1-1.7 1.5l15.2 92.6h1c.1 0 .3 0 .5.1h.4c.2 0 .4 0 .6.1h.4c.2 0 .4 0 .6.1.2 0 .4 0 .7.1.2 0 .3 0 .5.1.2 0 .5 0 .7.1.2 0 .4 0 .7.1.3 0 .5.1.8.1.2 0 .4 0 .6.1.3 0 .6.1 1 .1.2 0 .4 0 .6.1.4 0 .8.1 1.2.1h.5c.5 0 .9.1 1.4.1h.4c.6.1 1.2.1 1.9.2.6.1 1.3.1 1.9.2.2 0 .4 0 .6.1.5 0 .9.1 1.4.1.3 0 .6 0 .8.1.4 0 .8.1 1.2.1.3 0 .6 0 .8.1.4 0 .8.1 1.3.1.3 0 .6 0 .9.1.4 0 .8.1 1.2.1.3 0 .6.1.9.1.4 0 .8.1 1.2.1.3 0 .6 0 1 .1.4 0 .8.1 1.2.1.3 0 .6 0 1 .1.4 0 .8.1 1.2.1.3 0 .7 0 1 .1.4 0 .8.1 1.2.1.3 0 .6 0 1 .1.4 0 .8 0 1.1.1.3 0 .7 0 1 .1.4 0 .7 0 1.1.1.3 0 .7 0 1 .1.4 0 .7 0 1.1.1h.9c.4 0 .7 0 1.1.1H972c2.2 0 5.5 0 9.3-.1 3.2 0 6.8-.1 10.5-.1 4.8-.1 9.7-.2 13.8-.4.5 0 1.1 0 1.6-.1.5 0 1 0 1.4-.1 1.4-.1 2.6-.2 3.7-.2.5-.7 1.1-1.1 1.8-1.5zM786.7 428.4v-.2c0-.3.1-.7.1-1v-.2c0-.4.1-.8.1-1.3v-.1c.1-1 .2-2 .4-3.2v-.1c.1-.5.1-1.1.2-1.6v-.4c.1-.5.1-1 .2-1.6v-.3c.1-.6.1-1.2.2-1.7v-.3c.1-.6.1-1.2.2-1.8v-.4c.1-.6.1-1.2.2-1.8 0-.1 0-.3.1-.4.1-.6.1-1.3.2-1.9v-.4c.1-.7.2-1.3.2-2v-.4l.3-2.1v-.2c.1-.7.2-1.5.3-2.2v-.1l.3-2.1v-.3l.3-2.1v-.3l.3-2.1c0-.1 0-.3.1-.4.1-.7.2-1.3.3-2 0-.1 0-.3.1-.4.1-.7.2-1.3.3-2v-.3c.1-.7.2-1.3.3-2v-.3c.1-.7.2-1.3.3-2v-.2c.1-.7.2-1.3.3-2v-.1c.1-.6.2-1.3.3-1.9v-.1c.1-.6.2-1.2.3-1.7v-.3c.1-.5.2-1.1.3-1.6v-.3l.3-1.5v-.2c.1-.5.2-.9.3-1.3v-.2l.3-1.2v-.2c.1-.4.2-.8.3-1.1v-.1c.1-.4.2-.7.3-1 0 0 .6-3.5 1.6-8.8v-.1c.4-1.9.8-4.1 1.2-6.5 0-.2.1-.3.1-.5 0-.3.1-.5.1-.8 0-.1 0-.2.1-.3.1-.7.3-1.5.4-2.2 0-.1.1-.3.1-.4.1-.3.1-.6.2-.8 0-.2.1-.4.1-.5 0-.3.1-.5.1-.8 0-.2.1-.4.1-.6 0-.2.1-.5.1-.7 0-.2.1-.4.1-.6.1-.3.1-.6.2-.8 0-.2.1-.3.1-.5 0-.3.1-.5.1-.8 0-.2.1-.4.1-.6.1-.3.1-.6.2-.8 0-.1 0-.3.1-.4.1-.3.1-.7.2-1 0-.1 0-.2.1-.3.1-.3.1-.7.2-1 0-.2.1-.4.1-.5 0-.2.1-.5.1-.7.1-.3.1-.5.2-.8 0-.2.1-.4.1-.7 0-.2.1-.4.1-.5.1-.3.1-.6.2-.9 0-.2.1-.3.1-.5.1-.3.1-.6.2-.8 0-.2.1-.4.1-.6 0-.2.1-.5.1-.7 0-.2.1-.4.1-.6 0-.2.1-.5.1-.7 0-.2.1-.4.1-.7 0-.2.1-.5.1-.7 0-.2.1-.4.1-.6.1-.3.1-.5.2-.8 0-.2.1-.4.1-.5.1-.3.1-.5.2-.8 0-.2.1-.4.1-.7 0-.2.1-.4.1-.6 0-.2.1-.5.1-.7 0-.2.1-.4.1-.6 0-.2.1-.4.1-.7 0-.2.1-.4.1-.6 0-.2.1-.5.1-.7 0-.2.1-.4.1-.5 0-.2.1-.4.1-.7 0-.2.1-.4.1-.6 0-.2.1-.4.1-.6 0-.2.1-.4.1-.6 0-.2.1-.4.1-.6 0-.2.1-.4.1-.5 0-.2.1-.4.1-.6 0-.2.1-.4.1-.6 0-.2.1-.3.1-.5s.1-.4.1-.5c0-.2.1-.4.1-.5 0-.2.1-.3.1-.5s.1-.3.1-.5.1-.3.1-.5.1-.3.1-.5.1-.3.1-.4c0-.2.1-.3.1-.5 0-.1.1-.3.1-.4 0-.2.1-.3.1-.4 0-.1.1-.3.1-.4 0-.1.1-.3.1-.4 0-.1.1-.3.1-.4 0-.1.1-.3.1-.4 0-.1.1-.2.1-.4 0-.1.1-.2.1-.4 0-.1.1-.2.1-.3 0-.1.1-.2.1-.3 0-.1.1-.2.1-.3 0-.1.1-.2.1-.3 0-.1.1-.2.1-.3 0-.1.1-.2.1-.3 0-.1.1-.2.1-.2 0-.1.1-.2.1-.2 0-.1 0-.1.1-.2 0-.1.1-.1.1-.2v-.1L750.9 253s-.1 0-.1.1c-.1.1-.2.1-.3.2-.1 0-.2.1-.2.1-.1.1-.3.2-.4.3-.2.1-.4.2-.6.4-.1 0-.1.1-.2.1-.3.2-.6.4-1 .6-.1.1-.2.1-.3.2-.3.2-.5.4-.8.5-.1.1-.3.2-.4.3l-.9.6c-.2.1-.3.2-.5.3l-.9.6c-.2.1-.4.2-.6.4-.3.2-.7.4-1 .7-.2.1-.4.3-.6.4-.3.2-.7.5-1.1.7-.2.2-.5.3-.7.5-.4.3-.7.5-1.1.8-.2.2-.5.3-.8.5-.4.3-.8.6-1.2.8-.3.2-.5.4-.8.5-.4.3-.9.6-1.3.9-.3.2-.5.4-.8.6-.5.3-.9.7-1.4 1-.3.2-.5.4-.8.6-.5.4-1 .7-1.5 1.1-.3.2-.5.4-.8.6-.6.4-1.2.8-1.7 1.3-.2.2-.5.3-.7.5-.7.5-1.5 1.1-2.2 1.7-.1.1-.2.1-.3.2-.9.7-1.8 1.3-2.7 2l-.1.1c-.8.6-1.7 1.3-2.5 2-.2.2-.5.4-.8.6-.7.5-1.3 1-2 1.6-.3.3-.7.5-1 .8-.6.5-1.2 1-1.9 1.5-.4.3-.8.6-1.1.9-.6.5-1.2 1-1.8 1.4-.4.3-.8.7-1.2 1l-1.8 1.5c-.4.4-.9.7-1.3 1.1l-1.8 1.5c-.4.4-.9.7-1.3 1.1l-1.8 1.5c-.5.4-.9.8-1.4 1.2-.6.5-1.2 1-1.8 1.6-.5.4-.9.8-1.4 1.2-.6.5-1.2 1.1-1.9 1.6-.5.4-.9.8-1.4 1.2-.6.6-1.3 1.1-1.9 1.7-.5.4-.9.8-1.4 1.2-.7.6-1.3 1.2-2 1.8-.4.4-.9.8-1.3 1.2-.7.7-1.5 1.4-2.2 2.1-.4.3-.7.7-1.1 1-1.1 1.1-2.2 2.1-3.3 3.2-2.2 5.4-4.1 10.8-5.8 16.3-1.6 5.1-3.1 10.3-4.3 15.5-.6 2.5-1.2 5.1-1.7 7.6-.7 3.4-1.3 6.9-1.9 10.3-2.1 13.2-3 26.5-2.8 39.8.2.5.4 1 .7 1.6 0 .1.1.1.1.2.1.2.2.3.2.5l.3.6c.2.4.3.7.5 1.1v.1l.6 1.2c0 .1.1.1.1.2.2.4.4.9.6 1.4 0 0 0 .1.1.1 2.2 4.7 5.4 10.9 9.5 18.2.4.8.9 1.6 1.4 2.4v.1c.5.8.9 1.6 1.4 2.4 0 0 0 .1.1.1.5.8 1 1.7 1.5 2.5 0 0 0 .1.1.1.5.8 1 1.7 1.5 2.5l.1.1c.5.8 1 1.7 1.6 2.5 0 .1.1.1.1.2.5.8 1.1 1.7 1.6 2.5.1.1.1.2.2.3.5.8 1.1 1.7 1.6 2.6.1.1.1.2.2.3.5.8 1.1 1.7 1.7 2.5.1.1.2.3.3.4.5.8 1.1 1.6 1.7 2.5.1.2.2.3.3.5.6.8 1.1 1.6 1.7 2.5.1.2.2.3.4.5.6.8 1.1 1.6 1.7 2.4.1.2.3.4.4.6.6.8 1.2 1.6 1.7 2.4.2.2.3.4.4.6l1.8 2.4c.2.2.3.5.5.7.6.8 1.2 1.6 1.8 2.3.2.2.4.5.6.7.6.8 1.2 1.5 1.8 2.3.2.3.4.5.6.8.6.7 1.2 1.5 1.8 2.2.2.3.5.6.7.9.6.7 1.2 1.5 1.8 2.2.2.3.4.5.6.8l75.1-41.4c.8-.5.9-1.3 1-2.4zM897.1 490.3l-2.6-1.2c-.9-.4-2-.9-3.1-1.5-2.5-1.2-5.6-2.6-9-4.2-1.2-.6-2.5-1.2-3.9-1.8s-2.7-1.3-4.1-1.9c-.7-.3-1.4-.7-2.1-1-1.4-.7-2.8-1.4-4.3-2.1-2.1-1-4.3-2.1-6.5-3.1-1.4-.7-2.9-1.4-4.3-2.1l-4.2-2.1c-1.4-.7-2.7-1.4-4-2-.7-.3-1.3-.7-1.9-1-4.4-2.3-8.3-4.3-11.3-6l-48.4-26.6-75 41.3c0 .2.1.4.1.7v.2c0 .2.1.4.1.7 0 .1 0 .2.1.4 0 .2.1.4.1.7 0 .2.1.3.1.5s.1.5.1.8c0 .2.1.4.1.6.1.3.1.6.2.9 0 .2.1.4.1.6.1.3.1.6.2 1 0 .2.1.5.1.7.1.3.1.7.2 1.1.1.3.1.5.2.8l.3 1.2c.1.2.1.5.2.7l.3 1.5c0 .2.1.4.1.7.3 1.5.7 3.1 1.1 4.7.1.2.1.5.2.7.1.6.3 1.2.5 1.8.1.3.2.7.2 1 .1.6.3 1.1.4 1.7.1.4.2.7.3 1.1.1.6.3 1.2.5 1.8l.3 1.2c.2.6.3 1.2.5 1.8.1.4.2.8.3 1.3.2.6.3 1.2.5 1.9.1.4.2.9.4 1.3.2.7.4 1.3.6 2 .1.4.2.9.4 1.3.2.7.4 1.5.7 2.2.1.4.2.8.4 1.2.3.9.6 1.8.8 2.8.1.2.1.5.2.7.4 1.2.8 2.4 1.1 3.7.1.3.2.6.3.8.3 1 .6 1.9.9 2.9.1.5.3.9.5 1.4.3.8.5 1.6.8 2.5.2.5.4 1 .5 1.6.3.8.5 1.6.8 2.4.2.6.4 1.1.6 1.7.3.8.6 1.6.8 2.4.2.6.4 1.2.6 1.7l.9 2.4c.2.6.4 1.2.7 1.8.3.8.6 1.7.9 2.5.2.6.4 1.2.7 1.8.3.9.7 1.8 1 2.6.2.6.4 1.1.7 1.7.4 1 .8 2 1.2 2.9l.6 1.5 1.8 4.5c6.5 5.9 13.3 11.4 20.4 16.4 3.5 2.5 7.1 4.9 10.7 7.2s7.3 4.5 11 6.5c9.3 5.2 18.9 9.6 28.7 13.4 5.9 2.2 11.9 4.2 17.9 6 1.3-.3 2.8-.6 4.5-1 .8-.2 1.7-.4 2.6-.6.9-.2 1.9-.4 2.9-.7l1.5-.3c1-.2 2-.5 3.1-.7l4.8-1.2c1.1-.3 2.2-.5 3.3-.8l3.3-.9c2.8-.7 5.5-1.5 8.2-2.3 1.6-.5 3.1-.9 4.6-1.4 1-.3 2-.6 2.9-.9 1.9-.6 3.6-1.3 5.1-1.9l1.5-.5c.7-.2 1.5-.5 2.5-.9.4-.1.8-.3 1.2-.4 1.2-.4 2.6-.9 4.1-1.4.5-.2 1.1-.4 1.6-.6 1-.4 2-.7 3.1-1.1.5-.2.9-.3 1.4-.5.9-.3 1.9-.7 2.8-1 .6-.2 1.2-.4 1.8-.7.7-.3 1.4-.5 2.1-.8.6-.2 1.2-.4 1.8-.7.9-.3 1.8-.7 2.7-1 .4-.2.9-.3 1.3-.5.9-.3 1.7-.7 2.5-1 1.2-.5 2.4-.9 3.4-1.4l5-2.1-15.4-93.4-.5-.6zM812.6 306.2c.1 0 .2 0 .2-.1h.1c.2-.1.4-.1.7-.2h.2c.2 0 .4-.1.6-.1.1 0 .2 0 .3-.1.2 0 .4-.1.6-.1.1 0 .2 0 .3-.1.2-.1.5-.1.7-.2.1 0 .2 0 .3-.1.2-.1.5-.1.7-.2.1 0 .2-.1.3-.1.2-.1.4-.1.7-.2.1 0 .3-.1.5-.1.2-.1.4-.1.7-.2.2 0 .3-.1.5-.1.3-.1.5-.1.8-.2.1 0 .2-.1.3-.1.3-.1.6-.1.9-.2.2 0 .3-.1.5-.1.2-.1.5-.1.7-.2.2 0 .4-.1.7-.1.3-.1.5-.1.8-.2.2 0 .4-.1.6-.1.3-.1.7-.2 1-.2.1 0 .3-.1.4-.1 1-.2 2-.4 3.1-.7.1 0 .3-.1.4-.1l1.2-.3c.2-.1.5-.1.7-.2.3-.1.6-.1.9-.2.3-.1.6-.1.8-.2.3-.1.6-.1.8-.2.3-.1.6-.1.9-.2.3-.1.5-.1.8-.2.3-.1.7-.1 1-.2.3-.1.5-.1.8-.2.3-.1.7-.1 1.1-.2.3-.1.5-.1.8-.2.3-.1.7-.1 1-.2.3-.1.6-.1.9-.2.3-.1.7-.1 1-.2.3-.1.6-.1.9-.2.4-.1.7-.1 1.1-.2.3-.1.6-.1.9-.2.4-.1.7-.1 1.1-.2.3-.1.6-.1.9-.2.4-.1.8-.2 1.2-.2.3-.1.6-.1.9-.2.4-.1.8-.2 1.2-.2.3-.1.6-.1.9-.2.4-.1.9-.2 1.3-.3.3-.1.5-.1.8-.2.5-.1.9-.2 1.4-.3.2 0 .5-.1.8-.1l1.5-.3c.2 0 .5-.1.7-.1.5-.1 1.1-.2 1.6-.3.2 0 .4-.1.7-.1.6-.1 1.1-.2 1.7-.3.2 0 .3-.1.5-.1 2.8-.5 5.7-1 8.6-1.6.2 0 .4-.1.6-.1.6-.1 1.1-.2 1.7-.3.3 0 .6-.1.8-.1.5-.1 1.1-.2 1.6-.3.3-.1.6-.1 1-.2.5-.1 1.1-.2 1.6-.3.3-.1.6-.1 1-.2.6-.1 1.1-.2 1.7-.3.3-.1.7-.1 1-.2.6-.1 1.1-.2 1.7-.3.3-.1.7-.1 1-.2.6-.1 1.2-.2 1.7-.3.3-.1.7-.1 1-.2.6-.1 1.1-.2 1.7-.3.4-.1.7-.1 1.1-.2.6-.1 1.1-.2 1.7-.3.4-.1.7-.1 1.1-.2.6-.1 1.1-.2 1.7-.3.4-.1.7-.1 1.1-.2l1.8-.3c.4-.1.7-.1 1.1-.2l1.8-.3c.4-.1.7-.1 1.1-.2l1.8-.3c.4-.1.7-.1 1.1-.2.6-.1 1.2-.2 1.9-.3.3 0 .7-.1 1-.1.7-.1 1.3-.2 2-.3.3 0 .6-.1.9-.1l2.1-.3c.2 0 .4-.1.6-.1 3.6-.5 7.3-1 11-1.5.2 0 .3 0 .5-.1l2.1-.3c.3 0 .7-.1 1-.1.7-.1 1.3-.2 2-.2.3 0 .6-.1 1-.1l41.4-74.6c-.1-.1-.2-.1-.2-.2-.1-.1-.2-.2-.3-.2-.1-.1-.2-.2-.3-.2-.1-.1-.2-.2-.4-.3l-.3-.3-.4-.4-.3-.3c-.2-.2-.4-.3-.6-.5l-.3-.3c-.3-.3-.6-.5-1-.8h-.1c-.4-.3-.8-.6-1.2-1l-.3-.3c-.3-.3-.6-.5-1-.8-.2-.1-.3-.2-.5-.4-.3-.2-.6-.5-1-.8-.2-.1-.4-.3-.5-.4-.3-.3-.7-.5-1-.8-.2-.1-.4-.3-.6-.5-.4-.3-.8-.6-1.1-.8-.2-.2-.4-.3-.6-.5-.4-.3-.9-.6-1.3-.9-.2-.1-.4-.3-.6-.4-.5-.4-1.1-.8-1.6-1.2-.1-.1-.3-.2-.4-.3-.7-.5-1.5-1-2.2-1.6 0 0-.1 0-.1-.1-.7-.5-1.5-1-2.3-1.5-.2-.2-.5-.3-.7-.5l-1.8-1.2-.9-.6c-.6-.4-1.2-.8-1.8-1.1-.3-.2-.7-.4-1-.7-.6-.4-1.2-.8-1.8-1.1-.4-.2-.7-.5-1.1-.7-.6-.4-1.3-.8-1.9-1.2-.4-.2-.7-.5-1.1-.7-.7-.4-1.4-.9-2.2-1.3-.4-.2-.7-.4-1.1-.6-.9-.6-1.9-1.1-2.8-1.7-.2-.1-.4-.2-.5-.3l-3.6-2.1c-.3-.2-.6-.3-.8-.5-.9-.5-1.9-1.1-2.9-1.6-.4-.2-.9-.5-1.3-.8-.8-.5-1.7-.9-2.5-1.4l-1.5-.9c-.8-.5-1.7-.9-2.5-1.4-.6-.3-1.1-.6-1.7-.9-.9-.5-1.7-.9-2.6-1.4-.6-.3-1.2-.6-1.7-.9-.9-.5-1.8-1-2.8-1.5-.6-.3-1.1-.6-1.7-.9-1-.5-2.1-1.1-3.2-1.6-.5-.3-1-.5-1.5-.7-1.6-.8-3.2-1.6-4.9-2.4-5.6-.1-11.3.1-16.9.4-9.4.6-18.7 1.7-28 3.5-9.3 1.7-18.4 4-27.5 6.9-5.4 1.7-10.8 3.7-16.1 5.8-.1.1-.4.5-.9 1l-.1.1c-.5.5-1 1.1-1.7 1.9l-.1.1c-.7.8-1.6 1.7-2.5 2.7-1 1-2 2.2-3.2 3.5-1.1 1.2-2.3 2.5-3.5 3.8-.5.5-.9 1-1.4 1.5-.4.5-.9 1-1.3 1.4-.9 1-1.7 2-2.6 3-1.8 2-3.5 4-5.3 6.1-1.3 1.5-2.6 3-3.8 4.5-.8 1-1.6 2-2.4 2.9-1.5 1.9-2.9 3.7-4.1 5.3 0 .1-.2.2-.4.5-.1.1-.2.3-.4.5l-.1.1-.3.3c-.1.1-.2.2-.2.3-.1.1-.1.2-.2.3-.1.2-.2.3-.4.5-.1.1-.2.2-.2.3-.1.2-.3.3-.4.5-.1.2-.2.3-.4.5-.1.1-.2.3-.3.4-.1.2-.3.4-.4.6-.1.2-.2.3-.4.5s-.3.4-.5.7l-.3.3c-.2.3-.4.5-.6.8-.1.1-.2.3-.3.4-.2.3-.4.5-.6.8-.1.1-.2.3-.3.4-.2.3-.4.5-.6.8-.1.2-.2.3-.4.5-.2.3-.4.6-.6.8-.1.1-.2.3-.3.4-.2.3-.4.6-.7.9-.1.2-.3.3-.4.5-.2.3-.4.5-.6.8-.1.2-.3.4-.4.6-.2.3-.4.6-.6.8-.1.2-.3.3-.4.5-.2.3-.4.6-.7.9-.1.2-.2.3-.3.5-.2.3-.5.6-.7.9-.1.2-.2.3-.3.5-.2.3-.5.6-.7.9-.1.1-.2.3-.3.4-.2.3-.5.7-.7 1 0 .1-.1.1-.1.2-1.2 1.7-2.3 3.3-3.3 4.8 0 .1-.1.1-.1.2-.2.3-.4.6-.6.8-.1.1-.2.2-.2.4-.2.3-.3.5-.5.7-.1.1-.2.3-.3.4-.2.2-.3.5-.4.7-.1.1-.2.3-.2.4-.1.2-.3.4-.4.6-.1.1-.2.3-.2.4l-.1.1c-.1.1-.2.3-.2.4-.1.1-.1.2-.2.4s-.2.3-.3.4c-.1.1-.1.2-.2.3-.1.1-.1.3-.2.4 0 .1-.1.1-.1.2l55.7 56.3c.5 1 1.6.7 3.1.3z"/><path class="st2" d="M666.4 348.8c1.1-5.5 2.4-10.9 3.9-16.2 2.5-9 5.5-17.8 9-26.4.1-.3.2-.6.3-.8l-6.2-17.5-.6-1.7c-19.8 40.5-28 85.4-24.6 129.5.2-.3.5-.6.7-1 .5-.7 1.1-1.4 1.6-2.1.6-.7 1.2-1.5 1.8-2.3.6-.8 1.2-1.6 1.9-2.4.6-.8 1.3-1.6 1.9-2.4.9-1.2 1.8-2.3 2.7-3.3v-.1c.3-.3.5-.6.7-.9l.2-.2c.2-.3.4-.6.7-.8.2-.3.4-.5.6-.8l.2-.2c.1-.2.3-.3.4-.5l.2-.2v-5.1c.1-11.3.9-22.4 2.6-33.4.7-3.9 1.3-7.5 2-11.2z"/><path d="M1133.6 300c-12.8-31.7-31.7-60.1-56.1-84.4-24.4-24.4-52.8-43.2-84.4-56.1-30.6-12.4-62.9-18.7-96-18.7s-65.5 6.3-96 18.7c-31.7 12.8-60.1 31.7-84.4 56.1-3.8 3.8-7.4 7.6-10.8 11.5-19.2 21.6-34.4 46.1-45.2 72.9-12.4 30.6-18.7 62.9-18.7 96s6.3 65.5 18.7 96c12.8 31.7 31.7 60.1 56.1 84.4 24.4 24.4 52.8 43.2 84.4 56.1 30.6 12.4 62.9 18.7 96 18.7s65.5-6.3 96-18.7c26.2-10.6 50.2-25.4 71.5-44 4.4-3.9 8.7-7.9 12.9-12 24.4-24.4 43.2-52.8 56.1-84.4 12.4-30.6 18.7-62.9 18.7-96-.1-33.2-6.4-65.5-18.8-96.1zm-158.2-88.3c.3.1.6.1 1 .2.8.2 1.6.3 2.4.5l1.2.3c.8.2 1.6.3 2.4.5l1.2.3c.8.2 1.7.4 2.5.5.4.1.7.2 1.1.3.8.2 1.7.4 2.5.6.4.1.7.2 1.1.3.8.2 1.7.4 2.5.6.3.1.7.2 1 .2.9.2 1.7.4 2.5.6.3.1.6.2 1 .2.9.2 1.7.4 2.5.7.3.1.6.2.9.2.9.2 1.7.5 2.6.7.3.1.6.2.8.2.9.2 1.7.5 2.6.7.3.1.5.1.8.2.9.2 1.7.5 2.6.7.2.1.5.1.7.2.9.2 1.7.5 2.6.7.2.1.5.1.7.2.8.3 1.7.5 2.5.8.2.1.5.1.7.2.8.3 1.7.5 2.5.8.2.1.4.1.6.2.8.3 1.7.5 2.5.8.2.1.4.1.6.2.8.3 1.7.5 2.5.8.2.1.3.1.5.2.8.3 1.7.5 2.5.8.2.1.3.1.5.2.8.3 1.6.5 2.4.8.1 0 .3.1.4.1.8.3 1.6.5 2.4.8.2.1.3.1.4.2.8.3 1.5.5 2.3.8.1 0 .3.1.4.1.8.3 1.5.5 2.2.8.1 0 .2.1.3.1.7.3 1.5.5 2.2.8.1 0 .3.1.4.1.7.2 1.4.5 2 .7.1 0 .2.1.3.1.7.2 1.4.5 2 .7.1 0 .2.1.3.1.6.2 1.3.5 1.9.7.1 0 .3.1.4.1.6.2 1.2.4 1.7.6.1.1.3.1.4.2.5.2 1.1.4 1.6.6.1.1.3.1.4.2.5.2 1 .4 1.4.5.1.1.3.1.4.2.4.2.9.3 1.3.5.2.1.3.1.5.2.4.2.8.3 1.2.5l.9.3c.2.1.4.2.6.2.5.2.9.4 1.3.5.4.2.8.3 1.2.5 2.9 3.2 5.7 6.5 8.4 9.9 5.4 6.7 10.4 13.7 14.9 20.9 4.5 7.2 8.6 14.6 12.2 22.1 1.8 3.8 3.5 7.6 5.1 11.4 3.2 7.7 5.9 15.5 8.3 23.5-.1.6-.2 1.2-.3 1.7 0 .2-.1.3-.1.5-.1.4-.2.8-.2 1.3 0 .2-.1.4-.1.6-.1.4-.2.7-.2 1.1-.1.2-.1.5-.2.7-.1.4-.2.7-.2 1.1-.1.2-.1.5-.2.7-.1.3-.2.7-.2 1-.1.3-.1.5-.2.8-.1.3-.2.7-.2 1-.1.3-.1.5-.2.8-.1.3-.2.7-.2 1-.1.3-.1.5-.2.8-.1.3-.2.7-.3 1-.1.3-.1.5-.2.8-.1.4-.2.7-.3 1.1-.1.2-.1.5-.2.7-.1.4-.2.7-.3 1.1-.1.2-.1.5-.2.7-.1.4-.2.7-.3 1.1-.1.2-.1.5-.2.7-.1.4-.2.7-.3 1.1-.1.2-.1.5-.2.7l-.3 1.2c-.1.2-.1.4-.2.6-.1.5-.3 1-.4 1.5 0 .1-.1.2-.1.4-.2.6-.4 1.2-.5 1.8v.1c-.2.6-.3 1.1-.5 1.7 0 .1-.1.3-.1.4-.1.5-.3.9-.4 1.4-.1.2-.1.4-.2.6-.1.4-.2.8-.4 1.2-.1.2-.1.4-.2.7-.1.4-.2.7-.3 1.1-.1.2-.2.5-.2.7-.1.4-.2.7-.3 1.1-.1.2-.2.5-.2.7-.1.4-.2.7-.3 1.1-.1.2-.2.5-.2.7-.1.4-.2.7-.3 1.1-.1.2-.2.5-.2.7-.1.3-.2.7-.3 1-.1.2-.2.5-.2.7-.1.4-.2.7-.3 1.1-.1.2-.2.5-.2.7-.1.4-.2.7-.4 1.1-.1.2-.2.5-.2.7-.1.4-.2.7-.4 1.1-.1.2-.1.4-.2.6-.1.4-.3.8-.4 1.2-.1.2-.1.3-.2.5-.1.4-.3.8-.4 1.3 0 .1-.1.3-.1.4-.2.5-.3 1-.5 1.5 0 .1 0 .1-.1.2l-1.2 3.3c0 .1-.1.2-.1.4-.1.4-.3.8-.4 1.2-.1.2-.1.3-.2.5-.1.4-.3.7-.4 1.1-.1.2-.1.4-.2.6l-.3.9c-.1.2-.2.4-.2.6l-.3.9c-.1.2-.2.4-.2.6l-.3.9c-.1.2-.1.4-.2.6l-.3.9c-.1.2-.1.4-.2.6l-.3.9c-.1.2-.1.3-.2.5l-.3.9c-.1.2-.1.3-.2.5l-.3.9c-.1.2-.1.3-.2.5l-.3.9c-.1.1-.1.3-.2.4-.1.3-.2.6-.4.9 0 .1-.1.2-.1.3-.1.3-.3.7-.4 1 0 .1-.1.2-.1.2-.1.4-.3.7-.4 1 0 0 0 .1-.1.1-.1.4-.3.8-.4 1.1 0 .1-.1.2-.1.3-.1.3-.2.5-.3.8 0 .1-.1.2-.1.3-.1.2-.2.5-.3.7 0 .1-.1.2-.1.4-.1.2-.2.4-.2.6-.1.1-.1.3-.2.4-.1.2-.1.4-.2.6 0 .1-.1.2-.1.3-.1.2-.2.4-.2.6 0 .1-.1.2-.1.3-.1.2-.1.4-.2.5 0 .1-.1.2-.1.3-.1.2-.1.3-.2.5 0 .1-.1.2-.1.3-.1.2-.1.3-.2.5 0 .1-.1.2-.1.2-.1.1-.1.3-.2.4 0 .1-.1.2-.1.3-.1.1-.1.3-.2.4 0 .1-.1.1-.1.2s-.1.2-.1.3c0 .1-.1.2-.1.3v.1c-.1.3-.2.6-.3.8-.1.2-.2.4-.2.5v.1l-93-15.7v-.1c0-.1 0-.1-.1-.2v-.1c0-.1-.1-.1-.1-.2 0 0 0-.1-.1-.1 0-.1-.1-.2-.1-.3 0 0 0-.1-.1-.1 0-.1-.1-.2-.1-.3 0-.1-.1-.1-.1-.2s-.1-.2-.1-.3c0-.1-.1-.1-.1-.2-.1-.1-.1-.2-.2-.4 0-.1-.1-.1-.1-.2-.1-.1-.1-.3-.2-.4 0-.1-.1-.1-.1-.2-.1-.1-.1-.3-.2-.4 0-.1-.1-.2-.1-.3-.1-.1-.1-.3-.2-.4 0-.1-.1-.1-.1-.2-.1-.2-.2-.3-.3-.5 0-.1-.1-.1-.1-.2l-.3-.6c0-.1-.1-.1-.1-.2-.2-.5-.5-1-.7-1.5v-.1c-.1-.3-.2-.5-.4-.8 0-.1-.1-.1-.1-.2-.1-.2-.2-.5-.3-.7 0-.1-.1-.2-.1-.3l-.3-.6c-.1-.1-.1-.2-.2-.4s-.2-.4-.3-.7c0-.1-.1-.1-.1-.2-.1-.3-.3-.6-.4-.9v-.1c-.2-.3-.3-.6-.5-1v-.1c-.1-.3-.3-.6-.4-.9-.1-.1-.1-.3-.2-.4-.1-.3-.2-.5-.4-.8 0-.1-.1-.1-.1-.2-.1-.3-.3-.6-.4-.8-.1-.1-.1-.3-.2-.4-.1-.2-.2-.5-.4-.7 0-.1-.1-.2-.1-.2-.5-1.1-1-2.1-1.6-3.2 0-.1-.1-.2-.1-.3-.3-.7-.7-1.4-1-2.1 0-.1-.1-.2-.1-.2-.2-.3-.3-.7-.5-1 0-.1-.1-.2-.1-.3-.1-.3-.3-.6-.4-.9v-.1c-.3-.6-.6-1.1-.8-1.7-.2-.5-.4-.9-.7-1.4-.1-.1-.1-.2-.2-.3 0-.1-.1-.2-.1-.3-.4-.7-.7-1.4-1.1-2.1 0 0 0-.1-.1-.1-.3-.6-.6-1.1-.8-1.7l-.6-1.2c-.1-.2-.2-.3-.2-.5-.7-1.5-1.4-2.9-2.1-4.3 0 0 0-.1-.1-.1-.2-.4-.4-.9-.6-1.3l-1.2-2.4c-.4-.8-.7-1.5-1.1-2.2-.2-.3-.3-.6-.4-.9-.1-.3-.3-.5-.4-.8-.1-.2-.2-.5-.4-.7-.3-.6-.6-1.2-.8-1.7-.2-.3-.3-.6-.5-.9l-.6-1.2-.3-.6s0-.1-.1-.1c0-.1-.1-.2-.1-.2 0-.1-.1-.2-.1-.2s0-.1-.1-.2v-.1s0-.1-.1-.2c0 0 0-.1-.1-.1 0-.1-.1-.1-.1-.2 0 0 0-.1-.1-.2 0-.1-.1-.1-.1-.2s-.1-.1-.1-.2-.1-.2-.1-.3c0-.1-.1-.1-.1-.2s-.1-.2-.1-.3c0-.1-.1-.2-.1-.3-.1-.1-.1-.2-.2-.3 0-.1-.1-.2-.1-.3-.1-.1-.1-.2-.2-.3-.1-.1-.1-.2-.2-.3-.1-.1-.1-.2-.2-.4-.1-.1-.1-.2-.2-.3-.1-.1-.1-.3-.2-.4-.1-.1-.1-.2-.2-.3-.1-.1-.1-.3-.2-.4-.1-.1-.1-.2-.2-.4s-.2-.3-.3-.5c-.1-.1-.1-.2-.2-.4s-.2-.4-.3-.5c-.1-.1-.1-.2-.2-.3l-.3-.6c-.1-.1-.1-.2-.2-.3l-.3-.6c-.1-.1-.1-.3-.2-.4l-.3-.6c-.1-.2-.2-.3-.3-.5-.1-.2-.2-.4-.3-.5-.1-.2-.2-.3-.3-.5l-.3-.6c-.1-.2-.2-.3-.3-.5l-.3-.6c-.1-.2-.2-.3-.3-.5-.1-.2-.3-.5-.4-.7-.1-.1-.2-.3-.2-.4-.2-.3-.3-.6-.5-.9 0-.1-.1-.2-.1-.2-.6-1.2-1.3-2.4-2-3.7-.1-.1-.1-.3-.2-.4-.2-.3-.3-.6-.5-.9-.1-.2-.2-.3-.3-.5-.1-.2-.3-.5-.4-.7l-.3-.6c-.1-.3-.3-.5-.4-.8-.1-.1-.1-.2-.2-.3-.2-.3-.3-.6-.5-1-.1-.2-.2-.3-.3-.5-.1-.2-.3-.5-.4-.7-.1-.2-.2-.4-.4-.7l-.3-.6c-.1-.2-.2-.4-.4-.7-.1-.2-.3-.5-.4-.7-.1-.2-.2-.4-.3-.5-.2-.3-.3-.6-.5-.8-.1-.1-.2-.3-.2-.4-.2-.3-.3-.6-.5-.9-.1-.2-.2-.3-.3-.5-.1-.2-.2-.4-.4-.7-.1-.2-.3-.5-.4-.7-.1-.2-.2-.4-.4-.7l-.3-.6c-.1-.2-.2-.4-.4-.7-.1-.3-.3-.5-.4-.8-.1-.2-.2-.3-.3-.5l-.3-.6c-.2-.3-.3-.5-.5-.8l-.3-.6c-.1-.2-.2-.4-.3-.5l-.3-.6c-.2-.3-.4-.7-.5-1 0-.1-.1-.2-.1-.2-.1-.3-.3-.5-.4-.8-.1-.2-.2-.3-.3-.5-.4-.7-.8-1.4-1.1-2-.1-.2-.2-.3-.3-.5-.5-1-1-1.9-1.5-2.8-.2-.4-.4-.8-.7-1.2 0 0 0-.1-.1-.1-.2-.3-.3-.6-.5-.9v-.1c-.1-.1-.2-.3-.2-.4-.3-.6-.6-1.1-.9-1.6-.3-.5-.5-1-.8-1.4-.2-.3-.4-.7-.5-1-.2-.4-.4-.7-.6-1-.2-.4-.4-.7-.6-1-.2-.3-.4-.6-.5-.9 0-.1-.1-.2-.1-.2-.2-.4-.4-.7-.5-.9l40.8-74.6zm143.5 299.1c-9.1 17.7-20.6 34.5-34.2 50.1-3.5 4-7.2 7.9-11 11.7-18.8 18.8-39.9 34-62.4 45.5l3.3-19.9 1.9-11.6c7.1-4.5 13.9-9.4 20.5-14.7 4.9-4 9.7-8.2 14.3-12.5 1.5-1.5 3.1-3 4.6-4.5.9-.9 1.8-1.8 2.6-2.7 4.9-5.1 9.6-10.4 14.1-15.8 3.9-4.8 7.6-9.8 11.1-14.9 1.2-1.7 2.3-3.4 3.4-5.1l31.8-5.6zM917 147.3L900.1 161c-1.9 0-3.9-.1-5.9 0-9.4 0-18.7.6-27.9 1.8-5.5.7-11 1.6-16.5 2.7-7.3 1.4-14.5 3.2-21.6 5.4-3.6 1.1-7.1 2.2-10.6 3.5-3.5 1.2-7 2.6-10.5 4-.4.2-.8.3-1.3.5-.2-.1-.4-.1-.6-.2h-.1c-.2-.1-.4-.1-.5-.2-.1-.1-.3-.1-.4-.2-.2-.1-.5-.2-.7-.3-.2-.1-.4-.1-.6-.2-.1-.1-.3-.1-.4-.2-.2-.1-.4-.2-.6-.2-.1-.1-.3-.1-.4-.2-.3-.1-.6-.2-.9-.4-.1 0-.2-.1-.3-.1-.3-.1-.6-.2-1-.4-.1 0-.1 0-.2-.1-.4-.1-.8-.3-1.2-.5-3.8-1.4-7.9-2.9-10.8-3.9 40.7-19.8 85.7-28 129.9-24.5zM755.3 248.1c.1-.2.2-.4.4-.6.1-.1.2-.2.2-.4.1-.2.3-.4.4-.7.1-.1.2-.3.3-.4.2-.2.3-.5.5-.7.1-.1.2-.2.2-.4.2-.3.4-.5.6-.8 0-.1.1-.1.1-.2 1-1.5 2.2-3.1 3.3-4.8 0-.1.1-.1.1-.2.2-.3.5-.7.7-1 .1-.1.2-.3.3-.4.2-.3.5-.6.7-.9.1-.2.2-.3.3-.5.2-.3.5-.6.7-.9.1-.2.2-.3.3-.5.2-.3.4-.6.7-.9.1-.2.3-.3.4-.5.2-.3.4-.6.6-.8.1-.2.3-.4.4-.6.2-.3.4-.5.6-.8.1-.2.3-.4.4-.5.2-.3.4-.6.7-.9.1-.1.2-.3.3-.4.2-.3.4-.6.6-.8.1-.2.2-.3.4-.5.2-.3.4-.5.6-.8.1-.1.2-.3.3-.4.2-.3.4-.5.6-.8.1-.1.2-.3.3-.4.2-.3.4-.5.6-.8l.3-.3c.2-.2.3-.5.5-.7.1-.2.2-.3.4-.5.1-.2.3-.4.4-.6.1-.1.2-.3.3-.4.1-.2.2-.3.4-.5.1-.2.3-.4.4-.5.1-.1.2-.2.2-.3.1-.2.3-.3.4-.5.1-.1.1-.2.2-.3.1-.1.2-.2.2-.3l.3-.3.1-.1c.1-.2.3-.3.4-.5.2-.3.3-.4.4-.5.4-.5.8-1 1.2-1.6.6-.8 1.2-1.5 1.8-2.4.4-.5.7-.9 1.1-1.4.8-.9 1.5-1.9 2.4-2.9 1.2-1.5 2.5-3 3.8-4.5 1.7-2 3.5-4.1 5.3-6.1.9-1 1.8-2 2.6-3 .4-.5.9-1 1.3-1.4.5-.5.9-1 1.4-1.5 1.2-1.3 2.4-2.6 3.5-3.8 1.1-1.2 2.2-2.4 3.2-3.5.9-1 1.8-1.9 2.5-2.7l.1-.1c.7-.8 1.3-1.4 1.7-1.9l.1-.1.6-.6c.1-.2.3-.3.3-.3 4-1.6 8-3.1 12.1-4.5 1.3-.5 2.7-.9 4.1-1.3 9-2.9 18.2-5.2 27.5-6.9 9.3-1.7 18.6-2.9 28-3.5 5.6-.3 11.2-.5 16.9-.4 1.7.8 3.3 1.6 4.9 2.4.5.3 1 .5 1.5.7 1.1.6 2.2 1.1 3.2 1.6.6.3 1.1.6 1.7.9.9.5 1.9 1 2.8 1.5.6.3 1.2.6 1.7.9.9.5 1.7.9 2.6 1.4.6.3 1.1.6 1.7.9.9.5 1.7.9 2.5 1.4l1.5.9c.9.5 1.7 1 2.5 1.4.4.3.9.5 1.3.8 1 .6 1.9 1.1 2.9 1.6.3.2.6.3.8.5l3.6 2.1c.2.1.4.2.5.3 1 .6 1.9 1.1 2.8 1.7.4.2.7.4 1.1.6.7.4 1.5.9 2.2 1.3.4.2.7.5 1.1.7.7.4 1.3.8 1.9 1.2.4.2.7.5 1.1.7.6.4 1.2.8 1.8 1.1.4.2.7.4 1 .7.6.4 1.2.8 1.8 1.1l.9.6 1.8 1.2c.2.2.5.3.7.5.8.5 1.5 1 2.3 1.5 0 0 .1 0 .1.1.8.5 1.5 1.1 2.2 1.6.1.1.3.2.4.3.6.4 1.1.8 1.6 1.2.2.2.4.3.6.4.4.3.9.6 1.3.9.2.2.4.3.6.5.4.3.8.6 1.1.8.2.2.4.3.6.5.4.3.7.5 1 .8.2.1.4.3.5.4.3.3.7.5 1 .8.2.1.3.2.5.4.3.3.7.5 1 .8l.3.3c.4.3.8.6 1.2 1h.1c.3.3.7.6 1 .8l.3.3c.2.2.4.3.6.5l.3.3c.2.1.3.3.4.4l.3.3c.1.1.2.2.4.3.1.1.2.2.3.2.1.1.2.2.3.2.1.1.2.1.2.2l-41.4 74.6c-.3 0-.6.1-1 .1-.7.1-1.3.2-2 .2-.3 0-.7.1-1 .1l-2.1.3c-.2 0-.3 0-.5.1-3.7.5-7.4 1-11 1.5-.2 0-.4.1-.6.1l-2.1.3c-.3 0-.6.1-.9.1-.7.1-1.3.2-2 .3-.3 0-.7.1-1 .1-.6.1-1.3.2-1.9.3-.4.1-.7.1-1.1.2l-1.8.3c-.4.1-.7.1-1.1.2l-1.8.3c-.4.1-.7.1-1.1.2l-1.8.3c-.4.1-.7.1-1.1.2-.6.1-1.2.2-1.7.3-.4.1-.7.1-1.1.2-.6.1-1.1.2-1.7.3-.4.1-.7.1-1.1.2-.6.1-1.1.2-1.7.3-.3.1-.7.1-1 .2-.6.1-1.2.2-1.7.3-.3.1-.7.1-1 .2-.6.1-1.1.2-1.7.3-.3.1-.7.1-1 .2-.6.1-1.1.2-1.7.3-.3.1-.6.1-1 .2-.6.1-1.1.2-1.6.3-.3.1-.6.1-1 .2-.5.1-1.1.2-1.6.3-.3 0-.6.1-.8.1-.6.1-1.2.2-1.7.3-.2 0-.4.1-.6.1-2.9.5-5.8 1-8.6 1.6-.2 0-.3.1-.5.1-.6.1-1.1.2-1.7.3-.2 0-.4.1-.7.1-.5.1-1.1.2-1.6.3-.2 0-.5.1-.7.1l-1.5.3c-.3 0-.5.1-.8.1-.5.1-1 .2-1.4.3-.3.1-.5.1-.8.2-.4.1-.9.2-1.3.3-.3.1-.6.1-.9.2-.4.1-.8.2-1.2.2-.3.1-.6.1-.9.2-.4.1-.8.2-1.2.2-.3.1-.6.1-.9.2-.4.1-.7.1-1.1.2-.3.1-.6.1-.9.2-.4.1-.7.1-1.1.2-.3.1-.6.1-.9.2-.3.1-.7.1-1 .2-.3.1-.6.1-.9.2-.4.1-.7.1-1 .2-.3.1-.5.1-.8.2-.4.1-.7.1-1.1.2-.3.1-.5.1-.8.2-.3.1-.7.1-1 .2-.3.1-.5.1-.8.2-.3.1-.6.1-.9.2-.3.1-.6.1-.8.2-.3.1-.6.1-.8.2-.3.1-.6.1-.9.2-.2.1-.5.1-.7.2l-1.2.3c-.1 0-.3.1-.4.1-1.1.2-2.1.5-3.1.7-.1 0-.3.1-.4.1-.3.1-.7.2-1 .2-.2 0-.4.1-.6.1-.3.1-.5.1-.8.2-.2.1-.4.1-.7.1-.2.1-.5.1-.7.2-.2 0-.3.1-.5.1-.3.1-.6.1-.9.2-.1 0-.2.1-.3.1-.3.1-.6.1-.8.2-.2 0-.3.1-.5.1-.2.1-.5.1-.7.2-.2 0-.3.1-.5.1-.2.1-.5.1-.7.2-.1 0-.2.1-.3.1-.2.1-.5.1-.7.2-.1 0-.2 0-.3.1-.2.1-.5.1-.7.2-.1 0-.2 0-.3.1-.2 0-.4.1-.6.1-.1 0-.2 0-.3.1-.2 0-.4.1-.6.1h-.2c-.2.1-.4.1-.7.2h-.1c-.1 0-.2 0-.2.1-.2 0-.4.1-.5.1-.1 0-.2.1-.3.1-.2 0-.4.1-.6.1-.1 0-.1 0-.2.1-.7.2-1.2.3-1.5.4l-55.7-56.3c0-.1.1-.1.1-.2.1-.1.1-.2.2-.4.1-.1.1-.2.2-.3.1-.1.2-.3.3-.4.1-.1.1-.2.2-.4.1-.1.2-.2.2-.4l.1-.1c0-1.2 0-1.4.1-1.5zM662 398.3c0 .1-.1.1-.2.2-.1.2-.2.3-.4.5l-.2.2c-.2.3-.4.5-.6.8-.2.3-.4.5-.7.8l-.2.2c-.2.3-.5.6-.7.9v.1c-.8 1-1.7 2.2-2.7 3.3-.6.8-1.3 1.6-1.9 2.4-.6.8-1.3 1.6-1.9 2.4-.6.8-1.2 1.6-1.8 2.3-.6.7-1.1 1.5-1.6 2.1-.3.3-.5.7-.7 1-3.4-44.1 4.8-88.9 24.6-129.5l.6 1.7 6.2 17.5c-.1.3-.2.5-.3.8-3.6 8.7-6.6 17.5-9 26.4-1.5 5.4-2.8 10.8-3.9 16.2-.7 3.6-1.4 7.3-1.9 11-1.6 11-2.5 22.2-2.6 33.4-.1 1.9-.1 3.6-.1 5.3zm46.9 70.9c-.2-.3-.5-.6-.7-.9-.6-.7-1.2-1.5-1.8-2.2-.2-.3-.4-.5-.6-.8-.6-.8-1.2-1.5-1.8-2.3-.2-.2-.4-.5-.6-.7-.6-.8-1.2-1.6-1.8-2.3-.2-.2-.3-.5-.5-.7l-1.8-2.4c-.2-.2-.3-.4-.4-.6-.6-.8-1.2-1.6-1.7-2.4-.1-.2-.3-.4-.4-.6-.6-.8-1.2-1.6-1.7-2.4-.1-.2-.2-.3-.4-.5-.6-.8-1.1-1.6-1.7-2.5-.1-.2-.2-.3-.3-.5-.6-.8-1.1-1.7-1.7-2.5-.1-.1-.2-.3-.3-.4-.6-.8-1.1-1.7-1.7-2.5-.1-.1-.1-.2-.2-.3-.6-.9-1.1-1.7-1.6-2.6-.1-.1-.1-.2-.2-.3-.5-.8-1.1-1.7-1.6-2.5 0-.1-.1-.1-.1-.2-.5-.9-1.1-1.7-1.6-2.5l-.1-.1c-.5-.9-1-1.7-1.5-2.5 0 0 0-.1-.1-.1-.5-.8-1-1.7-1.5-2.5 0 0 0-.1-.1-.1-.5-.8-1-1.6-1.4-2.4v-.1c-.5-.8-.9-1.6-1.4-2.4-3.1-5.5-5.6-10.3-7.6-14.4-.7-1.4-1.3-2.6-1.8-3.8 0 0 0-.1-.1-.1-.2-.5-.4-.9-.6-1.4 0-.1-.1-.1-.1-.2l-.6-1.2v-.1c-.2-.4-.4-.8-.5-1.1l-.3-.6c-.1-.2-.2-.4-.2-.5 0-.1-.1-.1-.1-.2-.3-.6-.5-1.2-.7-1.6-.2-13.3.7-26.6 2.8-39.8.5-3.5 1.2-6.9 1.9-10.3.5-2.6 1.1-5.1 1.7-7.6 1.3-5.2 2.7-10.4 4.3-15.5 1.7-5.5 3.7-10.9 5.8-16.3 1.1-1.1 2.2-2.1 3.3-3.2.4-.3.7-.7 1.1-1 .7-.7 1.5-1.4 2.2-2.1.4-.4.9-.8 1.3-1.2.7-.6 1.3-1.2 2-1.8.5-.4.9-.8 1.4-1.2.6-.6 1.3-1.1 1.9-1.7.5-.4.9-.8 1.4-1.2.6-.5 1.2-1.1 1.9-1.6.5-.4.9-.8 1.4-1.2.6-.5 1.2-1.1 1.8-1.6.5-.4.9-.8 1.4-1.2l1.8-1.5c.4-.4.9-.8 1.3-1.1l1.8-1.5c.4-.4.9-.7 1.3-1.1l1.8-1.5c.4-.3.8-.7 1.2-1 .6-.5 1.2-1 1.8-1.4.4-.3.8-.6 1.1-.9.6-.5 1.2-1 1.9-1.5.3-.3.7-.5 1-.8.7-.5 1.4-1.1 2-1.6.3-.2.5-.4.8-.6.9-.7 1.7-1.3 2.5-2l.1-.1c.9-.7 1.8-1.4 2.7-2 .1-.1.2-.1.3-.2.8-.6 1.5-1.1 2.2-1.7.2-.2.5-.3.7-.5.6-.4 1.2-.9 1.7-1.3.3-.2.5-.4.8-.6.5-.4 1-.8 1.5-1.1.3-.2.5-.4.8-.6.5-.3 1-.7 1.4-1 .3-.2.5-.4.8-.6.4-.3.9-.6 1.3-.9.3-.2.5-.4.8-.5.4-.3.8-.6 1.2-.8.3-.2.5-.4.8-.5.4-.3.8-.5 1.1-.8.2-.2.5-.3.7-.5.4-.2.7-.5 1.1-.7.2-.1.4-.3.6-.4.3-.2.7-.5 1-.7.2-.1.4-.3.6-.4l.9-.6c.2-.1.3-.2.5-.3l.9-.6c.1-.1.3-.2.4-.3.3-.2.6-.4.8-.5.1-.1.2-.1.3-.2.3-.2.7-.4 1-.6.1 0 .1-.1.2-.1.2-.1.4-.3.6-.4.2-.1.3-.2.4-.3.1 0 .2-.1.2-.1.1-.1.2-.1.3-.2 0 0 .1 0 .1-.1l55.7 56.3v.1c0 .1 0 .1-.1.2 0 .1 0 .1-.1.2 0 .1-.1.2-.1.2 0 .1 0 .2-.1.2 0 .1-.1.2-.1.3 0 .1-.1.2-.1.3 0 .1-.1.2-.1.3 0 .1-.1.2-.1.3 0 .1-.1.2-.1.3 0 .1-.1.2-.1.3 0 .1-.1.2-.1.4 0 .1-.1.2-.1.4 0 .1-.1.3-.1.4 0 .1-.1.3-.1.4 0 .1-.1.3-.1.4 0 .1-.1.3-.1.4 0 .1-.1.3-.1.4 0 .1-.1.3-.1.4 0 .2-.1.3-.1.5 0 .1-.1.3-.1.4 0 .2-.1.3-.1.5s-.1.3-.1.5-.1.3-.1.5-.1.3-.1.5-.1.3-.1.5-.1.4-.1.5c0 .2-.1.3-.1.5s-.1.4-.1.6c0 .2-.1.4-.1.6 0 .2-.1.4-.1.5 0 .2-.1.4-.1.6 0 .2-.1.4-.1.6 0 .2-.1.4-.1.6 0 .2-.1.4-.1.6 0 .2-.1.4-.1.7 0 .2-.1.3-.1.5s-.1.5-.1.7c0 .2-.1.4-.1.6 0 .2-.1.4-.1.7 0 .2-.1.4-.1.6 0 .2-.1.5-.1.7 0 .2-.1.4-.1.6 0 .2-.1.4-.1.7-.1.3-.1.5-.2.8 0 .2-.1.4-.1.5-.1.3-.1.5-.2.8 0 .2-.1.4-.1.6 0 .2-.1.5-.1.7 0 .2-.1.4-.1.7 0 .2-.1.5-.1.7 0 .2-.1.4-.1.6 0 .2-.1.5-.1.7 0 .2-.1.4-.1.6-.1.3-.1.6-.2.8 0 .2-.1.3-.1.5-.1.3-.1.6-.2.9 0 .2-.1.4-.1.5 0 .2-.1.4-.1.7-.1.3-.1.5-.2.8 0 .2-.1.5-.1.7 0 .2-.1.4-.1.5-.1.3-.1.7-.2 1 0 .1 0 .2-.1.3-.1.3-.1.7-.2 1 0 .1 0 .3-.1.4-.1.3-.1.6-.2.8 0 .2-.1.4-.1.6 0 .3-.1.5-.1.8 0 .2-.1.3-.1.5-.1.3-.1.6-.2.8 0 .2-.1.4-.1.6 0 .2-.1.5-.1.7 0 .2-.1.4-.1.6 0 .3-.1.5-.1.8 0 .2-.1.4-.1.5-.1.3-.1.6-.2.8 0 .1-.1.3-.1.4-.1.7-.3 1.5-.4 2.2 0 .1 0 .2-.1.3 0 .3-.1.5-.1.8 0 .2-.1.3-.1.5-.2 1-.4 2-.5 2.9-.1.4-.1.7-.2 1-.2.9-.3 1.8-.5 2.6v.1c-.1.6-.2 1.1-.3 1.6 0 .2-.1.5-.1.7-.1.6-.2 1.1-.3 1.6-.1.3-.1.6-.2.9-.2.8-.3 1.5-.4 2.1v.1l-.3 1.8c-.1.3-.2.6-.3 1v.1c-.1.3-.2.7-.3 1.1v.2l-.3 1.2v.2c-.1.4-.2.9-.3 1.3v.2l-.3 1.5v.3c-.1.5-.2 1-.3 1.6v.3c-.1.6-.2 1.1-.3 1.7v.1c-.1.6-.2 1.2-.3 1.9v.1c-.1.6-.2 1.3-.3 2v.2c-.1.6-.2 1.3-.3 2v.3c-.1.7-.2 1.3-.3 2v.3c-.1.7-.2 1.3-.3 2 0 .1 0 .3-.1.4-.1.7-.2 1.3-.3 2 0 .1 0 .3-.1.4l-.3 2.1v.3l-.3 2.1v.3l-.3 2.1v.1c-.1.7-.2 1.5-.3 2.2v.2l-.3 2.1v.4c-.1.7-.2 1.3-.2 2v.4c-.1.6-.2 1.3-.2 1.9 0 .1 0 .3-.1.4-.1.6-.1 1.2-.2 1.8v.4c-.1.6-.1 1.2-.2 1.8v.3c-.1.6-.1 1.2-.2 1.7v.3c-.1.5-.1 1-.2 1.6v.4c-.1.6-.1 1.1-.2 1.6v.1c-.1 1.2-.2 2.2-.4 3.2v.1c0 .5-.1.9-.1 1.3v.2c0 .4-.1.7-.1 1v.2c-.1 1.1-.2 1.9-.3 2.4l-75.1 41.4c-.2-.3-.4-.5-.6-.8-1.4-.7-2-1.4-2.6-2.2zm113 143.6s0 .1 0 0c.1.1.1.1.2.3 0 .1.1.1.1.2v.1c.1.3.3.6.6 1.1 0 0 0 .1.1.1 0 .1.1.2.1.3.1.2.2.3.2.5 0 .1.1.1.1.2.1.1.1.3.2.4.1.1.1.3.2.4.1.1.1.3.2.4.2.3.3.6.5 1 0 .1.1.2.1.3.1.2.2.3.3.5.1.2.2.3.3.5l.3.6c.1.1.1.3.2.4l.3.6.3.6c.2.3.3.6.5 1l.3.6.3.6c.1.2.2.4.3.5l.3.6c.1.2.2.3.3.5.1.2.2.4.4.7.1.2.2.3.3.5.2.4.4.7.6 1.1l.3.6c.1.2.2.4.3.5.1.2.3.5.4.7.1.2.2.3.3.5.1.2.2.4.4.6.1.2.2.4.3.5.2.3.3.6.5.9.1.2.2.3.3.5.2.3.3.6.5.8.1.2.2.3.3.5l.3.6c.1.2.2.3.3.5l.3.6c.1.2.2.3.3.5.1.2.3.5.4.7.1.1.2.3.3.4.1.2.3.5.4.7.1.1.1.2.2.3.1.1.1.2.2.3-42.2-10.6-82.1-32.4-115.1-65.4L718 570c.7-.1 1.5-.1 2.4-.2h.2c.4 0 .8-.1 1.2-.1h.2c.4 0 .9-.1 1.3-.1h.3c.4 0 .7-.1 1.1-.1h.3c.4 0 .9-.1 1.3-.1h.4c.4 0 .7-.1 1.1-.1h.4c.5 0 .9-.1 1.4-.1h.3c.4 0 .7-.1 1.1-.1h.4c.4-.1.9-.1 1.3-.2h.3c.4 0 .7-.1 1-.1h.4c.4-.1.8-.1 1.2-.2h.2c.3-.1.7-.1 1-.2h.3c.4-.1.7-.1 1-.2h.1c.3-.1.6-.1.8-.2.1 0 .1 0 .2-.1.3-.1.5-.1.8-.2l.4-.4c1.2 1.1 2.4 2.1 3.7 3.1 1.2 1 2.5 2 3.7 3.1l5.4 4.2c2 1.5 4 3 6.1 4.4 7.8 5.5 16 10.5 24.4 15 7 3.7 14.3 7.1 21.8 10.1 2.8 1.1 5.5 2.2 8.3 3.1 2.5.7 5.3 1.6 8.1 2.5zm86.6-26.6c-1 .4-2.2.9-3.4 1.4-.8.3-1.7.6-2.5 1-.4.2-.9.3-1.3.5-.9.3-1.8.7-2.7 1-.6.2-1.2.4-1.8.7-.7.3-1.4.5-2.1.8-.6.2-1.2.4-1.8.7-.9.3-1.9.7-2.8 1-.5.2-.9.3-1.4.5-1.1.4-2.1.8-3.1 1.1-.6.2-1.1.4-1.6.6-.8.3-1.5.5-2.2.8-.7.2-1.3.5-2 .7-.4.2-.8.3-1.2.4-1 .3-1.9.6-2.5.9-.5.2-.9.3-1.1.4-.3.1-.4.1-.4.1l-2.4.9-2.7.9c-.9.3-1.9.6-2.9.9-1.5.5-3 .9-4.6 1.4-2.6.8-5.4 1.5-8.2 2.3l-3.3.9c-1.1.3-2.2.6-3.3.8-1.6.4-3.3.8-4.8 1.2-1.1.3-2.1.5-3.1.7l-1.5.3c-1 .2-1.9.4-2.9.7-.9.2-1.8.4-2.6.6-1.7.4-3.2.7-4.5 1-4.5-1.3-9-2.8-13.4-4.3-1.5-.5-3-1.1-4.4-1.6-9.8-3.7-19.4-8.2-28.7-13.4-3.7-2.1-7.4-4.2-11-6.5s-7.2-4.7-10.7-7.2c-7-5-13.8-10.5-20.4-16.4l-1.8-4.5-.6-1.5c-.4-1-.8-2-1.2-2.9-.2-.6-.4-1.1-.7-1.7-.3-.9-.7-1.8-1-2.6-.2-.6-.4-1.2-.7-1.8-.3-.8-.6-1.7-.9-2.5-.2-.6-.4-1.2-.7-1.8l-.9-2.4c-.2-.6-.4-1.2-.6-1.7-.3-.8-.6-1.6-.8-2.4-.2-.6-.4-1.1-.6-1.7-.3-.8-.5-1.6-.8-2.4-.2-.5-.4-1-.5-1.6-.3-.8-.6-1.7-.8-2.5-.2-.5-.3-.9-.5-1.4-.3-1-.6-1.9-.9-2.9-.1-.3-.2-.6-.3-.8-.4-1.2-.8-2.5-1.1-3.7-.1-.2-.1-.5-.2-.7-.3-.9-.6-1.9-.8-2.8-.1-.4-.2-.8-.4-1.2-.2-.7-.4-1.5-.7-2.2-.1-.4-.2-.9-.4-1.3-.2-.7-.4-1.3-.6-2-.1-.4-.2-.9-.4-1.3-.2-.6-.4-1.3-.5-1.9-.1-.4-.2-.9-.3-1.3-.2-.6-.3-1.2-.5-1.8l-.3-1.2c-.2-.6-.3-1.2-.5-1.8-.1-.4-.2-.7-.3-1.1-.2-.6-.3-1.2-.4-1.7-.1-.3-.2-.7-.2-1-.2-.6-.3-1.2-.5-1.8-.1-.2-.1-.5-.2-.7-.4-1.7-.8-3.3-1.1-4.7-.1-.2-.1-.4-.1-.7l-.3-1.5c-.1-.3-.1-.5-.2-.7l-.3-1.2c-.1-.3-.1-.5-.2-.8-.1-.4-.1-.7-.2-1.1 0-.2-.1-.5-.1-.7-.1-.3-.1-.7-.2-1 0-.2-.1-.4-.1-.6-.1-.3-.1-.6-.2-.9 0-.2-.1-.4-.1-.6-.1-.3-.1-.5-.1-.8 0-.2-.1-.3-.1-.5s-.1-.5-.1-.7c0-.1 0-.3-.1-.4 0-.2-.1-.5-.1-.7v-.2c0-.3-.1-.5-.1-.7l75.1-41.4 48.4 26.6c3 1.7 6.9 3.7 11.3 6 .6.3 1.3.6 1.9 1 1.3.7 2.6 1.3 4 2l4.2 2.1c1.4.7 2.8 1.4 4.3 2.1 2.2 1.1 4.3 2.1 6.5 3.1 1.4.7 2.9 1.4 4.3 2.1.7.3 1.4.7 2.1 1 1.4.7 2.7 1.3 4.1 1.9s2.6 1.2 3.9 1.8c3.4 1.6 6.5 3.1 9 4.2 1.2.5 2.2 1 3.1 1.5l2.6 1.2 1 .5 15.4 93.4-5.6 2.2zm99.9-.1c-.5 0-.9 0-1.4.1-.5 0-1 0-1.6.1-2.6.1-5.4.2-8.4.3-1.8 0-3.6.1-5.4.1-3.6.1-7.2.1-10.5.1-3.8 0-7 0-9.3.1h-3H957.6c-.4 0-.7 0-1.1-.1h-.9c-.4 0-.7 0-1.1-.1-.3 0-.7 0-1-.1-.4 0-.7 0-1.1-.1-.3 0-.7 0-1-.1-.4 0-.8 0-1.1-.1-.3 0-.6 0-1-.1-.4 0-.8-.1-1.2-.1-.3 0-.7 0-1-.1-.4 0-.8-.1-1.2-.1-.3 0-.6 0-1-.1-.4 0-.8-.1-1.2-.1-.3 0-.6 0-1-.1-.4 0-.8-.1-1.2-.1-.3 0-.6-.1-.9-.1-.4 0-.8-.1-1.2-.1-.3 0-.6 0-.9-.1-.4 0-.8-.1-1.3-.1-.3 0-.6 0-.8-.1-.4 0-.8-.1-1.2-.1-.3 0-.6 0-.8-.1-.5 0-.9-.1-1.4-.1-.2 0-.4 0-.6-.1-.7-.1-1.3-.1-1.9-.2-.6-.1-1.3-.1-1.9-.2h-.4c-.5 0-.9-.1-1.4-.1h-.5c-.4 0-.8-.1-1.2-.1-.2 0-.4 0-.6-.1-.3 0-.6-.1-1-.1-.2 0-.4 0-.6-.1-.3 0-.5-.1-.8-.1-.2 0-.4 0-.7-.1-.2 0-.5-.1-.7-.1-.2 0-.3 0-.5-.1-.2 0-.4 0-.7-.1-.2 0-.4 0-.6-.1h-.4c-.2 0-.4 0-.6-.1h-.4c-.2 0-.3 0-.5-.1h-1l-15-92.4c.5-.5 1.1-1 1.7-1.5.2-.1.3-.3.5-.5.4-.4.8-.7 1.2-1.1.2-.2.5-.4.7-.6.3-.3.7-.6 1-.9.3-.2.5-.5.8-.7.3-.3.6-.6 1-.9.3-.2.5-.5.8-.8l.9-.9c.3-.3.6-.5.8-.8l.9-.9c.3-.3.6-.5.9-.8l.9-.9c.3-.3.6-.5.9-.8l.9-.9c.3-.3.6-.6.9-.8l.9-.9.9-.9.9-.9.9-.9.9-.9.9-.9c.3-.3.6-.6 1-.9.3-.3.6-.6.9-.8.3-.3.7-.6 1-.9l.9-.9c.3-.3.6-.6 1-.9l.9-.9c.3-.3.7-.6 1-1l.9-.9c.3-.3.7-.6 1-1 .3-.3.6-.6.9-.8l1-1c.3-.3.6-.5.8-.8l1-1 .9-.9 1-1 .8-.8 1.1-1.1.8-.8 1-1 .9-.9 1.8-1.8 1.8-1.8.5-.5 1.3-1.3.8-.8 1-1 .8-.8 1-1 .7-.7.1-.1.9-.9.8-.8 1-1 .8-.8 1-1 .8-.8c.3-.3.6-.6.9-1l.8-.8.9-.9.8-.8.9-.9.8-.8.9-.9.8-.8.9-.9.7-.7.9-.9c.2-.2.4-.5.7-.7.3-.3.6-.6.9-1l.6-.6c.3-.3.6-.7 1-1 .2-.2.4-.4.5-.6l.9-.9.6-.6c.3-.3.6-.7.9-1l.5-.5c.3-.3.6-.7.9-1 .2-.2.3-.4.5-.5l.9-.9.5-.5c1.4-1.4 2.7-2.8 3.9-4.1l.2-.2c.3-.4.7-.7 1-1l.5-.5.7-.7.5-.5.6-.6.5-.5c.2-.2.4-.5.7-.7l.3-.3c.3-.3.5-.5.7-.8l.3-.3c.2-.3.5-.5.7-.7l.2-.2.7-.7.3-.3c.2-.2.4-.5.6-.7l.1-.1c.2-.3.5-.5.7-.7l.1-.1c.2-.2.4-.4.6-.7l.2-.2c.2-.2.4-.4.5-.6l.1-.1c.2-.2.3-.4.5-.5l.1-.1c.1-.2.3-.3.4-.4 0-.1.1-.1.1-.2l.3-.3c0-.1.1-.1.1-.2.4-.5.8-.8 1-1.1l92.7 15.6c.3 1.6.5 3.3.7 5 3.1 24.1 2.8 57.5 2.1 77.5-.1 1.7-.1 3.3-.2 4.8v.1c-.1 1.5-.1 2.8-.2 4v.1c0 .6 0 1.1-.1 1.6v.2c0 .5 0 .9-.1 1.4v.2c0 .4 0 .8-.1 1.1v.1c-1.1 1.8-2.3 3.6-3.5 5.3-3.5 5.3-7.3 10.5-11.3 15.5-4.6 5.8-9.5 11.3-14.8 16.7-.9.9-1.7 1.8-2.6 2.7-3.2 3.2-6.5 6.3-9.9 9.3-3 2.7-6.2 5.3-9.3 7.8-2.1 1.6-4.1 3.3-6.2 4.8-2.3 1.7-4.7 3.4-7.1 5.1l-7.2 4.8c-.7.4-1.3.9-2 1.3-.5 0-1.1.1-1.7.1s-1.1.4-1.8.4zm130.9-250.3l-15.9-8.9-9.3-5.2c-.5-1.5-.9-3-1.4-4.4-1.5-4.4-3.1-8.8-4.8-13.2-2.4-5.9-5-11.8-7.9-17.5-1.4-2.8-2.9-5.7-4.5-8.4-2.3-4.2-4.8-8.2-7.3-12.2-1.7-2.7-3.5-5.3-5.3-7.9-1.4-2-2.9-4-4.4-6l-4.2-5.4c-2-2.5-4-4.9-6.2-7.3l2.1-23.2c1.1 1.1 2.3 2.2 3.4 3.4 33.3 33.2 55.2 73.5 65.7 116.2z"/><path class="st1" d="M993.1 632.6c-30.6 12.4-62.9 18.7-96 18.7s-65.5-6.3-96-18.7c-31.7-12.8-60.1-31.7-84.4-56.1-24.4-24.4-43.2-52.8-56.1-84.4-12.4-30.6-18.7-62.9-18.7-96s6.3-65.5 18.7-96c10.9-26.8 26.1-51.2 45.2-72.9l-153 153L0 932.9v720.3l741.8-741.8 322.9-322.9c-21.3 18.7-45.3 33.4-71.6 44.1z"/></svg>