<?xml version="1.0" encoding="utf-8"?>
<!-- Generator: Adobe Illustrator 24.1.2, SVG Export Plug-In . SVG Version: 6.00 Build 0)  -->
<svg version="1.1" id="Capa_1" xmlns="http://www.w3.org/2000/svg" xmlns:xlink="http://www.w3.org/1999/xlink" x="0px" y="0px"
	 viewBox="0 0 24 24" style="enable-background:new 0 0 24 24;" xml:space="preserve">
<style type="text/css">
	.st0{fill:none;}
	.st1{fill:#2B0082;}
</style>
<path class="st0" d="M7.4-8.4v2.5h2.5C9.9-7.3,8.9-8.4,7.4-8.4z"/>
<path class="st1" d="M17.7,4.4H6.3c-1,0-1.9,0.9-1.9,1.9v11.4c0,1,0.9,1.9,1.9,1.9h11.4c1,0,1.9-0.9,1.9-1.9v-1.8V8.1V6.3
	C19.6,5.3,18.7,4.4,17.7,4.4z M7.1,14.6c0.6,0,0.9-0.5,0.9-0.9v-3.4c0-0.6-0.5-0.9-0.9-0.9H5.4V7.9h3.8c0.1,0,0.2,0.1,0.2,0.2v7.7
	c0,0.1-0.1,0.2-0.2,0.2H5.4v-1.4L7.1,14.6L7.1,14.6z M5.4,13.5v-3h1.4v3H5.4z M18.6,8.2c-1.9,0.2-3.4,1.8-3.4,3.8s1.4,3.5,3.4,3.8
	v1.9c0,0.5-0.5,0.9-0.9,0.9H6.3c-0.5,0-0.9-0.5-0.9-0.9v-0.5h3.8c0.8,0,1.4-0.6,1.4-1.4V8.1c0-0.8-0.6-1.4-1.4-1.4H5.4V6.3
	c0-0.5,0.5-0.9,0.9-0.9h11.4c0.5,0,0.9,0.5,0.9,0.9v1.9H18.6z M18.5,9.4v5.3c-1.3-0.2-2.2-1.4-2.2-2.7S17.3,9.6,18.5,9.4z"/>
</svg>
