<?xml version="1.0" encoding="utf-8"?>
<!-- Generator: Adobe Illustrator 24.1.2, SVG Export Plug-In . SVG Version: 6.00 Build 0)  -->
<svg version="1.1" id="Capa_1" xmlns="http://www.w3.org/2000/svg" xmlns:xlink="http://www.w3.org/1999/xlink" x="0px" y="0px"
	 viewBox="0 0 24 24" style="enable-background:new 0 0 24 24;" xml:space="preserve">
<style type="text/css">
	.st0{fill:#2B0082;}
</style>
<g>
	<g>
		<path class="st0" d="M12,4.2c-4.3,0-7.8,3.5-7.8,7.8s3.5,7.8,7.8,7.8s7.8-3.5,7.8-7.8S16.3,4.2,12,4.2z M12.5,6.7l2-1.1
			c1.1,0.5,2.1,1.2,2.8,2.1l-0.5,2.2l-1.5,0.7l-2.8-2.1V6.7z M9.5,5.6l2,1.1v1.9l-2.8,2.1L7.2,9.9L6.7,7.7C7.5,6.8,8.4,6.1,9.5,5.6z
			 M6.4,15.8c-0.6-1-1-2-1.2-3.2l1.7-1.8l1.5,0.7l1.1,3.2l-1,1.2L6.4,15.8z M13.8,18.6c-0.6,0.2-1.1,0.2-1.8,0.2
			c-0.7,0-1.4-0.1-2.1-0.3l-0.6-1.9l1-1.2h3.4l1,1.1L13.8,18.6z M15.4,15.9l-1-1.1l1.1-3.2l1.5-0.7l1.7,1.8c-0.1,1-0.4,2-1,2.8
			L15.4,15.9z"/>
	</g>
</g>
</svg>
