<?xml version="1.0" encoding="utf-8"?>
<!-- Generator: Adobe Illustrator 24.1.2, SVG Export Plug-In . SVG Version: 6.00 Build 0)  -->
<svg version="1.1" id="Capa_1" xmlns="http://www.w3.org/2000/svg" xmlns:xlink="http://www.w3.org/1999/xlink" x="0px" y="0px"
	 viewBox="0 0 30.6 24" style="enable-background:new 0 0 30.6 24;" xml:space="preserve">
<style type="text/css">
	.st0{fill:none;}
	.st1{fill:#FFFFFF;stroke:#000000;stroke-width:0.5;stroke-miterlimit:10;}
</style>
<rect x="3.3" class="st0" width="24" height="24"/>
<g>
	<path class="st1" d="M15.2,12.8c1.9,0,3.6,0.4,4.8,1.1c1.2,0.5,2,1.9,2,3.1v1.9H8.4V17c0-1.3,0.8-2.7,2-3.1
		C11.6,13.1,13.3,12.8,15.2,12.8z M6,13.1c1.2,0,2.3-1.1,2.3-2.3S7.4,8.4,6,8.4s-2.3,1.1-2.3,2.3S4.8,13.1,6,13.1z M7.4,14.3
		c-0.4-0.1-0.8-0.1-1.2-0.1C5,14.1,4,14.4,3,14.8c-0.8,0.4-1.3,1.2-1.3,2.1v1.7h5.2v-1.9C6.7,16,6.8,15.1,7.4,14.3z M24.3,13.1
		c1.2,0,2.3-1.1,2.3-2.3s-1.1-2.3-2.3-2.3S22,9.6,22,10.8S23,13.1,24.3,13.1z M28.9,16.9c0-0.9-0.5-1.7-1.3-2.1
		c-1.1-0.4-2-0.5-3.2-0.5c-0.4,0-0.9,0-1.2,0.1c0.4,0.8,0.7,1.7,0.7,2.7V19H29v-2C29,16.9,28.9,16.9,28.9,16.9z M15.2,5.1
		c2,0,3.5,1.5,3.5,3.4s-1.5,3.3-3.5,3.3s-3.4-1.5-3.4-3.4S13.2,5.1,15.2,5.1z"/>
</g>
</svg>
