<?xml version="1.0" encoding="utf-8"?>
<!-- Generator: Adobe Illustrator 24.1.2, SVG Export Plug-In . SVG Version: 6.00 Build 0)  -->
<svg version="1.1" id="Capa_1" xmlns="http://www.w3.org/2000/svg" xmlns:xlink="http://www.w3.org/1999/xlink" x="0px" y="0px"
	 viewBox="0 0 1280 1920" style="enable-background:new 0 0 1280 1920;" xml:space="preserve">
<style type="text/css">
	.st0{fill:#5688FB;}
	.st1{fill:#EF3894;}
	.st2{fill:#FFFFFF;}
</style>
<polygon class="st0" points="1185.3,1663.7 1030.5,1508.9 619.3,1920 967.6,1920 1204.6,1683 "/>
<polygon class="st1" points="473.2,1613.3 463.6,1603.7 347.8,1487.9 0,1835.6 0,1920 166.5,1920 390.3,1696.2 "/>
<g>
	<path class="st2" d="M367,1542.1l9.3,11.5l-2.6,2.6l7.7,30.1l6.3,7.6l2.6-2.6l9.2,11.4l-15.5,15.5l-9.2-11.4l2.6-2.6l-6.3-7.6
		c0,0-0.6-0.3-1.8-0.9c-1.2-0.6-2.7-1.3-4.5-2.1c-1.8-0.8-3.8-1.7-6-2.7c-2.2-1-4.2-1.9-6.1-2.8c-1.9-0.9-3.6-1.6-5-2.3
		c-1.4-0.6-2.2-1-2.6-1.1l-2.6,2.6l-9.3-11.5l15.5-15.5l9.3,11.5l-2.6,2.6l12.3,6.7l-4.4-14.6l-2.6,2.6l-9.3-11.5L367,1542.1z
		 M363.3,1618.2l9.2,11.4l-15.5,15.5l-9.2-11.4l2.6-2.6l-2.9-2.4l-9.2,9.2l1.8,3.4l2.6-2.6l9.2,11.4l-15.5,15.5l-9.2-11.4l2.6-2.6
		l-17.7-34.2l-3,3l-9.2-11.4l25.9-25.9l9.2,11.4l-2.9,2.9l28.8,23.1L363.3,1618.2z M331.2,1624.4l4.8-4.8l-12.5-9.9L331.2,1624.4z
		 M320,1651.2l13.9,17.1l-29.4,29.4l-9.2-11.4l2.6-2.6l-23.2-28.6l-2.6,2.6l-9.2-11.4l15.5-15.5l9.2,11.4l-2.6,2.6l23.2,28.6
		l6.1-6.1l-4.6-5.7L320,1651.2z M265.3,1679.9l-6.9-8.6l-7.8,7.8l6.9,8.6L265.3,1679.9z M264.1,1655.2l16.2,20l-0.5,10.9l-13,13
		l6.9,8.6l2.6-2.6l9.3,11.5l-15.5,15.5l-9.3-11.5l2.6-2.6l-23.2-28.6l-2.6,2.6l-9.2-11.4l25.9-25.9L264.1,1655.2z M211.1,1697.9
		l13.9,17.2l-7.7,7.7l-4.6-5.7l-2.6,2.6l23.2,28.6l2.6-2.6l9.3,11.5l-15.6,15.6l-9.3-11.5l2.6-2.6l-23.2-28.6l-2.6,2.6l4.6,5.7
		l-7.8,7.8l-13.9-17.2L211.1,1697.9z M177.3,1731.6l9.3,11.5l-2.6,2.6l27.8,34.3l-0.5,10.9l-19.3,19.3l-9.8-0.5l-27.8-34.3l-2.6,2.6
		l-9.3-11.5l15.5-15.5l9.3,11.5l-2.6,2.6l23.2,28.6l8.9-8.9l-23.2-28.6l-2.6,2.6l-9.3-11.5L177.3,1731.6z M153.3,1786.8l-10.3,10.3
		l-4.6-5.7l-6.8,6.8l6.9,8.6l10.3-10.3l9.3,11.5l-10.3,10.3l6.9,8.6l2.6-2.6l9.3,11.5l-15.6,15.6l-9.3-11.5l2.6-2.6l-23.2-28.6
		l-2.6,2.6l-9.3-11.5l30.1-30.1L153.3,1786.8z"/>
</g>
</svg>
