<?xml version="1.0" encoding="utf-8"?>
<!-- Generator: Adobe Illustrator 24.1.2, SVG Export Plug-In . SVG Version: 6.00 Build 0)  -->
<svg version="1.1" id="Capa_1" xmlns="http://www.w3.org/2000/svg" xmlns:xlink="http://www.w3.org/1999/xlink" x="0px" y="0px"
	 viewBox="0 0 641 97" style="enable-background:new 0 0 641 97;" xml:space="preserve">
<style type="text/css">
	.st0{fill:#FFFFFF;}
	.st1{fill:none;}
</style>
<g id="Rectángulo_1">
	<path class="st0" d="M48.5,93.5c-24.8,0-45-20.2-45-45s20.2-45,45-45h544c24.8,0,45,20.2,45,45s-20.2,45-45,45H48.5z"/>
	<path d="M592.5,7C615.4,7,634,25.6,634,48.5S615.4,90,592.5,90h-544C25.6,90,7,71.4,7,48.5S25.6,7,48.5,7H592.5 M592.5,0h-544
		C21.7,0,0,21.7,0,48.5S21.7,97,48.5,97h544c26.8,0,48.5-21.7,48.5-48.5S619.3,0,592.5,0L592.5,0z"/>
</g>
<g id="calendar_icon" transform="translate(351.702 853.009)">
	<path id="Trazado_12" class="st1" d="M-320-841h73v73h-73V-841z"/>
	<path id="Trazado_13" d="M-262.2-831.9h-3v-6.1h-6.1v6.1h-24.3v-6.1h-6.1v6.1h-3c-3.3,0-6.1,2.7-6.1,6.1c0,0,0,0,0,0l0,42.6
		c0,3.4,2.7,6.1,6.1,6.1c0,0,0,0,0,0h42.6c3.4,0,6.1-2.7,6.1-6.1v-42.6C-256.1-829.1-258.9-831.9-262.2-831.9z M-262.2-783.2h-42.6
		v-33.5h42.6V-783.2z M-298.7-810.6h15.2v15.2h-15.2V-810.6z"/>
</g>
</svg>
