<?xml version="1.0" encoding="utf-8"?>
<!-- Generator: Adobe Illustrator 24.1.2, SVG Export Plug-In . SVG Version: 6.00 Build 0)  -->
<svg version="1.1" id="Capa_1" xmlns="http://www.w3.org/2000/svg" xmlns:xlink="http://www.w3.org/1999/xlink" x="0px" y="0px"
	 viewBox="0 0 641 97" style="enable-background:new 0 0 641 97;" xml:space="preserve">
<style type="text/css">
	.st0{fill:#FFFFFF;}
	.st1{fill:none;}
</style>
<g id="Rectángulo_1">
	<path class="st0" d="M48.5,93.5c-24.9,0-45-20.1-45-45s20.1-45,45-45h544c24.9,0,45,20.1,45,45s-20.1,45-45,45H48.5z"/>
	<path d="M592.5,7C615.4,7,634,25.6,634,48.5S615.4,90,592.5,90h-544C25.6,90,7,71.4,7,48.5S25.6,7,48.5,7H592.5 M592.5,0h-544
		C21.7,0,0,21.7,0,48.5S21.7,97,48.5,97h544c26.8,0,48.5-21.7,48.5-48.5S619.3,0,592.5,0z"/>
</g>
<path id="Trazado_2" class="st1" d="M31.7,12h73v73h-73L31.7,12z"/>
<path d="M92.5,24.1H43.8c-3.4,0-6.1,2.7-6.1,6.1l0,36.6c0,3.4,2.7,6.1,6.1,6.1h48.7c3.4,0,6.1-2.7,6.1-6.1V30.2
	C98.6,26.9,95.9,24.1,92.5,24.1z M92.5,36.3L68.2,51.5L43.8,36.3v-6.1l24.4,15.2l24.4-15.2V36.3z"/>
</svg>
