<svg xmlns="http://www.w3.org/2000/svg" width="641" height="97" viewBox="0 0 641 97">
  <g id="Grupo_14" data-name="Grupo 14" transform="translate(-320 -841)">
    <rect id="Rectángulo_1" data-name="Rectángulo 1" width="641" height="97" rx="48.5" transform="translate(320 841)" fill="#fff"/>
    <g id="email_icon" transform="translate(352 854)">
      <path id="Trazado_12" data-name="Trazado 12" d="M0,0H72V72H0Z" fill="none"/>
      <path id="Trazado_13" data-name="Trazado 13" d="M56,4H8a5.992,5.992,0,0,0-5.97,6L2,46a6.018,6.018,0,0,0,6,6H56a6.018,6.018,0,0,0,6-6V10A6.018,6.018,0,0,0,56,4Zm0,12L32,31,8,16V10L32,25,56,10Z" transform="translate(4 8)"/>
    </g>
  </g>
</svg>
