<?xml version="1.0" encoding="utf-8"?>
<!-- Generator: Adobe Illustrator 24.1.2, SVG Export Plug-In . SVG Version: 6.00 Build 0)  -->
<svg version="1.1" id="Capa_1" xmlns="http://www.w3.org/2000/svg" xmlns:xlink="http://www.w3.org/1999/xlink" x="0px" y="0px"
	 viewBox="0 0 641 97" style="enable-background:new 0 0 641 97;" xml:space="preserve">
<style type="text/css">
	.st0{fill:#FFFFFF;}
	.st1{fill:none;}
</style>
<g id="Rectángulo_1">
	<path class="st0" d="M48.5,93.5c-24.8,0-45-20.2-45-45s20.2-45,45-45h544c24.8,0,45,20.2,45,45s-20.2,45-45,45H48.5z"/>
	<path d="M592.5,7C615.4,7,634,25.6,634,48.5S615.4,90,592.5,90h-544C25.6,90,7,71.4,7,48.5S25.6,7,48.5,7H592.5 M592.5,0h-544
		C21.7,0,0,21.7,0,48.5S21.7,97,48.5,97h544c26.8,0,48.5-21.7,48.5-48.5S619.3,0,592.5,0L592.5,0z"/>
</g>
<path id="Trazado_12" class="st1" d="M32,13h72v72H32V13z"/>
<path id="Trazado_13" d="M86,37h-3v-6c0-8.3-6.7-15-15-15s-15,6.7-15,15v6h-3c-3.3,0-6,2.7-6,6v30c0,3.3,2.7,6,6,6h36
	c3.3,0,6-2.7,6-6V43C92,39.7,89.3,37,86,37z M68,64c-3.3,0-6-2.7-6-6s2.7-6,6-6c3.3,0,6,2.7,6,6C74,61.3,71.3,64,68,64L68,64z
	 M77.3,37H58.7v-6c0-5.1,4.2-9.3,9.3-9.3c5.1,0,9.3,4.2,9.3,9.3L77.3,37z"/>
</svg>
