<svg xmlns="http://www.w3.org/2000/svg" width="641" height="97" viewBox="0 0 641 97">
  <g id="Grupo_14" data-name="Grupo 14" transform="translate(-320 -841)">
    <rect id="Rectángulo_1" data-name="Rectángulo 1" width="641" height="97" rx="48.5" transform="translate(320 841)" fill="#fff"/>
    <g id="padlock_icon" transform="translate(351.992 853.992)">
      <path id="Trazado_12" data-name="Trazado 12" d="M0,0H72.017V72.017H0Z" fill="none"/>
      <path id="Trazado_13" data-name="Trazado 13" d="M46.01,22h-3V16A15,15,0,0,0,13,16v6H10a6.019,6.019,0,0,0-6,6V58.013a6.019,6.019,0,0,0,6,6H46.01a6.019,6.019,0,0,0,6-6V28.006A6.019,6.019,0,0,0,46.01,22Zm-18,27.006a6,6,0,1,1,6-6A6.019,6.019,0,0,1,28.006,49.011ZM37.308,22H18.7V16a9.3,9.3,0,0,1,18.6,0Z" transform="translate(8.003 2.001)"/>
    </g>
  </g>
</svg>
