<svg id="Capa_1" data-name="Capa 1" xmlns="http://www.w3.org/2000/svg" viewBox="0 0 641 97"><defs><style>.cls-1{fill:#fff;}.cls-2{fill:#2b0082;}.cls-3{fill:none;}</style></defs><g id="Rectángulo_1" data-name="Rectángulo 1"><path class="cls-1" d="M48.5,93.5a45,45,0,0,1,0-90h544a45,45,0,0,1,0,90Z" transform="translate(0 0)"/><path class="cls-2" d="M592.5,7a41.5,41.5,0,0,1,0,83H48.5a41.5,41.5,0,0,1,0-83h544m0-7H48.5a48.5,48.5,0,0,0,0,97h544a48.5,48.5,0,0,0,0-97Z" transform="translate(0 0)"/></g><g id="person-black-18dp"><path id="Trazado_2" data-name="Trazado 2" class="cls-3" d="M31.7,12h73V85h-73Z" transform="translate(0 0)"/><path id="Trazado_3" data-name="Trazado 3" class="cls-2" d="M68.21,48.5A12.17,12.17,0,1,0,56,36.33,12.17,12.17,0,0,0,68.21,48.5Zm0,6.08c-8.12,0-24.34,4.08-24.34,12.17v6.09H92.55V66.75C92.55,58.66,76.33,54.58,68.21,54.58Z" transform="translate(0 0)"/></g></svg>