<?xml version="1.0" encoding="utf-8"?>
<!-- Generator: Adobe Illustrator 24.1.2, SVG Export Plug-In . SVG Version: 6.00 Build 0)  -->
<svg version="1.1" id="Capa_1" xmlns="http://www.w3.org/2000/svg" xmlns:xlink="http://www.w3.org/1999/xlink" x="0px" y="0px"
	 viewBox="0 0 641 97" style="enable-background:new 0 0 641 97;" xml:space="preserve">
<style type="text/css">
	.st0{fill:#FFFFFF;}
</style>
<path id="Rectángulo_1" class="st0" d="M48.5,0h544C619.3,0,641,21.7,641,48.5l0,0c0,26.8-21.7,48.5-48.5,48.5h-544
	C21.7,97,0,75.3,0,48.5l0,0C0,21.7,21.7,0,48.5,0z"/>
<path id="Trazado_3" d="M68.2,48.5c6.7,0,12.2-5.5,12.1-12.2c0-6.7-5.5-12.2-12.2-12.1c-6.7,0-12.1,5.5-12.1,12.2
	C56,43.1,61.4,48.5,68.2,48.5C68.2,48.5,68.2,48.5,68.2,48.5z M68.2,54.6c-8.1,0-24.3,4.1-24.3,12.2v6.1h48.7v-6.1
	C92.6,58.7,76.3,54.6,68.2,54.6z"/>
</svg>
