<?xml version="1.0" encoding="utf-8"?>
<!-- Generator: Adobe Illustrator 24.1.2, SVG Export Plug-In . SVG Version: 6.00 Build 0)  -->
<svg version="1.1" id="Capa_1" xmlns="http://www.w3.org/2000/svg" xmlns:xlink="http://www.w3.org/1999/xlink" x="0px" y="0px"
	 viewBox="0 0 507 97" style="enable-background:new 0 0 507 97;" xml:space="preserve">
<style type="text/css">
	.st0{fill:#FFFFFF;}
	.st1{fill:none;}
</style>
<path class="st0" d="M458.5,0h-11.4H345.5h-297C21.7,0,0,21.7,0,48.5S21.7,97,48.5,97h297h101.6h11.4c26.8,0,48.5-21.7,48.5-48.5
	S485.3,0,458.5,0z"/>
<g id="phone_icon" transform="translate(351.992 853.992)">
	<path id="Trazado_12" class="st1" d="M-320-841h72v72h-72V-841z"/>
	<path id="Trazado_13" d="M-300.1-808.6c4.3,8.5,11.3,15.4,19.8,19.8l6.6-6.6c0.8-0.8,2-1.1,3.1-0.7c3.5,1.1,7.1,1.7,10.7,1.7
		c1.7,0,3,1.3,3,3v10.5c0,1.7-1.3,3-3,3c-28.2,0-51-22.8-51-51c0,0,0,0,0,0c0-1.7,1.3-3,3-3h10.5c1.7,0,3,1.3,3,3
		c0,3.6,0.6,7.3,1.7,10.7c0.3,1.1,0.1,2.3-0.8,3.1L-300.1-808.6z"/>
</g>
</svg>
