<?xml version="1.0" encoding="utf-8"?>
<!-- Generator: Adobe Illustrator 24.1.2, SVG Export Plug-In . SVG Version: 6.00 Build 0)  -->
<svg version="1.1" id="Capa_1" xmlns="http://www.w3.org/2000/svg" xmlns:xlink="http://www.w3.org/1999/xlink" x="0px" y="0px"
	 viewBox="0 0 507 97" style="enable-background:new 0 0 507 97;" xml:space="preserve">
<style type="text/css">
	.st0{fill:#FFFFFF;}
	.st1{fill:#2B0082;}
	.st2{fill:none;}
</style>
<path class="st0" d="M458.5,7H420h-87H48.5C25.6,7,7,25.6,7,48.5C7,71.4,25.6,90,48.5,90H333h87h38.5c22.9,0,41.5-18.6,41.5-41.5
	C500,25.6,481.4,7,458.5,7z"/>
<path class="st1" d="M458.5,0H420h-87H48.5C21.7,0,0,21.7,0,48.5S21.7,97,48.5,97H333h87h38.5c26.8,0,48.5-21.7,48.5-48.5
	S485.3,0,458.5,0z M458.5,90H420h-87H48.5C25.6,90,7,71.4,7,48.5C7,25.6,25.6,7,48.5,7H333h87h38.5C481.4,7,500,25.6,500,48.5
	C500,71.4,481.4,90,458.5,90z"/>
<path id="Trazado_2" class="st2" d="M31.7,12h73v73h-73L31.7,12z"/>
<path class="st1" d="M53.6,45.2c3.9,7.7,10.2,13.9,17.8,17.8l6-6c0.7-0.7,1.8-1,2.8-0.6c3,1,6.3,1.5,9.7,1.5c1.5,0,2.7,1.2,2.7,2.7
	v9.5c0,1.5-1.2,2.7-2.7,2.7c-25.4,0-46-20.6-46-46c0-1.5,1.2-2.7,2.7-2.7H56c1.5,0,2.7,1.2,2.7,2.7c0,3.4,0.5,6.6,1.5,9.7
	c0.3,0.9,0.1,2-0.7,2.8L53.6,45.2z"/>
</svg>
