<svg id="Capa_1" data-name="Capa 1" xmlns="http://www.w3.org/2000/svg" viewBox="0 0 641 97"><defs><style>.cls-1{fill:#fff;}.cls-2{fill:none;}</style></defs><g id="Rectángulo_1" data-name="Rectángulo 1"><path class="cls-1" d="M48.5,93.5a45,45,0,0,1,0-90h544a45,45,0,0,1,0,90Z" transform="translate(0 0)"/><path d="M592.5,7a41.5,41.5,0,0,1,0,83H48.5a41.5,41.5,0,0,1,0-83h544m0-7H48.5a48.5,48.5,0,0,0,0,97h544a48.5,48.5,0,0,0,0-97Z" transform="translate(0 0)"/></g><path id="Trazado_12" data-name="Trazado 12" class="cls-2" d="M32,13h72V85H32Z" transform="translate(0 0)"/><path id="Trazado_13" data-name="Trazado 13" d="M89,46H65V64H89Zm12,24V27.94A6,6,0,0,0,95,22H41a6,6,0,0,0-6,5.93h0V70a6,6,0,0,0,6,6H95A6,6,0,0,0,101,70Zm-6,.06H41V27.91H95Z" transform="translate(0 0)"/></svg>