<svg id="Capa_1" data-name="Capa 1" xmlns="http://www.w3.org/2000/svg" viewBox="0 0 641 97"><defs><style>.cls-1{fill:#fff;}.cls-2{fill:none;}</style></defs><g id="Rectángulo_1" data-name="Rectángulo 1"><path class="cls-1" d="M48.5,93.5a45,45,0,0,1,0-90h544a45,45,0,0,1,0,90Z" transform="translate(0 0)"/><path d="M592.5,7a41.5,41.5,0,0,1,0,83H48.5a41.5,41.5,0,0,1,0-83h544m0-7H48.5a48.5,48.5,0,0,0,0,97h544a48.5,48.5,0,0,0,0-97Z" transform="translate(0 0)"/></g><path id="Trazado_14" data-name="Trazado 14" class="cls-2" d="M32,13h72V85H32Z" transform="translate(0 0)"/><path id="Trazado_15" data-name="Trazado 15" d="M68,19A21,21,0,0,0,47,40v0c0,15.76,21,39,21,39S89,55.75,89,40A21,21,0,0,0,68,19ZM68,47.5A7.5,7.5,0,1,1,75.5,40,7.5,7.5,0,0,1,68,47.5Z" transform="translate(0 0)"/></svg>