<svg xmlns="http://www.w3.org/2000/svg" width="95" height="95" viewBox="0 0 95 95">
  <g id="Grupo_13" data-name="Grupo 13" transform="translate(-102 -1105)">
    <circle id="Elipse_9" data-name="Elipse 9" cx="47.5" cy="47.5" r="47.5" transform="translate(102 1105)" fill="#2b0082"/>
    <g id="how_to_reg-black-18dp" transform="translate(113 1116)">
      <path id="Trazado_7" data-name="Trazado 7" d="M0,0H73.009V73.009H0Z" fill="none" fill-rule="evenodd"/>
      <g id="Grupo_6" data-name="Grupo 6" transform="translate(9.126 12.168)">
        <path id="Trazado_8" data-name="Trazado 8" d="M21.252,43.546,30.378,34.6a28.414,28.414,0,0,0-3.042-.183C19.214,34.42,3,38.5,3,46.588v6.084H30.378Zm6.084-15.21A12.168,12.168,0,1,0,15.168,16.168,12.165,12.165,0,0,0,27.336,28.336" transform="translate(-3 -4)" fill="#fff" fill-rule="evenodd"/>
        <path id="Trazado_9" data-name="Trazado 9" d="M22.556,36.836,12,26.189,16.259,21.9l6.3,6.327L38.161,12.5l4.259,4.289Z" transform="translate(15.378 13.357)" fill="#fff" fill-rule="evenodd"/>
      </g>
    </g>
  </g>
</svg>
